<svg width="67" height="100" viewBox="0 0 67 100" fill="none" xmlns="http://www.w3.org/2000/svg">
<path d="M4.77686 99.8544C23.249 99.6569 43.9683 99.6569 62.4405 99.8544C43.9683 100.049 23.249 100.049 4.77686 99.8544Z" fill="#263238"/>
<path d="M11.2358 91.2074C9.89721 91.9049 8.4124 92.7107 6.86399 92.3635C5.43322 92.045 3.92297 91.2711 3.39518 89.8156C3.24574 89.3984 3.21713 89.1086 3.71313 89.0736C4.48574 89.0226 5.33148 89.5035 6.02143 89.7902C6.90602 90.174 7.8247 90.4736 8.76532 90.6851C9.42665 90.8252 10.1039 90.8985 10.7684 91.0227C10.8542 91.0227 10.9369 91.0514 11.0196 91.0705L11.115 91.0896L11.1563 91.0736C11.1668 91.0672 11.1789 91.0637 11.1913 91.0637C11.2036 91.0637 11.2157 91.0672 11.2262 91.0736L11.2485 91.0896C11.2555 91.0981 11.2608 91.1079 11.2639 91.1185C11.2671 91.1291 11.2681 91.1402 11.2669 91.1512C11.2657 91.1622 11.2624 91.1728 11.257 91.1824C11.2517 91.1921 11.2444 91.2006 11.2358 91.2074Z" fill="#455A64"/>
<path d="M11.2769 91.0832C10.0687 91.6374 8.80011 92.3094 7.46155 91.9527C6.83544 91.773 6.24192 91.4946 5.7033 91.1278C5.45848 90.9685 4.72401 90.4908 4.76535 90.1437C4.84801 89.5067 7.21673 90.8061 7.50289 90.8985C8.57447 91.2226 9.71176 91.2621 10.8032 91.0131C10.889 91.0131 10.9717 91.0418 11.0544 91.0609C10.2868 91.2527 9.49275 91.3151 8.70473 91.2456C7.61099 91.1437 6.79704 90.6087 5.78279 90.236C5.56658 90.1532 4.88935 89.8507 4.87663 90.236C4.87663 90.4972 5.58565 90.9654 5.73827 91.0641C6.25083 91.4082 6.81259 91.6724 7.40432 91.8476C8.7556 92.2266 10.0306 91.5832 11.261 91.0577L11.2769 91.0832Z" fill="white"/>
<path d="M12.3834 91.6789C12.3834 91.7394 12.412 91.7967 12.4248 91.854C12.4278 91.8599 12.4294 91.8665 12.4294 91.8731C12.4294 91.8798 12.4278 91.8863 12.4248 91.8922C12.4191 91.8979 12.4125 91.9024 12.4051 91.9055C12.3977 91.9086 12.3898 91.9102 12.3818 91.9102C12.3739 91.9102 12.3659 91.9086 12.3586 91.9055C12.3512 91.9024 12.3445 91.8979 12.3389 91.8922C12.3305 91.8835 12.325 91.8724 12.323 91.8604C12.323 91.8604 12.323 91.8604 12.323 91.8349C12.323 91.8094 12.323 91.7999 12.323 91.7839C11.6521 90.9973 11.1085 90.1023 10.4153 89.3221C9.7222 88.5418 9.05769 87.873 8.46312 87.0768C8.08795 86.5735 6.37738 83.9715 7.76682 83.7327C8.38364 83.6276 9.13082 84.2391 9.56005 84.6117C10.1322 85.1163 10.6084 85.7205 10.9654 86.3952C11.8366 88.0449 11.951 89.889 12.3834 91.6789Z" fill="#455A64"/>
<path d="M11.1241 88.0258C10.8467 87.3773 10.4773 86.7723 10.0272 86.2296C9.8714 86.0417 9.11786 85.1435 8.78401 85.3346C8.56781 85.4556 8.7395 85.9174 8.78401 86.0735C9.00022 86.7296 9.50258 87.2678 9.90955 87.8124C10.7359 88.9241 11.4798 90.095 12.1352 91.3157C12.1606 91.3986 12.1861 91.4845 12.2147 91.5674C12.2433 91.6502 12.2624 91.7043 12.2846 91.7744C12.3069 91.8444 12.2846 91.8221 12.3069 91.8476L12.326 91.9018C12.3377 91.9125 12.353 91.9185 12.3689 91.9185C12.3848 91.9185 12.4001 91.9125 12.4118 91.9018C12.3927 91.8476 12.3768 91.7935 12.3609 91.7393L12.4245 91.8635L12.3864 91.7234C12.3864 91.7234 12.3864 91.7011 12.3864 91.6916L12.2846 91.4845C11.9662 90.3097 11.5786 89.1548 11.1241 88.0258ZM12.0493 91.0355C11.6678 90.3221 11.2481 89.6278 10.803 88.9526C10.4405 88.408 10.0558 87.8825 9.65837 87.3602C9.42302 87.0736 9.21041 86.7691 9.02248 86.4493C8.89212 86.2009 8.48196 85.2423 9.24186 85.5926C9.79191 85.8506 10.3038 86.7105 10.5931 87.2073C10.9096 87.7637 11.1746 88.3479 11.3848 88.9526C11.6392 89.6405 11.8395 90.3507 12.0493 91.0355Z" fill="white"/>
<path d="M14.9017 95.077L14.854 95.1057C13.5822 95.6375 11.9734 96.5484 10.5426 96.2172C9.48703 95.9751 8.16118 95.128 7.91636 93.9878C7.64292 92.7139 9.85585 93.3508 10.425 93.4814C11.9421 93.9044 13.4345 94.4116 14.8953 95.0006H14.9239C14.9462 95.0324 14.9271 95.0547 14.9017 95.077Z" fill="#455A64"/>
<path d="M14.9269 95.0197L14.6471 94.9847C13.582 94.8605 12.5201 94.6917 11.4676 94.4655C11.2038 94.4114 9.20703 93.8286 9.20703 94.3795C9.20703 94.698 9.93513 95.0388 10.1609 95.1535C10.5849 95.3601 11.0406 95.4937 11.509 95.5484C12.5868 95.6694 13.6488 95.3 14.7075 95.1025L14.857 95.0707H14.8856C14.9269 95.0547 14.946 95.0324 14.9269 95.0197ZM12.1226 95.4847C11.6402 95.4951 11.1596 95.423 10.7014 95.2713C10.3834 95.1726 9.3056 94.7777 9.35329 94.3764C9.38191 94.163 9.50908 94.2107 9.7539 94.2107C9.86669 94.214 9.97921 94.2235 10.0909 94.2394C10.3644 94.2776 10.6346 94.3445 10.9017 94.4082C11.3754 94.5197 11.8555 94.6184 12.3261 94.7044C13.1051 94.8541 13.8904 94.9656 14.6789 95.0547C13.8205 95.1821 12.9874 95.4656 12.1226 95.4847Z" fill="white"/>
<path d="M15.9536 91.4176C16.3081 93.0029 16.1841 94.6579 15.5975 96.1725L15.5784 96.198C15.5677 96.2056 15.555 96.2096 15.5419 96.2096C15.5288 96.2096 15.516 96.2056 15.5053 96.198C15.4921 96.1918 15.4818 96.1807 15.4765 96.1671C15.4712 96.1535 15.4712 96.1383 15.4767 96.1248L15.5085 96.0292C14.9076 94.233 14.3321 92.4399 13.6962 90.6532C13.5467 90.2328 12.6438 87.5321 13.6231 87.5735C14.2303 87.5989 14.7613 88.6277 15.0252 89.0799C15.4514 89.8074 15.7644 90.5957 15.9536 91.4176Z" fill="#455A64"/>
<path d="M14.4181 89.3571C14.3068 89.236 14.1638 89.1246 14.0525 89.2997C13.8395 89.6373 14.2909 90.8921 14.399 91.252C14.841 92.7202 15.143 94.1917 15.4514 95.6885C15.4769 95.8127 15.5055 95.9401 15.5309 96.0675L15.5055 96.2045C15.5158 96.213 15.5287 96.2177 15.5421 96.2177C15.5554 96.2177 15.5684 96.213 15.5786 96.2045C15.5802 96.1918 15.5802 96.1789 15.5786 96.1663C15.5786 96.1057 15.6072 96.042 15.6168 95.9783C15.8018 94.9901 15.8319 93.979 15.7058 92.9814C15.6233 92.3504 15.4773 91.7294 15.2702 91.1278C15.0699 90.5673 14.8219 89.7966 14.4181 89.3571ZM15.5596 95.8828C15.5596 95.9115 15.5596 95.9401 15.5596 95.972C15.5596 95.9178 15.5595 95.8669 15.5373 95.8127C15.3714 94.6391 15.1304 93.4775 14.8156 92.3349C14.6502 91.7552 14.4499 91.1883 14.3068 90.6055C14.2496 90.3603 14.0525 89.666 14.1892 89.4717C14.3259 89.2774 14.4404 89.5322 14.5294 89.666C14.6184 89.7998 14.6788 89.9526 14.7297 90.0482C15.6132 91.8569 15.9036 93.8989 15.5596 95.8828Z" fill="white"/>
<path d="M17.547 99.7333L17.2958 99.8543C17.1877 99.6346 17.0796 99.418 16.9778 99.2174C16.5263 98.3447 16.0685 97.4753 15.5916 96.6154C15.3213 96.1217 15.0479 95.6376 14.7585 95.1663C14.7479 95.1511 14.7383 95.1351 14.7299 95.1185L14.6568 95.0007L14.5773 94.8796C13.9298 93.8085 13.1175 92.8465 12.1704 92.0292C11.8525 91.7585 11.5123 91.5069 11.1721 91.2585L11.0735 91.1884L11.0481 91.1693L10.9463 91.096C10.9177 91.0801 10.8955 91.061 10.8669 91.0419C9.80809 90.303 8.68574 89.6469 7.59518 88.9686C7.27723 88.7743 6.95928 88.58 6.66041 88.3794C6.63984 88.3703 6.62058 88.3586 6.60317 88.3443C6.5789 88.3322 6.55552 88.3184 6.53322 88.3029C5.15651 87.4367 3.78615 86.5545 2.3999 85.7232C2.34903 85.6945 2.3999 85.6181 2.45395 85.65C3.38872 86.1946 4.33938 86.7169 5.28687 87.2424L5.66523 87.4558C5.91641 87.5959 6.16441 87.7328 6.41241 87.8762C6.90841 88.1564 7.40123 88.4399 7.89087 88.7329C9.29816 89.5244 10.6562 90.4008 11.9574 91.3572C12.0496 91.4304 12.145 91.5037 12.2372 91.5833C12.3294 91.6629 12.3549 91.6757 12.4089 91.7266L12.6092 91.8922C13.7114 92.9019 14.6283 94.0973 15.3181 95.4242C15.369 95.5134 15.4231 95.6058 15.4707 95.7013C15.493 95.7427 15.5184 95.7841 15.5439 95.8255C15.5536 95.8498 15.5653 95.8732 15.5789 95.8956L15.6265 95.9848L15.6583 96.0516C15.7029 96.1313 15.7442 96.2109 15.7855 96.2905C16.2434 97.16 16.6885 98.0358 17.1304 98.9116C17.2544 99.176 17.4007 99.4562 17.547 99.7333Z" fill="#455A64"/>
<path d="M2.46012 87.2263C1.34094 86.6339 -0.436394 85.153 0.0977593 83.688C0.190555 83.4102 0.382245 83.1765 0.636204 83.0314C0.890162 82.8863 1.18859 82.84 1.47448 82.9013C2.18668 83.0319 2.7717 83.6466 3.23273 84.1752C4.45683 85.5638 5.54422 87.0416 6.87006 88.3569C6.87006 88.3569 6.98134 88.4684 7.01313 88.4971C7.04493 88.5257 6.99406 88.5608 6.96544 88.5353L6.83508 88.4079C5.37252 88.1213 3.78596 87.9302 2.46012 87.2263Z" fill="#455A64"/>
<path d="M6.87986 88.3474L6.85124 88.3251C6.43267 88.055 6.03031 87.7604 5.64622 87.4429C4.86131 86.7668 4.11806 86.0436 3.42058 85.2772C3.14714 84.9842 1.8531 83.532 1.57012 84.4906C1.45248 84.8951 1.7291 85.3792 1.93258 85.7072C2.26409 86.232 2.69639 86.6856 3.20438 87.0416C4.23124 87.7044 5.3881 88.1389 6.59688 88.3156L6.76221 88.3506L6.80673 88.3793L6.83534 88.3984C6.84257 88.4008 6.85038 88.4008 6.8576 88.3984C6.86361 88.3985 6.86956 88.3972 6.87504 88.3948C6.88052 88.3923 6.8854 88.3887 6.88933 88.3841C6.89327 88.3796 6.89616 88.3742 6.89782 88.3684C6.89948 88.3626 6.89986 88.3566 6.89894 88.3506C6.89325 88.3471 6.88639 88.3459 6.87986 88.3474ZM6.52375 88.2869C5.53165 88.095 4.57434 87.7536 3.68448 87.2741C3.22703 87.0115 2.81124 86.6819 2.45084 86.2964C2.29288 86.1226 2.14933 85.9362 2.02161 85.739C1.92389 85.5937 1.83879 85.4403 1.76725 85.2804C1.61463 84.9269 1.57648 84.4779 1.76725 84.3441C1.95802 84.2103 2.15515 84.2868 2.46038 84.497C2.56212 84.567 2.66068 84.6498 2.75607 84.7295C2.98856 84.94 3.21035 85.1622 3.42058 85.3951C3.7735 85.7741 4.1296 86.1499 4.49842 86.513C4.74854 86.7614 5.00608 87.0002 5.27104 87.2296C5.72452 87.6296 6.20584 87.9967 6.71135 88.3283L6.52375 88.2869Z" fill="white"/>
<path d="M54.95 86.6754C54.4126 87.5385 53.8181 88.3634 53.2171 89.1819C52.8769 89.6468 52.5272 90.1055 52.187 90.5736C51.8468 91.0418 51.3794 91.5832 51.2681 92.2234C51.26 92.2519 51.2494 92.2796 51.2363 92.3062C51.224 92.3116 51.2104 92.3138 51.197 92.3125C51.1835 92.3113 51.1706 92.3066 51.1595 92.2989C51.1484 92.2913 51.1394 92.2809 51.1333 92.2688C51.1273 92.2567 51.1245 92.2433 51.125 92.2298V92.1884C51.1254 92.183 51.1254 92.1777 51.125 92.1724C51.1088 91.9833 51.1163 91.7928 51.1473 91.6055C51.169 91.0912 51.221 90.5786 51.3031 90.0704C51.4634 89.0278 51.7529 88.0093 52.1647 87.0385C52.5352 86.1704 53.0207 85.3562 53.6082 84.618C54.0788 84.0288 54.7687 83.1434 55.4968 82.8663C56.1582 82.6147 56.1931 83.5224 56.1486 83.9555C56.0501 84.9365 55.4714 85.8601 54.95 86.6754Z" fill="#455A64"/>
<path d="M55.0293 84.3536C54.6954 84.1976 53.9546 85.1658 53.6208 85.5766C53.0949 86.2245 52.6506 86.9347 52.2981 87.6914C51.6729 89.052 51.2827 90.509 51.1439 92.0004C51.1439 92.061 51.128 92.1215 51.1249 92.182C51.1252 92.1873 51.1252 92.1926 51.1249 92.1979C51.1231 92.2116 51.1231 92.2256 51.1249 92.2393C51.1236 92.2527 51.1259 92.2662 51.1315 92.2784C51.1371 92.2906 51.1459 92.3011 51.1568 92.3089C51.1678 92.3166 51.1806 92.3213 51.194 92.3225C51.2073 92.3238 51.2208 92.3214 51.233 92.3158C51.2648 92.1915 51.2966 92.0737 51.3379 91.9559C51.3792 91.838 51.4078 91.7425 51.446 91.6374C51.9099 90.5141 52.4895 89.4424 53.1756 88.4398C53.926 87.2296 55.4712 84.5607 55.0293 84.3536ZM51.2838 91.8253C51.2298 91.9813 51.1853 92.1438 51.1471 92.2966L51.1948 91.9336C51.3544 90.6204 51.6902 89.3349 52.1932 88.1118C52.4817 87.4263 52.8431 86.7739 53.271 86.1658C53.4997 85.8389 53.7493 85.5272 54.0182 85.2327C54.1295 85.1085 54.7908 84.3186 54.972 84.4587C55.1024 84.5607 54.759 85.3887 54.7526 85.4142C54.6891 85.5798 54.6127 85.7327 54.5333 85.9078C54.3743 86.2423 54.1962 86.5671 54.015 86.8888C53.6144 87.5831 53.1756 88.2583 52.7432 88.943C52.1449 89.8427 51.655 90.8102 51.2838 91.8253Z" fill="white"/>
<path d="M59.0295 91.6406C57.8658 92.5515 56.4128 92.991 54.9852 93.2808C54.219 93.4369 53.4464 93.5579 52.6801 93.6948C51.9851 93.7835 51.3011 93.9436 50.6389 94.1726C50.6094 94.182 50.5807 94.1937 50.553 94.2076C50.3735 94.283 50.2029 94.378 50.0443 94.491C50.0386 94.4947 50.032 94.4967 50.0252 94.4967C50.0185 94.4967 50.0118 94.4947 50.0062 94.491L49.9617 94.5356C49.9617 94.5356 49.933 94.5356 49.9394 94.5197C49.9522 94.5013 49.9639 94.4822 49.9744 94.4624C49.9717 94.4534 49.9721 94.4438 49.9756 94.4352C49.9791 94.4265 49.9854 94.4192 49.9934 94.4146C49.9934 94.4146 49.9934 94.4146 50.0125 94.3987L50.0475 94.3445C50.8678 93.026 52.4957 92.0674 53.8184 91.3731C55.141 90.6788 56.6004 90.2011 58.1043 90.2998C58.4795 90.3253 59.3761 90.3221 59.5701 90.7361C59.764 91.1501 59.2871 91.4463 59.0295 91.6406Z" fill="#455A64"/>
<path d="M58.0818 91.2074C57.926 90.7806 56.7369 91.1023 56.4444 91.1724C55.5636 91.3976 54.704 91.6992 53.8754 92.0737C52.5084 92.616 51.2341 93.3681 50.0981 94.3031L50.0504 94.3286L50.0155 94.3827C50.0155 94.3827 50.0155 94.3827 49.9964 94.3986C49.9883 94.4033 49.982 94.4105 49.9785 94.4192C49.9751 94.4279 49.9746 94.4374 49.9773 94.4464L50.0441 94.4177C50.2094 94.3349 50.3811 94.2585 50.5528 94.1884L50.6386 94.1502C51.858 93.7006 53.1048 93.3293 54.3714 93.0387C55.2453 92.818 56.0968 92.5162 56.9149 92.1374C57.1375 92.0418 58.2122 91.5641 58.0818 91.2074ZM57.519 91.7234C56.2472 92.5896 54.5844 92.8858 53.1186 93.268C52.1227 93.5002 51.1515 93.8287 50.219 94.2489C51.2756 93.4341 52.437 92.7657 53.6719 92.2616C54.3641 91.9495 55.0732 91.6762 55.7958 91.4431C56.1863 91.3152 56.5859 91.2172 56.9912 91.1501C57.2356 91.1063 57.4842 91.0913 57.7321 91.1055C58.1899 91.1819 57.7384 91.5737 57.519 91.7234Z" fill="white"/>
<path d="M48.5339 97.2332C48.5219 97.2402 48.5082 97.2439 48.4942 97.2439C48.4802 97.2439 48.4665 97.2402 48.4545 97.2332V97.2651C48.4545 97.2651 48.4545 97.2874 48.4354 97.2906C48.4163 97.2937 48.4131 97.2906 48.4068 97.2906C47.809 95.6122 47.3671 93.7044 47.507 91.9177C47.5627 91.1604 47.7409 90.4171 48.0348 89.717C48.2383 89.2425 48.6516 88.2838 49.2112 88.1246C50.3399 87.8061 49.7263 91.0738 49.6309 91.5674C49.4592 92.4623 49.2144 93.3414 49.0236 94.2363C48.8201 95.214 48.6866 96.2013 48.5498 97.1918C48.55 97.2072 48.5443 97.2219 48.5339 97.2332Z" fill="#455A64"/>
<path d="M48.5336 97.2332C48.5336 97.1377 48.5145 97.0453 48.5113 96.9498C48.3921 95.4065 48.5123 93.8541 48.8674 92.3477C49.0675 91.595 49.2047 90.8269 49.2776 90.0514C49.2776 89.8603 49.3698 89.1437 48.9596 89.3348C48.7434 89.4336 48.3237 90.6693 48.2284 90.9973C48.044 91.7541 47.9521 92.5305 47.9549 93.3095C47.9464 94.6168 48.1013 95.9199 48.416 97.1886C48.416 97.2237 48.4319 97.2619 48.4414 97.2969C48.4509 97.332 48.4636 97.2969 48.4605 97.2715C48.459 97.262 48.459 97.2523 48.4605 97.2428C48.4726 97.2467 48.4855 97.2479 48.4981 97.2463C48.5108 97.2446 48.5229 97.2402 48.5336 97.2332ZM48.0535 93.9592C48.0137 93.1873 48.0553 92.4134 48.1775 91.6502C48.2294 91.3472 48.2984 91.0473 48.3842 90.7521C48.4507 90.5204 48.5336 90.2937 48.6322 90.0737C48.8833 89.5418 48.9883 89.4367 49.0868 89.4367C49.1854 89.4367 49.1981 89.545 49.2076 89.9368C49.2071 90.1901 49.1826 90.4428 49.1345 90.6916C49.0709 91.0451 48.9978 91.3954 48.9183 91.7458C48.7625 92.4464 48.6004 93.1439 48.4923 93.8541C48.3349 94.8724 48.3157 95.9073 48.435 96.9307C48.2239 95.9528 48.0963 94.9588 48.0535 93.9592Z" fill="white"/>
<path d="M53.4591 96.1152C53.064 96.6154 52.5663 97.0248 51.9997 97.3159C50.8996 97.9338 49.685 98.3064 48.5468 98.8446C48.3751 98.9242 48.2066 99.0102 48.0381 99.0994C48.0222 99.0994 47.8473 99.265 47.8568 99.2491C47.8664 99.2332 47.9045 99.1758 47.9872 99.0644C48.391 98.5038 49.6342 96.835 50.5562 96.0993C51.122 95.632 51.7423 95.2353 52.4035 94.9177C52.7214 94.7776 53.4432 94.4941 53.7611 94.7776C54.0791 95.061 53.6498 95.8445 53.4591 96.1152Z" fill="#455A64"/>
<path d="M53.0331 95.4623C52.7533 95.0356 50.9029 96.3764 50.6581 96.5484C49.7548 97.1835 48.9373 97.9328 48.2258 98.7778C48.1431 98.8733 48.0668 98.9688 47.9873 99.0676L47.8569 99.2491C47.8569 99.2491 48.0223 99.1122 48.0413 99.1026L48.1272 99.0548L48.5437 98.8478C49.2877 98.3924 50.0444 97.9497 50.7693 97.4783C51.3035 97.1443 51.8097 96.7672 52.2828 96.3509C52.4004 96.2522 53.1571 95.6471 53.0331 95.4623ZM52.6866 95.921C51.3989 97.2363 49.682 97.9497 48.1653 98.9466L48.0922 98.9943C48.124 98.9593 48.1526 98.9211 48.1844 98.8892C48.7859 98.2022 49.4513 97.5741 50.1716 97.0134C50.6123 96.6752 51.0719 96.3626 51.5483 96.077C51.8043 95.9101 52.0709 95.7601 52.3464 95.628C52.4672 95.577 52.8074 95.4464 52.8678 95.5228C52.9282 95.5993 52.7692 95.8318 52.6866 95.921Z" fill="white"/>
<path d="M63.4207 84.9364C61.0106 87.0798 57.3797 86.911 54.8361 88.8856C54.7566 88.9461 54.6835 89.0098 54.6072 89.0735C54.5995 89.0797 54.5905 89.0839 54.5809 89.0858C54.5713 89.0877 54.5613 89.0872 54.5519 89.0843C54.5426 89.0815 54.534 89.0765 54.527 89.0696C54.52 89.0627 54.5148 89.0542 54.5118 89.0449C54.51 89.0367 54.5105 89.0282 54.5133 89.0203C54.5161 89.0124 54.5211 89.0055 54.5277 89.0003L54.5817 88.9525C55.6075 87.4199 56.8998 86.0844 58.3971 85.0097C59.6403 84.0829 61.0933 83.3504 62.6672 83.2899C63.055 83.2739 63.8245 83.2166 64.0534 83.6466C64.2823 84.0765 63.7132 84.6689 63.4207 84.9364Z" fill="#455A64"/>
<path d="M62.3142 84.5608C62.2156 84.3824 61.9295 84.4111 61.7705 84.4174C61.3749 84.4353 60.9831 84.5016 60.6036 84.6149C59.8263 84.845 59.0878 85.1907 58.413 85.6404C57.2342 86.3736 56.1503 87.2497 55.1858 88.2488C54.9728 88.4781 54.7693 88.7138 54.5753 88.9622C54.5531 88.9909 54.5308 89.0227 54.5054 89.0514C54.5084 89.0607 54.5136 89.0692 54.5206 89.0761C54.5276 89.083 54.5361 89.088 54.5455 89.0909C54.5549 89.0937 54.5649 89.0942 54.5745 89.0923C54.5841 89.0904 54.5931 89.0862 54.6008 89.08C54.6707 89.0164 54.7438 88.959 54.8201 88.8985C54.8201 88.8985 54.8201 88.8985 54.8392 88.8826C55.3151 88.4514 55.8315 88.0675 56.3813 87.736C57.2546 87.253 58.1584 86.8275 59.087 86.4621C59.4495 86.3156 62.6544 85.1754 62.3142 84.5608ZM61.8309 85.0958C61.195 85.564 60.3938 85.822 59.6657 86.1373C58.9376 86.4525 58.1936 86.7742 57.4623 87.0927C56.8821 87.3533 56.3248 87.6623 55.7962 88.0163C55.3552 88.3111 54.9413 88.6447 54.5594 89.0132C54.8931 88.6126 55.2532 88.2349 55.6373 87.8825H55.6532C56.3412 87.26 57.0676 86.6814 57.8279 86.15L57.8565 86.1277C58.5149 85.6417 59.229 85.2365 59.9836 84.9206C60.393 84.7548 60.8196 84.6351 61.2554 84.5639C61.7546 84.4939 62.1647 84.4875 62.2093 84.6563C62.2474 84.755 62.0312 84.9589 61.8309 85.0958Z" fill="white"/>
<path d="M57.885 86.1913C57.1823 86.7869 56.4924 87.3983 55.8056 88.013L54.8518 88.8825C54.8518 88.8825 54.8359 88.8825 54.8327 88.8984L54.483 89.2169C53.3871 90.1325 52.3674 91.1359 51.4338 92.217C50.9707 92.8069 50.564 93.4393 50.2193 94.1056C50.1843 94.1757 50.1493 94.2426 50.1112 94.3094C50.0921 94.3477 50.073 94.3859 50.0571 94.4241C50.0446 94.4443 50.034 94.4656 50.0253 94.4878C49.7296 95.0674 49.4657 95.6598 49.2114 96.2395C48.8553 97.0484 48.5564 97.8765 48.2575 98.7045C48.2476 98.7284 48.2392 98.7529 48.2321 98.7778C48.2321 98.816 48.2067 98.8542 48.1908 98.8924L48.159 98.9498L48.1208 99.0549C48.0297 99.3224 47.9343 99.5899 47.8347 99.8574L47.5898 99.7428C47.7936 98.8897 48.0604 98.053 48.3879 97.2395C48.394 97.223 48.4014 97.207 48.4102 97.1917C48.4388 97.1121 48.4706 97.0293 48.5055 96.9529C48.5405 96.8764 48.5818 96.7586 48.6232 96.663C48.7217 96.4274 48.8203 96.1981 48.9189 95.9688C49.4707 94.6164 50.1792 93.3336 51.03 92.1469L51.1063 92.0546C51.1151 92.0395 51.1258 92.0256 51.1381 92.0132L51.189 91.9463L51.278 91.838C51.3289 91.7743 51.3861 91.7138 51.437 91.6533L51.4879 91.596C52.3794 90.6524 53.3356 89.7724 54.3494 88.9621L54.8868 88.5099L55.1856 88.2614L55.6466 87.892H55.6626C56.3843 87.3124 57.1188 86.7454 57.8373 86.1594C57.8723 86.1085 57.9168 86.1626 57.885 86.1913Z" fill="#455A64"/>
<path d="M23.3839 61.1234C23.4125 61.8814 24.0707 68.1301 24.6748 68.7671C25.2789 69.404 27.8034 70.4678 29.7111 70.7544C32.2547 71.1302 35.679 70.1716 37.0239 69.162C38.3688 68.1524 39.17 60.8814 38.7917 60.5629C38.4133 60.2444 34.2863 58.1838 31.269 58.1838C27.7239 58.1838 23.3585 60.4387 23.3839 61.1234Z" fill="#37474F"/>
<path d="M24.4868 68.1747C25.4343 68.6584 26.4138 69.0765 27.4183 69.4263C28.4125 69.7977 29.4636 69.9927 30.5247 70.0028C31.5857 69.9764 32.6404 69.8312 33.6692 69.5696C34.7016 69.3176 35.7186 69.0061 36.7151 68.6365C35.7298 69.038 34.7172 69.369 33.6851 69.627C32.6518 69.897 31.5919 70.0519 30.5247 70.0888C29.4553 70.0681 28.3977 69.8611 27.3992 69.4773C26.3939 69.1252 25.4197 68.6895 24.4868 68.1747Z" fill="#263238"/>
<path d="M24.3472 67.3467C25.3331 67.8524 26.353 68.2887 27.3995 68.6525C28.4377 69.0397 29.5348 69.2444 30.6425 69.2576C31.7487 69.2283 32.8482 69.0755 33.9206 68.8022C34.998 68.5457 36.0596 68.2266 37.1001 67.8467C36.0713 68.2644 35.014 68.6081 33.9365 68.8754C32.8589 69.1496 31.754 69.3024 30.6425 69.3308C29.5274 69.3114 28.4243 69.0958 27.3836 68.6939C26.3358 68.3301 25.3202 67.8795 24.3472 67.3467Z" fill="#263238"/>
<path d="M24.2295 66.5759C25.252 67.0979 26.309 67.549 27.3931 67.9263C28.4674 68.3303 29.6032 68.5458 30.7506 68.5633C31.8964 68.532 33.0352 68.3739 34.1463 68.0919C35.2611 67.8207 36.3589 67.4836 37.4339 67.0823C36.3696 67.5164 35.2751 67.8719 34.159 68.1461C33.0448 68.4381 31.9017 68.6058 30.7506 68.6461C29.5953 68.6251 28.4526 68.402 27.374 67.9868C26.2891 67.6034 25.2374 67.1315 24.2295 66.5759Z" fill="#263238"/>
<path d="M24.3345 65.8657C25.3558 66.3901 26.413 66.8414 27.4981 67.2161C28.5703 67.6235 29.7057 67.8391 30.8524 67.8531C31.9991 67.8228 33.139 67.6658 34.2513 67.3849C35.3661 67.1137 36.4639 66.7766 37.5389 66.3753C36.4732 66.8006 35.3789 67.1496 34.264 67.4199C33.1497 67.712 32.0066 67.8797 30.8556 67.9199C29.7052 67.8996 28.5671 67.6798 27.4917 67.2702C26.4021 66.8908 25.3461 66.421 24.3345 65.8657Z" fill="#263238"/>
<path d="M24.2197 65.0439C25.2782 65.5853 26.3724 66.0535 27.4946 66.4453C28.6079 66.8558 29.7835 67.0713 30.9698 67.0822C32.1557 67.053 33.3349 66.8939 34.4863 66.6077C35.6408 66.3252 36.7778 65.9753 37.8915 65.5599C36.7837 66.0068 35.6458 66.3751 34.4863 66.6618C33.3326 66.9641 32.1489 67.1371 30.957 67.1778C29.7605 67.1566 28.5768 66.9259 27.4596 66.4962C26.3417 66.1019 25.2581 65.6162 24.2197 65.0439Z" fill="#263238"/>
<path d="M24.0327 64.1459C25.1196 64.7026 26.2436 65.1836 27.3966 65.5854C28.5395 66.012 29.7476 66.2372 30.9672 66.251C32.1849 66.2199 33.3954 66.0522 34.5759 65.751C35.7617 65.4624 36.9296 65.104 38.0733 64.6777C36.9399 65.1337 35.7767 65.5115 34.5918 65.8084C33.4067 66.118 32.1911 66.2953 30.9672 66.337C29.7391 66.314 28.5244 66.0769 27.3775 65.6364C26.2234 65.2329 25.1047 64.7343 24.0327 64.1459Z" fill="#263238"/>
<path d="M23.8862 63.2795C25.0161 63.8589 26.1847 64.3591 27.3837 64.7764C28.57 65.2207 29.8245 65.4545 31.0909 65.4675C32.3569 65.4349 33.6153 65.2608 34.8427 64.9484C36.0742 64.6484 37.2866 64.2751 38.4737 63.8305C37.2968 64.3065 36.0877 64.6981 34.8554 65.0025C33.625 65.326 32.3623 65.5108 31.0909 65.5535C29.8172 65.53 28.5573 65.2843 27.3678 64.8274C26.1667 64.4084 25.0022 63.8907 23.8862 63.2795Z" fill="#263238"/>
<path d="M23.6763 62.4675C24.8335 63.0645 26.0321 63.5775 27.2627 64.0026C28.4833 64.4614 29.7745 64.7029 31.0781 64.716C32.3786 64.683 33.6712 64.5035 34.9316 64.181C36.1962 63.8723 37.4415 63.4895 38.6612 63.0344C37.4527 63.5207 36.2118 63.9219 34.9475 64.2351C33.6847 64.5659 32.389 64.755 31.0845 64.7988C29.7793 64.7721 28.4886 64.52 27.2691 64.0536C26.03 63.6247 24.8283 63.0942 23.6763 62.4675Z" fill="#263238"/>
<path d="M43.281 42.196C43.3292 41.9337 43.2844 41.6629 43.1543 41.4303C43.0243 41.1977 42.8171 41.0179 42.5688 40.922C38.8679 39.6481 34.2449 38.9124 31.3198 38.9028H31.2689C28.3406 38.9028 23.7144 39.6353 20.0167 40.922C19.7674 41.0168 19.5592 41.1962 19.4284 41.4291C19.2977 41.6619 19.2527 41.9333 19.3013 42.196C19.8609 45.6451 20.3569 57.5851 23.1421 62.9133C24.6842 65.8721 30.7061 65.888 31.2689 65.8784H31.307C31.8698 65.8784 37.8854 65.8784 39.4338 62.9133C42.2286 57.5851 42.7214 45.6451 43.281 42.196Z" fill="#FBBA96"/>
<path opacity="0.1" d="M25.5781 39.6289L25.7435 42.8297L25.8834 46.0304L26.1314 52.432L26.3221 58.8367L26.4016 62.0374L26.4525 65.2414L26.2871 62.0438L26.1441 58.8431L25.8992 52.4383L25.7053 46.0368L25.629 42.8329L25.5781 39.6289Z" fill="black"/>
<path opacity="0.1" d="M24.662 41.559C24.6823 41.6716 24.6703 41.7878 24.6274 41.8939C24.5844 41.9999 24.5123 42.0917 24.4194 42.1584C24.3266 42.2251 24.2167 42.264 24.1026 42.2706C23.9885 42.2773 23.8749 42.2514 23.7749 42.196C23.701 42.152 23.637 42.093 23.5872 42.0228C23.5374 41.9526 23.5028 41.8727 23.4856 41.7883C23.4647 41.7089 23.4603 41.6261 23.4726 41.545C23.4849 41.4638 23.5136 41.3861 23.557 41.3165C23.6004 41.2468 23.6576 41.1869 23.725 41.1402C23.7923 41.0935 23.8686 41.0611 23.9489 41.045C24.0292 41.0289 24.112 41.0295 24.1921 41.0466C24.2723 41.0637 24.3481 41.0971 24.4148 41.1446C24.4816 41.1921 24.538 41.2529 24.5805 41.323C24.623 41.3932 24.6507 41.4713 24.662 41.5526V41.559ZM24.662 41.559C24.6459 41.492 24.6162 41.4291 24.5746 41.3743C24.533 41.3195 24.4804 41.2739 24.4203 41.2405C24.3538 41.2043 24.2798 41.1842 24.2041 41.1817C24.1285 41.1793 24.0533 41.1945 23.9846 41.2263C23.9158 41.258 23.8555 41.3054 23.8082 41.3646C23.761 41.4238 23.7282 41.4933 23.7124 41.5675C23.6967 41.6416 23.6985 41.7184 23.7176 41.7918C23.7367 41.8651 23.7726 41.933 23.8225 41.99C23.8724 42.047 23.9349 42.0916 24.005 42.1201C24.0751 42.1487 24.1509 42.1605 24.2264 42.1546C24.2925 42.1478 24.3566 42.128 24.415 42.0963C24.4734 42.0646 24.5249 42.0216 24.5666 41.9698C24.6118 41.9127 24.6438 41.8462 24.6603 41.7751C24.6768 41.7041 24.6774 41.6303 24.662 41.559Z" fill="black"/>
<path opacity="0.1" d="M24.8813 45.3935C24.9109 45.5404 24.8849 45.693 24.8086 45.8219C24.7322 45.9507 24.6109 46.0466 24.468 46.091C24.309 46.1352 24.1392 46.1158 23.9942 46.0368C23.9204 45.9935 23.8565 45.9351 23.8066 45.8654C23.7568 45.7957 23.7221 45.7163 23.7049 45.6324C23.6897 45.5478 23.6917 45.4611 23.7108 45.3773C23.73 45.2936 23.7658 45.2146 23.8162 45.1451C23.8665 45.0803 23.9293 45.0264 24.0009 44.9864C24.0724 44.9465 24.1513 44.9214 24.2327 44.9126C24.381 44.8986 24.5292 44.9399 24.6489 45.0287C24.7686 45.1174 24.8514 45.2474 24.8813 45.3935ZM24.8813 45.3935C24.8656 45.3264 24.836 45.2633 24.7944 45.2085C24.7527 45.1536 24.7 45.1081 24.6397 45.075C24.5814 45.0432 24.5173 45.0234 24.4512 45.0168C24.3851 45.0103 24.3184 45.0171 24.255 45.0368C24.1834 45.061 24.1184 45.1015 24.0652 45.1552C24.012 45.2088 23.972 45.2742 23.9484 45.346C23.9247 45.4178 23.9181 45.4942 23.929 45.569C23.94 45.6439 23.9681 45.7152 24.0113 45.7772C24.0545 45.8393 24.1115 45.8904 24.1778 45.9265C24.2441 45.9627 24.318 45.9829 24.3934 45.9855C24.4689 45.9882 24.5439 45.9732 24.6126 45.9417C24.6813 45.9103 24.7417 45.8632 24.7891 45.8044C24.8326 45.7463 24.8634 45.6797 24.8793 45.6089C24.8952 45.538 24.8959 45.4646 24.8813 45.3935Z" fill="black"/>
<path opacity="0.1" d="M25.0213 49.4669C25.0509 49.6138 25.0249 49.7664 24.9486 49.8953C24.8722 50.0241 24.7509 50.12 24.608 50.1644C24.449 50.2086 24.2792 50.1892 24.1342 50.1102C24.0602 50.0669 23.9962 50.0083 23.9464 49.9383C23.8966 49.8684 23.8621 49.7887 23.8453 49.7044C23.8285 49.6202 23.8297 49.5333 23.8488 49.4495C23.8679 49.3658 23.9045 49.287 23.9562 49.2185C24.0265 49.127 24.1217 49.0577 24.2302 49.0189C24.3388 48.9801 24.4562 48.9734 24.5685 48.9996C24.6808 49.0258 24.7832 49.0837 24.8635 49.1666C24.9437 49.2495 24.9985 49.3537 25.0213 49.4669ZM25.0213 49.4669C25.0058 49.3997 24.9763 49.3366 24.9346 49.2817C24.893 49.2268 24.8402 49.1814 24.7797 49.1484C24.7212 49.1171 24.6569 49.0979 24.5909 49.0918C24.5248 49.0858 24.4582 49.0931 24.395 49.1134C24.3224 49.1365 24.2563 49.1765 24.2019 49.2299C24.1476 49.2833 24.1065 49.3488 24.082 49.4211C24.0575 49.4933 24.0503 49.5703 24.061 49.6458C24.0716 49.7214 24.0999 49.7934 24.1434 49.856C24.1869 49.9186 24.2444 49.9701 24.3114 50.0064C24.3784 50.0426 24.453 50.0626 24.5292 50.0647C24.6053 50.0669 24.6809 50.0511 24.7498 50.0186C24.8187 49.9861 24.879 49.9379 24.9259 49.8777C24.9711 49.8206 25.0032 49.7541 25.0196 49.683C25.0361 49.612 25.0367 49.5382 25.0213 49.4669Z" fill="black"/>
<path opacity="0.1" d="M25.1613 53.5403C25.1829 53.6532 25.1719 53.77 25.1293 53.8769C25.0868 53.9837 25.0146 54.0761 24.9212 54.1432C24.8279 54.2102 24.7174 54.249 24.6027 54.255C24.488 54.2611 24.374 54.2341 24.2742 54.1772C24.1865 54.1273 24.1128 54.0561 24.0598 53.9702C24.0069 53.8843 23.9763 53.7864 23.971 53.6855C23.9658 53.5847 23.9859 53.4841 24.0296 53.3931C24.0732 53.3021 24.1391 53.2236 24.221 53.1647C24.303 53.1059 24.3984 53.0686 24.4985 53.0564C24.5985 53.0442 24.7001 53.0574 24.7937 53.0948C24.8874 53.1322 24.9701 53.1926 25.0343 53.2705C25.0986 53.3483 25.1422 53.4411 25.1613 53.5403ZM25.1613 53.5403C25.1445 53.4736 25.1145 53.411 25.0729 53.3563C25.0314 53.3016 24.9793 53.2558 24.9196 53.2218C24.8613 53.1899 24.7972 53.1701 24.7311 53.1636C24.665 53.157 24.5983 53.1638 24.5349 53.1836C24.4228 53.2222 24.3287 53.3004 24.2701 53.4036C24.2116 53.5068 24.1927 53.6279 24.2169 53.7441C24.2349 53.8346 24.2784 53.9181 24.3422 53.9847C24.406 54.0514 24.4875 54.0983 24.577 54.1201C24.6666 54.1418 24.7605 54.1375 24.8477 54.1076C24.9348 54.0776 25.0117 54.0233 25.069 53.9511C25.1131 53.8934 25.1442 53.8267 25.1601 53.7558C25.176 53.6849 25.1764 53.6114 25.1613 53.5403Z" fill="black"/>
<path opacity="0.1" d="M25.3015 57.6106C25.3311 57.7575 25.3052 57.9101 25.2288 58.039C25.1525 58.1678 25.0311 58.2637 24.8882 58.3081C24.7293 58.3523 24.5594 58.3328 24.4145 58.2539C24.3406 58.2106 24.2767 58.1522 24.2269 58.0825C24.177 58.0128 24.1424 57.9334 24.1251 57.8495C24.105 57.7704 24.1011 57.6881 24.1137 57.6075C24.1262 57.5269 24.155 57.4497 24.1983 57.3805C24.2416 57.3114 24.2985 57.2518 24.3655 57.2054C24.4325 57.159 24.5082 57.1267 24.588 57.1105C24.6678 57.0943 24.7501 57.0945 24.8298 57.1111C24.9096 57.1278 24.9851 57.1605 25.0519 57.2072C25.1186 57.254 25.1751 57.3139 25.2181 57.3832C25.261 57.4526 25.2894 57.5299 25.3015 57.6106ZM25.3015 57.6106C25.2661 57.4767 25.1792 57.3622 25.0599 57.2921C25.0014 57.2608 24.9372 57.2415 24.8711 57.2355C24.805 57.2295 24.7384 57.2368 24.6752 57.2571C24.5508 57.2845 24.4422 57.3598 24.3725 57.4666C24.3029 57.5735 24.2779 57.7034 24.3029 57.8285C24.3279 57.9536 24.4009 58.0639 24.5061 58.1357C24.6114 58.2075 24.7406 58.2351 24.866 58.2125C24.9324 58.2073 24.997 58.1881 25.0556 58.1563C25.1142 58.1245 25.1655 58.0807 25.2062 58.0278C25.2517 57.9696 25.2839 57.902 25.3004 57.8299C25.3168 57.7577 25.3172 57.6829 25.3015 57.6106Z" fill="black"/>
<path opacity="0.1" d="M25.4381 61.6871C25.4676 61.8332 25.442 61.985 25.3663 62.1133C25.2905 62.2416 25.1699 62.3371 25.0279 62.3814C24.9496 62.4054 24.8672 62.4132 24.7858 62.4044C24.7044 62.3957 24.6256 62.3705 24.5542 62.3305C24.4813 62.286 24.4181 62.2272 24.3684 62.1577C24.3187 62.0882 24.2835 62.0094 24.2648 61.926C24.2476 61.8417 24.2484 61.7548 24.267 61.6708C24.2856 61.5868 24.3217 61.5078 24.3729 61.4387C24.4235 61.3742 24.4863 61.3204 24.5578 61.2805C24.6294 61.2406 24.7081 61.2154 24.7894 61.2062C24.938 61.1907 25.0869 61.2315 25.207 61.3205C25.327 61.4095 25.4095 61.5403 25.4381 61.6871ZM25.4381 61.6871C25.4226 61.6204 25.3933 61.5576 25.3523 61.5028C25.3112 61.4479 25.2592 61.4023 25.1996 61.3687C25.1413 61.3366 25.0771 61.317 25.0109 61.311C24.9447 61.3049 24.878 61.3127 24.8149 61.3336C24.6905 61.3611 24.5818 61.4363 24.5122 61.5432C24.4426 61.65 24.4176 61.7799 24.4426 61.905C24.4676 62.0301 24.5405 62.1404 24.6458 62.2122C24.7511 62.2841 24.8803 62.3116 25.0056 62.2891C25.1389 62.2748 25.2612 62.2084 25.3458 62.1044C25.3916 62.0463 25.4237 61.9786 25.4397 61.9063C25.4557 61.8341 25.4551 61.7591 25.4381 61.6871Z" fill="black"/>
<path d="M30.4548 57.6584C33.6788 58.0437 37.0554 56.2507 37.4496 52.1964C37.9075 47.5146 35.3289 45.091 31.7711 44.591C29.396 44.2725 25.6919 45.7184 25.145 50.1676C24.5123 55.3716 28.3309 57.4036 30.4548 57.6584Z" fill="#FBBA96"/>
<g opacity="0.1">
<path d="M30.4548 57.6584C33.6788 58.0437 37.0554 56.2507 37.4496 52.1964C37.9075 47.5146 35.3289 45.091 31.7711 44.591C29.396 44.2725 25.6919 45.7184 25.145 50.1676C24.5123 55.3716 28.3309 57.4036 30.4548 57.6584Z" fill="black"/>
</g>
<path d="M30.4997 57.0278C33.5107 57.3876 36.6583 55.7156 37.0303 51.932C37.4564 47.5656 35.0495 45.3012 31.7301 44.8362C29.5045 44.5177 26.058 45.8872 25.5492 50.0402C24.9483 54.8971 28.5157 56.7889 30.4997 57.0278Z" fill="#FBBA96"/>
<g opacity="0.1">
<path d="M31.0529 56.4162C34.8683 56.1168 36.404 52.5434 35.4215 49.1325C34.8365 46.7598 32.5918 45.505 30.2485 45.9668C27.9688 46.505 26.5667 48.7917 26.5571 51.0625C26.4077 53.8429 28.0674 56.4385 31.0529 56.413V56.4162ZM31.0529 56.4162C28.0738 56.4895 26.3282 53.8397 26.395 51.0657C26.306 48.3235 28.2804 45.5272 31.1992 45.5655C32.2302 45.5386 33.2381 45.8743 34.0477 46.5143C34.8574 47.1542 35.4177 48.0581 35.6314 49.0688C36.5312 52.5148 34.8874 56.1678 31.0529 56.4098V56.4162Z" fill="black"/>
</g>
<path d="M31.0562 56.2124C33.3931 56.0977 35.6569 54.2728 35.6092 51.0816C35.552 47.3967 33.5108 45.8521 30.929 45.9253C29.2026 45.9731 26.678 47.5814 26.6526 51.0975C26.6208 55.2123 29.5173 56.292 31.0562 56.2124Z" fill="#FBBA96"/>
<g opacity="0.2">
<path d="M31.0686 55.3971C33.0366 55.2983 34.9412 53.7632 34.8998 51.0816C34.8521 47.9796 33.1352 46.6802 30.9636 46.7407C29.5106 46.7821 27.3835 48.1356 27.3645 51.0943C27.339 54.5563 29.7745 55.4639 31.0686 55.3971Z" fill="white"/>
</g>
<path d="M25.7842 35.0204C25.8033 35.5587 26.2707 39.9983 26.7031 40.4347C27.1355 40.871 28.9287 41.6417 30.2832 41.8455C32.0796 42.1131 34.5246 41.4315 35.4753 40.7054C36.426 39.9792 37.0014 34.8262 36.7471 34.5905C36.4927 34.3548 33.5485 32.9248 31.4024 32.9248C28.8683 32.9407 25.7683 34.5331 25.7842 35.0204Z" fill="#37474F"/>
<path d="M26.5698 40.0303C27.2431 40.3724 27.9389 40.6682 28.6524 40.9157C29.3644 41.1828 30.1177 41.323 30.878 41.3297C31.6293 41.3057 32.3757 41.1989 33.1037 41.0112C33.8376 40.8324 34.5605 40.6113 35.2689 40.3488C34.5678 40.6333 33.8474 40.8674 33.1132 41.0494C32.379 41.2381 31.6261 41.3449 30.8685 41.3679C30.1069 41.353 29.3538 41.2053 28.6428 40.9316C27.928 40.6895 27.2346 40.388 26.5698 40.0303Z" fill="#263238"/>
<path d="M26.4683 39.4474C27.1703 39.8052 27.8959 40.1148 28.6398 40.3742C29.3782 40.6479 30.1578 40.7934 30.945 40.8041C31.7311 40.784 32.5127 40.6772 33.2755 40.4856C34.0405 40.2973 34.7942 40.0655 35.533 39.7914C34.8024 40.0898 34.0511 40.3346 33.2851 40.5239C32.52 40.7242 31.7352 40.8395 30.945 40.8678C30.1523 40.8503 29.3684 40.6974 28.6271 40.4156C27.8825 40.152 27.1605 39.8282 26.4683 39.4474Z" fill="#263238"/>
<path d="M26.3853 38.8965C27.1125 39.267 27.8647 39.5863 28.6363 39.8519C29.4 40.1358 30.2065 40.2866 31.0209 40.2978C31.8362 40.2754 32.6466 40.1632 33.4374 39.9634C34.2288 39.7676 35.009 39.5284 35.7743 39.2468C35.0169 39.5522 34.2392 39.8045 33.4469 40.0016C32.6538 40.2093 31.8402 40.3289 31.0209 40.3583C30.201 40.3404 29.3902 40.1821 28.6236 39.8902C27.852 39.6199 27.1034 39.2876 26.3853 38.8965Z" fill="#263238"/>
<path d="M26.459 38.3933C27.1865 38.7633 27.9386 39.0825 28.7101 39.3488C29.4737 39.6326 30.2802 39.7835 31.0947 39.7946C31.9093 39.7774 32.7197 39.6706 33.5111 39.4762C34.3031 39.2812 35.0834 39.0409 35.848 38.7564C35.0912 39.0643 34.3134 39.3176 33.5206 39.5144C32.7272 39.7207 31.9138 39.8403 31.0947 39.8711C30.2747 39.8532 29.4639 39.6949 28.6973 39.4029C27.9252 39.1276 27.1766 38.7899 26.459 38.3933Z" fill="#263238"/>
<path d="M26.3789 37.8009C27.1312 38.1848 27.9088 38.5168 28.7063 38.7946C29.497 39.0902 30.3328 39.2464 31.1767 39.2564C32.0201 39.2347 32.8584 39.1183 33.6758 38.9092C34.4973 38.7098 35.3063 38.462 36.0986 38.1672C35.3134 38.4845 34.5071 38.7463 33.6854 38.9506C32.8652 39.1651 32.0239 39.2879 31.1767 39.3169C30.3272 39.3018 29.4868 39.1379 28.6936 38.8328C27.8955 38.5519 27.1214 38.2068 26.3789 37.8009Z" fill="#263238"/>
<path d="M26.2451 37.1638C27.0176 37.5594 27.8165 37.901 28.6361 38.1862C29.45 38.4913 30.3107 38.6519 31.1797 38.6607C32.0467 38.639 32.9085 38.5193 33.7487 38.304C34.5912 38.0977 35.4214 37.8436 36.2351 37.5428C35.429 37.8675 34.6014 38.1356 33.7582 38.3454C32.9153 38.5661 32.0505 38.6922 31.1797 38.7212C30.3095 38.7042 29.4489 38.5361 28.6361 38.2244C27.8114 37.9372 27.0117 37.5825 26.2451 37.1638Z" fill="#263238"/>
<path d="M26.1406 36.562C26.9433 36.9727 27.7729 37.3281 28.6238 37.6257C29.4676 37.9403 30.3593 38.1063 31.2596 38.1162C32.1598 38.0936 33.0546 37.9697 33.9272 37.7468C34.802 37.5352 35.6631 37.2703 36.5057 36.9537C35.6702 37.2923 34.8117 37.5712 33.9367 37.7882C33.0613 38.016 32.1635 38.1463 31.2596 38.1767C30.3535 38.1606 29.4572 37.986 28.6111 37.6608C27.7587 37.3636 26.9324 36.9961 26.1406 36.562Z" fill="#263238"/>
<path d="M26.0005 35.976C26.8216 36.3997 27.6716 36.7648 28.5441 37.0684C29.4106 37.3943 30.3274 37.5657 31.253 37.5747C32.1767 37.5503 33.0948 37.4232 33.9905 37.1957C34.8892 36.9748 35.7745 36.7026 36.6422 36.3804C35.7827 36.7269 34.8997 37.0121 34.0001 37.234C33.1023 37.4707 32.1808 37.6053 31.253 37.6353C30.3221 37.6183 29.4011 37.4394 28.5314 37.1066C27.6583 36.7997 26.8118 36.4216 26.0005 35.976Z" fill="#263238"/>
<path d="M52.9277 35.839C52.9277 35.7721 54.2917 35.5205 55.5858 35.3199C56.2642 35.207 56.8899 34.8828 57.3739 34.3934C57.8579 33.904 58.1757 33.2742 58.282 32.5936L60.0371 21.2747C60.1497 20.5427 60.011 19.7941 59.6437 19.1513C59.2764 18.5085 58.7021 18.0097 58.0149 17.7363L54.4157 16.2841L52.9277 35.839Z" fill="#FBBA96"/>
<g opacity="0.2">
<path d="M52.9277 35.839C52.9277 35.7721 54.2917 35.5205 55.5858 35.3199C56.2642 35.207 56.8899 34.8828 57.3739 34.3934C57.8579 33.904 58.1757 33.2742 58.282 32.5936L60.0371 21.2747C60.1497 20.5427 60.011 19.7941 59.6437 19.1513C59.2764 18.5085 58.7021 18.0097 58.0149 17.7363L54.4157 16.2841L52.9277 35.839Z" fill="black"/>
</g>
<path d="M10.1827 35.4568C10.1827 35.3899 8.8123 35.1988 7.50871 35.03C6.82629 34.941 6.18936 34.6384 5.68867 34.1655C5.18798 33.6925 4.8491 33.0733 4.72031 32.3962L2.57734 21.1441C2.43976 20.4183 2.55154 19.6672 2.89447 19.0132C3.23741 18.3591 3.79129 17.8406 4.46594 17.5421L8.01425 15.9656L10.1827 35.4568Z" fill="#FBBA96"/>
<g opacity="0.2">
<path d="M10.1827 35.4568C10.1827 35.3899 8.8123 35.1988 7.50871 35.03C6.82629 34.941 6.18936 34.6384 5.68867 34.1655C5.18798 33.6925 4.8491 33.0733 4.72031 32.3962L2.57734 21.1441C2.43976 20.4183 2.55154 19.6672 2.89447 19.0132C3.23741 18.3591 3.79129 17.8406 4.46594 17.5421L8.01425 15.9656L10.1827 35.4568Z" fill="black"/>
</g>
<path d="M53.0234 38.6194C53.0234 38.6194 55.6274 24.329 56.0089 1.94911C56.0089 1.94911 29.0533 -2.26125 7.04492 1.69432C7.04492 1.69432 8.03374 30.0012 9.87466 37.9283C9.88102 37.9283 32.379 39.1098 53.0234 38.6194Z" fill="#FBBA96"/>
<path opacity="0.1" d="M30.2325 0.019043C30.2325 3.21662 30.2463 6.41421 30.2738 9.61179L30.3724 19.2013L30.4805 19.0835L19.6258 19.8765L14.1984 20.2842L8.771 20.7301L14.2047 20.4116L19.6385 20.0613L30.4964 19.3287H30.6077V19.2205L30.4487 9.62771C30.3851 6.41739 30.313 3.2145 30.2325 0.019043Z" fill="black"/>
<path opacity="0.1" d="M31.7398 1.46185C31.8256 1.46732 31.9093 1.49081 31.9855 1.53079C32.0617 1.57077 32.1287 1.62635 32.182 1.69391C32.2354 1.76148 32.274 1.83953 32.2953 1.92301C32.3166 2.00648 32.3201 2.0935 32.3057 2.17843C32.291 2.26505 32.2585 2.34769 32.2104 2.42113C32.1622 2.49458 32.0994 2.55725 32.0259 2.60521C31.9542 2.64874 31.8745 2.67763 31.7916 2.6902C31.7086 2.70277 31.624 2.69878 31.5426 2.67846C31.3976 2.63589 31.2731 2.54171 31.1925 2.41364C31.1119 2.28557 31.0808 2.13242 31.105 1.98298C31.1292 1.83354 31.2071 1.69811 31.324 1.60214C31.4409 1.50617 31.5887 1.45628 31.7398 1.46185ZM31.2056 2.38545C31.2501 2.43719 31.3046 2.47938 31.3658 2.50949C31.427 2.53959 31.4936 2.55698 31.5617 2.56062C31.6843 2.56663 31.8048 2.52719 31.9002 2.44985C31.9956 2.3725 32.0592 2.26266 32.0788 2.14132C32.0985 2.01997 32.0729 1.89562 32.0068 1.79202C31.9407 1.68842 31.8389 1.61283 31.7207 1.57969C31.6549 1.56124 31.5861 1.55624 31.5184 1.56499C31.4506 1.57375 31.3854 1.59607 31.3264 1.63064C31.2659 1.67003 31.214 1.72145 31.1741 1.78171C31.1342 1.84196 31.107 1.90978 31.0943 1.98098C31.0834 2.05244 31.0876 2.12543 31.1068 2.19514C31.126 2.26485 31.1596 2.3297 31.2056 2.38545Z" fill="black"/>
<path opacity="0.1" d="M31.6665 5.4015C31.7501 5.40662 31.8317 5.42908 31.9061 5.46746C31.9805 5.50584 32.0462 5.5593 32.0989 5.62444C32.1546 5.69203 32.1954 5.77072 32.2184 5.85528C32.2414 5.93984 32.2462 6.02834 32.2325 6.11491C32.2193 6.2 32.1884 6.28137 32.1418 6.35374C32.0952 6.42612 32.034 6.48788 31.962 6.53502C31.8901 6.58216 31.809 6.61364 31.7242 6.6274C31.6393 6.64117 31.5525 6.63692 31.4694 6.61493C31.3218 6.5752 31.1942 6.48202 31.1114 6.35345C31.0285 6.22488 30.9961 6.07008 31.0207 5.91901C31.0452 5.76795 31.1249 5.63139 31.2442 5.53578C31.3635 5.44017 31.514 5.39232 31.6665 5.4015ZM31.1292 6.32511C31.1798 6.38418 31.2435 6.4306 31.3152 6.46067C31.3869 6.49074 31.4646 6.50363 31.5421 6.4983C31.6197 6.49297 31.6949 6.46958 31.7618 6.42999C31.8287 6.3904 31.8855 6.33571 31.9276 6.27026C31.9697 6.20481 31.9959 6.13043 32.0043 6.05302C32.0126 5.97562 32.0028 5.89733 31.9756 5.8244C31.9484 5.75148 31.9045 5.68592 31.8476 5.63296C31.7906 5.58 31.7221 5.54109 31.6474 5.51934C31.5442 5.48924 31.434 5.49336 31.3332 5.53107C31.2325 5.56879 31.1466 5.63808 31.0883 5.72864C31.0301 5.8192 31.0026 5.92619 31.01 6.03366C31.0173 6.14114 31.0591 6.24336 31.1292 6.32511Z" fill="black"/>
<path opacity="0.1" d="M31.6826 9.57677C31.7663 9.58328 31.8479 9.60634 31.9227 9.6446C31.9974 9.68287 32.0639 9.73558 32.1182 9.7997C32.1728 9.86853 32.2125 9.94792 32.2349 10.0329C32.2574 10.1178 32.262 10.2065 32.2486 10.2934C32.2338 10.38 32.2014 10.4626 32.1532 10.536C32.1051 10.6095 32.0423 10.6722 31.9688 10.7201C31.8862 10.7709 31.7929 10.8014 31.6964 10.8093C31.5998 10.8173 31.5028 10.8023 31.4131 10.7656C31.3234 10.729 31.2436 10.6717 31.1802 10.5984C31.1167 10.5251 31.0714 10.4379 31.0478 10.3438C31.0243 10.2497 31.0232 10.1513 31.0446 10.0567C31.0661 9.96212 31.1094 9.8739 31.1713 9.79921C31.2331 9.72452 31.3116 9.66546 31.4004 9.62681C31.4893 9.58817 31.5859 9.57102 31.6826 9.57677ZM31.1453 10.5004C31.1906 10.5519 31.2457 10.594 31.3074 10.624C31.3691 10.6541 31.4361 10.6716 31.5046 10.6755C31.6272 10.6815 31.7476 10.6421 31.843 10.5648C31.9384 10.4874 32.002 10.3776 32.0217 10.2562C32.0414 10.1349 32.0157 10.0105 31.9497 9.90694C31.8836 9.80334 31.7817 9.72774 31.6635 9.6946C31.5976 9.67663 31.5287 9.67216 31.4609 9.68146C31.3932 9.69076 31.328 9.71365 31.2693 9.74875C31.2076 9.78609 31.1549 9.83653 31.1148 9.89651C31.0747 9.95649 31.0482 10.0245 31.0372 10.0959C31.0256 10.1671 31.0292 10.24 31.0478 10.3098C31.0665 10.3795 31.0997 10.4445 31.1453 10.5004Z" fill="black"/>
<path opacity="0.1" d="M31.6983 13.7553C31.7844 13.7604 31.8684 13.7837 31.945 13.8234C32.0216 13.8632 32.089 13.9186 32.1429 13.986C32.1968 14.0535 32.236 14.1316 32.2579 14.2151C32.2798 14.2987 32.2839 14.386 32.2701 14.4713C32.2562 14.5565 32.2247 14.638 32.1774 14.7103C32.1302 14.7826 32.0684 14.8442 31.9959 14.891C31.9234 14.9379 31.842 14.969 31.7567 14.9824C31.6715 14.9958 31.5844 14.9911 31.5011 14.9687C31.3536 14.929 31.226 14.8358 31.1431 14.7072C31.0602 14.5786 31.0279 14.4238 31.0524 14.2728C31.077 14.1217 31.1566 13.9851 31.2759 13.8895C31.3953 13.7939 31.5457 13.7461 31.6983 13.7553ZM31.1641 14.6789C31.2086 14.7306 31.2631 14.7728 31.3243 14.8029C31.3855 14.833 31.4521 14.8504 31.5202 14.854C31.6428 14.86 31.7633 14.8206 31.8587 14.7433C31.9541 14.6659 32.0177 14.5561 32.0373 14.4347C32.057 14.3134 32.0314 14.189 31.9653 14.0854C31.8992 13.9818 31.7974 13.9062 31.6792 13.8731C31.6134 13.8547 31.5446 13.8497 31.4769 13.8584C31.4091 13.8672 31.3439 13.8895 31.2849 13.9241C31.224 13.963 31.1719 14.0143 31.1319 14.0746C31.0919 14.135 31.065 14.203 31.0528 14.2744C31.0419 14.3459 31.0461 14.4188 31.0653 14.4886C31.0845 14.5583 31.1181 14.6231 31.1641 14.6789Z" fill="black"/>
<path opacity="0.1" d="M28.3501 19.8703C28.4362 19.8754 28.5203 19.8987 28.5969 19.9384C28.6735 19.9782 28.7409 20.0336 28.7948 20.101C28.8486 20.1685 28.8878 20.2466 28.9097 20.3301C28.9316 20.4137 28.9358 20.501 28.9219 20.5862C28.9081 20.6715 28.8765 20.753 28.8293 20.8253C28.782 20.8976 28.7202 20.9591 28.6477 21.006C28.5753 21.0529 28.4938 21.084 28.4086 21.0974C28.3234 21.1108 28.2363 21.1061 28.153 21.0837C28.0054 21.0439 27.8778 20.9508 27.7949 20.8222C27.712 20.6936 27.6797 20.5388 27.7043 20.3878C27.7288 20.2367 27.8085 20.1001 27.9278 20.0045C28.0471 19.9089 28.1976 19.8611 28.3501 19.8703ZM27.8096 20.7939C27.8605 20.8511 27.924 20.8958 27.9951 20.9243C28.0661 20.9529 28.1428 20.9646 28.2191 20.9586C28.2954 20.9525 28.3693 20.9288 28.435 20.8894C28.5006 20.8499 28.5563 20.7958 28.5976 20.7312C28.6389 20.6666 28.6647 20.5933 28.6729 20.5171C28.6812 20.4409 28.6718 20.3637 28.6454 20.2918C28.6189 20.2198 28.5762 20.1549 28.5206 20.1022C28.465 20.0495 28.3979 20.0105 28.3247 19.9881C28.2589 19.9696 28.1901 19.9646 28.1224 19.9734C28.0546 19.9822 27.9894 20.0045 27.9304 20.0391C27.869 20.0773 27.8165 20.1284 27.7764 20.1887C27.7364 20.2491 27.7097 20.3173 27.6983 20.3889C27.6868 20.4604 27.6908 20.5336 27.71 20.6035C27.7292 20.6733 27.7632 20.7383 27.8096 20.7939Z" fill="black"/>
<path opacity="0.1" d="M24.3662 20.1823C24.4911 20.1878 24.6115 20.2312 24.7112 20.3067C24.811 20.3822 24.8854 20.4863 24.9248 20.6052C24.9641 20.7241 24.9665 20.8522 24.9315 20.9724C24.8965 21.0927 24.8259 21.1994 24.729 21.2786C24.6321 21.3577 24.5134 21.4054 24.3888 21.4155C24.2641 21.4255 24.1394 21.3974 24.0311 21.3348C23.9228 21.2722 23.836 21.1781 23.7823 21.065C23.7286 20.9519 23.7105 20.8251 23.7303 20.7015C23.7581 20.5537 23.8371 20.4205 23.9535 20.3255C24.0699 20.2305 24.2161 20.1798 24.3662 20.1823ZM23.8289 21.106C23.874 21.1578 23.929 21.2 23.9908 21.2301C24.0525 21.2602 24.1196 21.2775 24.1882 21.2811C24.3107 21.2871 24.4312 21.2477 24.5266 21.1703C24.622 21.093 24.6856 20.9832 24.7053 20.8618C24.725 20.7405 24.6993 20.6161 24.6332 20.5125C24.5672 20.4089 24.4653 20.3333 24.3471 20.3002C24.2439 20.2701 24.1337 20.2742 24.0329 20.3119C23.9322 20.3496 23.8463 20.4189 23.788 20.5095C23.7298 20.6 23.7023 20.707 23.7097 20.8145C23.717 20.922 23.7588 21.0242 23.8289 21.106Z" fill="black"/>
<path opacity="0.1" d="M20.3796 20.4976C20.4635 20.5031 20.5455 20.5256 20.6204 20.564C20.6953 20.6023 20.7616 20.6556 20.8152 20.7206C20.8703 20.7891 20.9106 20.8684 20.9336 20.9534C20.9566 21.0383 20.9617 21.1271 20.9487 21.2142C20.9351 21.2994 20.9039 21.3808 20.8569 21.4532C20.81 21.5256 20.7485 21.5873 20.6763 21.6345C20.6041 21.6816 20.5229 21.713 20.4378 21.7267C20.3528 21.7405 20.2658 21.7362 20.1825 21.7142C20.0374 21.6717 19.9129 21.5775 19.8323 21.4494C19.7517 21.3213 19.7206 21.1682 19.7448 21.0187C19.769 20.8693 19.8469 20.7339 19.9638 20.6379C20.0807 20.5419 20.2285 20.492 20.3796 20.4976ZM19.8454 21.4212C19.896 21.4806 19.9598 21.5274 20.0317 21.5577C20.1036 21.588 20.1815 21.601 20.2593 21.5956C20.3371 21.5903 20.4126 21.5668 20.4797 21.527C20.5467 21.4872 20.6036 21.4322 20.6456 21.3664C20.6877 21.3006 20.7138 21.2259 20.7218 21.1482C20.7298 21.0705 20.7195 20.992 20.6918 20.919C20.6641 20.846 20.6197 20.7805 20.5622 20.7278C20.5046 20.6751 20.4356 20.6366 20.3605 20.6154C20.2575 20.5864 20.1478 20.5913 20.0478 20.6294C19.9478 20.6675 19.8626 20.7368 19.8049 20.8271C19.7472 20.9174 19.7199 21.0239 19.7272 21.1309C19.7345 21.2379 19.776 21.3396 19.8454 21.4212Z" fill="black"/>
<path opacity="0.1" d="M16.3954 20.8129C16.4815 20.8181 16.5655 20.8413 16.6421 20.881C16.7187 20.9208 16.7861 20.9762 16.84 21.0437C16.8939 21.1111 16.9331 21.1892 16.955 21.2728C16.9769 21.3563 16.981 21.4436 16.9672 21.5289C16.9533 21.6141 16.9217 21.6956 16.8745 21.7679C16.8273 21.8402 16.7655 21.9018 16.693 21.9487C16.6205 21.9955 16.5391 22.0267 16.4538 22.04C16.3686 22.0534 16.2815 22.0487 16.1982 22.0263C16.0507 21.9866 15.9231 21.8934 15.8402 21.7648C15.7573 21.6363 15.725 21.4815 15.7495 21.3304C15.7741 21.1793 15.8537 21.0428 15.973 20.9472C16.0923 20.8515 16.2428 20.8037 16.3954 20.8129ZM15.8612 21.7365C15.9057 21.7882 15.9602 21.8304 16.0214 21.8605C16.0826 21.8906 16.1492 21.908 16.2173 21.9117C16.3484 21.9311 16.4819 21.8975 16.5883 21.8184C16.6948 21.7393 16.7655 21.621 16.7848 21.4897C16.8042 21.3583 16.7708 21.2246 16.6917 21.118C16.6127 21.0114 16.4947 20.9406 16.3636 20.9212C16.2978 20.9027 16.229 20.8977 16.1613 20.9065C16.0935 20.9152 16.0282 20.9376 15.9693 20.9721C15.9084 21.0111 15.8562 21.0624 15.8163 21.1227C15.7763 21.183 15.7494 21.2511 15.7372 21.3225C15.7265 21.3963 15.7321 21.4717 15.7535 21.5432C15.7749 21.6147 15.8117 21.6807 15.8612 21.7365Z" fill="black"/>
<path opacity="0.1" d="M12.3634 21.1218C12.4473 21.1218 12.5304 21.1383 12.6079 21.1706C12.6854 21.2028 12.7557 21.2501 12.8149 21.3097C12.8731 21.3745 12.9175 21.4507 12.9452 21.5333C12.9728 21.616 12.9833 21.7035 12.9758 21.7904C12.9684 21.8773 12.9432 21.9617 12.9019 22.0384C12.8605 22.1152 12.8038 22.1826 12.7354 22.2365C12.6571 22.2945 12.5663 22.333 12.4703 22.3491C12.3743 22.3651 12.2759 22.3582 12.1831 22.3288C12.0902 22.2995 12.0057 22.2486 11.9363 22.1802C11.8669 22.1118 11.8146 22.028 11.7838 21.9355C11.7529 21.8431 11.7443 21.7446 11.7587 21.6482C11.7732 21.5518 11.8101 21.4602 11.8667 21.3808C11.9232 21.3014 11.9977 21.2366 12.084 21.1916C12.1703 21.1466 12.2661 21.1227 12.3634 21.1218ZM11.8992 22.0773C11.9991 22.1734 12.1328 22.226 12.2712 22.2238C12.3675 22.221 12.4609 22.1903 12.5402 22.1355C12.6195 22.0807 12.6813 22.0041 12.7181 21.9149C12.7549 21.8257 12.7651 21.7278 12.7476 21.6329C12.73 21.538 12.6854 21.4502 12.6192 21.3801C12.553 21.3101 12.4679 21.2607 12.3742 21.238C12.2806 21.2153 12.1824 21.2202 12.0915 21.2521C12.0006 21.2841 11.9208 21.3417 11.8619 21.4181C11.803 21.4944 11.7673 21.5862 11.7593 21.6824C11.7545 21.7563 11.7656 21.8304 11.792 21.8997C11.8183 21.9689 11.8592 22.0317 11.9119 22.0836L11.8992 22.0773Z" fill="black"/>
<path opacity="0.1" d="M31.7144 17.9306C31.7981 17.9372 31.8796 17.9602 31.9544 17.9985C32.0292 18.0367 32.0956 18.0895 32.1499 18.1536C32.2059 18.2217 32.2467 18.3011 32.2696 18.3863C32.2925 18.4714 32.2971 18.5605 32.2829 18.6476C32.2688 18.7347 32.2363 18.8178 32.1876 18.8913C32.1389 18.9648 32.0751 19.0271 32.0005 19.074C31.918 19.1248 31.8247 19.1553 31.7281 19.1632C31.6316 19.1711 31.5345 19.1562 31.4449 19.1195C31.3552 19.0829 31.2754 19.0256 31.2119 18.9523C31.1484 18.879 31.1031 18.7918 31.0795 18.6977C31.056 18.6036 31.0549 18.5052 31.0763 18.4106C31.0978 18.316 31.1412 18.2278 31.203 18.1531C31.2648 18.0784 31.3433 18.0193 31.4322 17.9807C31.521 17.9421 31.6177 17.9249 31.7144 17.9306ZM31.1802 18.8543C31.2417 18.9267 31.3227 18.98 31.4136 19.0077C31.5045 19.0355 31.6014 19.0365 31.6928 19.0107C31.7842 18.9848 31.8663 18.9332 31.9293 18.8621C31.9923 18.7909 32.0336 18.703 32.0482 18.609C32.0625 18.5155 32.0501 18.4198 32.0122 18.333C31.9744 18.2463 31.9128 18.1721 31.8345 18.1191C31.7563 18.066 31.6646 18.0363 31.5702 18.0334C31.4757 18.0305 31.3824 18.0545 31.301 18.1026C31.2397 18.1406 31.1872 18.1913 31.1472 18.2514C31.1071 18.3115 31.0805 18.3795 31.069 18.4508C31.0576 18.5221 31.0616 18.595 31.0808 18.6646C31.0999 18.7343 31.1339 18.7989 31.1802 18.8543Z" fill="black"/>
<path d="M50.1045 36.2307C50.1045 36.2307 52.3461 24.5041 52.6767 5.118C52.6767 5.118 25.7624 1.68156 10.2656 4.89825C10.2656 4.89825 11.1336 28.7623 12.7297 35.6288C12.7297 35.6288 32.2199 36.6543 50.1045 36.2307Z" fill="#37474F"/>
<path d="M10.2939 5.66258C10.4593 9.80288 11.305 29.4947 12.7294 35.6287C12.7294 35.6287 31.4693 36.6161 49.0582 36.2657C49.4047 34.3039 51.2298 23.262 51.5064 6.07661C51.5064 6.06387 25.689 2.76756 10.2939 5.66258Z" fill="#263238"/>
<path d="M33.1389 4.60531L23.2666 4.50021C23.7721 4.50021 24.2777 4.4811 24.7832 4.47792C27.0089 4.45244 29.2345 4.47792 31.3838 4.54799C31.972 4.56391 32.5602 4.58621 33.1389 4.60531Z" fill="#455A64"/>
<path d="M45.1025 5.39198L14.3506 5.0735L14.6685 5.03847L15.0119 5.00024L44.101 5.31873H44.1201L44.6288 5.36332L45.1025 5.39198Z" fill="#455A64"/>
<path d="M51.5064 6.06396V6.1181L10.2939 5.67222L10.4402 5.64674C10.5133 5.64674 10.5833 5.61808 10.6564 5.60852L51.2775 6.04484L51.5064 6.06396Z" fill="#455A64"/>
<path d="M51.4968 6.69452C51.4935 6.70813 51.4935 6.72232 51.4968 6.73593C51.4952 6.74862 51.4952 6.76145 51.4968 6.77414L10.3225 6.33145C10.3209 6.31876 10.3209 6.30593 10.3225 6.29324V6.25183L51.4968 6.69452Z" fill="#455A64"/>
<path d="M51.4811 7.35065V7.43027L10.3481 6.98758V6.94936C10.3481 6.94936 10.3481 6.9207 10.3481 6.90796L51.4811 7.35065Z" fill="#455A64"/>
<path d="M51.4683 8.00666V8.04488C51.4668 8.05864 51.4668 8.07252 51.4683 8.08628L10.383 7.64359C10.3814 7.63089 10.3814 7.61806 10.383 7.60537C10.3816 7.59161 10.3816 7.57773 10.383 7.56396L51.4683 8.00666Z" fill="#455A64"/>
<path d="M51.4526 8.66279V8.70101C51.4511 8.71477 51.4511 8.72864 51.4526 8.74241L10.4118 8.29971C10.4103 8.28702 10.4103 8.27419 10.4118 8.2615C10.4102 8.24774 10.4102 8.23385 10.4118 8.22009L51.4526 8.66279Z" fill="#455A64"/>
<path d="M51.4335 9.3189V9.35712C51.4352 9.37087 51.4352 9.38478 51.4335 9.39853L10.4404 8.95902C10.4404 8.94309 10.4404 8.93035 10.4404 8.91761V8.87939L51.4335 9.3189Z" fill="#455A64"/>
<path d="M51.4143 9.97491V10.0131C51.4128 10.0269 51.4128 10.0408 51.4143 10.0545L10.469 9.61502C10.4674 9.60127 10.4674 9.58737 10.469 9.57362C10.469 9.57362 10.469 9.54814 10.469 9.5354L51.4143 9.97491Z" fill="#455A64"/>
<path d="M51.3923 10.6309V10.6691C51.3938 10.6829 51.3938 10.6968 51.3923 10.7105L10.5041 10.271C10.5025 10.2573 10.5025 10.2434 10.5041 10.2296C10.5025 10.2169 10.5025 10.2041 10.5041 10.1914L51.3923 10.6309Z" fill="#455A64"/>
<path d="M51.3699 11.287V11.3284C51.3699 11.3284 51.3699 11.3539 51.3699 11.3667L10.5359 10.9272C10.5343 10.9145 10.5343 10.9016 10.5359 10.8889C10.5343 10.8752 10.5343 10.8613 10.5359 10.8475L51.3699 11.287Z" fill="#455A64"/>
<path d="M51.3381 11.9432V11.9846C51.3397 11.9973 51.3397 12.0101 51.3381 12.0228L10.5581 11.5865V11.5451C10.5581 11.5451 10.5581 11.5196 10.5581 11.5068L51.3381 11.9432Z" fill="#455A64"/>
<path d="M51.3187 12.5992V12.6406C51.3187 12.6406 51.3187 12.666 51.3187 12.6788L10.5991 12.2425C10.5991 12.2425 10.5991 12.2138 10.5991 12.2011C10.6007 12.1884 10.6007 12.1755 10.5991 12.1628L51.3187 12.5992Z" fill="#455A64"/>
<path d="M51.2932 13.2553C51.2917 13.2691 51.2917 13.2829 51.2932 13.2967V13.3349L10.6403 12.8986C10.6388 12.8848 10.6388 12.8709 10.6403 12.8572C10.6403 12.8572 10.6403 12.8317 10.6403 12.819L51.2932 13.2553Z" fill="#455A64"/>
<path d="M51.2618 13.9146V13.956C51.2602 13.9687 51.2602 13.9815 51.2618 13.9942L10.6661 13.5579V13.5197C10.6647 13.5059 10.6647 13.492 10.6661 13.4783L51.2618 13.9146Z" fill="#455A64"/>
<path d="M51.2332 14.5674C51.2316 14.5812 51.2316 14.5951 51.2332 14.6088C51.2316 14.6215 51.2316 14.6344 51.2332 14.6471L10.7012 14.2107V14.1725C10.7012 14.1725 10.7012 14.1438 10.7012 14.1311L51.2332 14.5674Z" fill="#455A64"/>
<path d="M51.1981 15.2235V15.2649C51.1966 15.2776 51.1966 15.2905 51.1981 15.3032L10.7361 14.87C10.7345 14.8573 10.7345 14.8445 10.7361 14.8318C10.7345 14.8181 10.7345 14.8042 10.7361 14.7904L51.1981 15.2235Z" fill="#455A64"/>
<path d="M51.1633 15.8829C51.1649 15.8955 51.1649 15.9084 51.1633 15.9211V15.9625L10.7839 15.5262V15.4847C10.7823 15.4721 10.7823 15.4592 10.7839 15.4465L51.1633 15.8829Z" fill="#455A64"/>
<path d="M51.1283 16.5389C51.1268 16.5516 51.1268 16.5644 51.1283 16.5771V16.6153L10.8125 16.1822C10.8141 16.1695 10.8141 16.1566 10.8125 16.1439V16.1025L51.1283 16.5389Z" fill="#455A64"/>
<path d="M51.0901 17.1917C51.0901 17.1917 51.0901 17.2203 51.0901 17.2331V17.2713L10.8537 16.8382C10.8522 16.8255 10.8522 16.8126 10.8537 16.7999C10.8521 16.7862 10.8521 16.7723 10.8537 16.7585L51.0901 17.1917Z" fill="#455A64"/>
<path d="M51.0482 17.8478C51.0498 17.8605 51.0498 17.8733 51.0482 17.886V17.9274L10.8882 17.4975V17.4561C10.8882 17.4561 10.8882 17.4306 10.8882 17.4178L51.0482 17.8478Z" fill="#455A64"/>
<path d="M51.02 18.5039C51.0215 18.5166 51.0215 18.5295 51.02 18.5421C51.0215 18.5559 51.0215 18.5698 51.02 18.5836L10.9585 18.1536C10.9602 18.1398 10.9602 18.1259 10.9585 18.1122C10.9601 18.0995 10.9601 18.0867 10.9585 18.074L51.02 18.5039Z" fill="#455A64"/>
<path d="M50.963 19.1599V19.1982C50.9614 19.2119 50.9614 19.2258 50.963 19.2396L10.9587 18.8096C10.9571 18.7958 10.9571 18.782 10.9587 18.7682C10.9572 18.7555 10.9572 18.7427 10.9587 18.73L50.963 19.1599Z" fill="#455A64"/>
<path d="M50.9181 19.8161C50.9181 19.8161 50.9181 19.8447 50.9181 19.8575C50.9197 19.8702 50.9197 19.883 50.9181 19.8957L11.0156 19.4657C11.0171 19.452 11.0171 19.4381 11.0156 19.4243V19.3861L50.9181 19.8161Z" fill="#455A64"/>
<path d="M50.8706 20.4722C50.8721 20.4859 50.8721 20.4998 50.8706 20.5136C50.8721 20.5263 50.8721 20.5391 50.8706 20.5518L11.0539 20.1219C11.0523 20.1092 11.0523 20.0963 11.0539 20.0836C11.0539 20.0836 11.0539 20.055 11.0539 20.0422L50.8706 20.4722Z" fill="#455A64"/>
<path d="M50.8201 21.1282V21.1696C50.8186 21.1823 50.8186 21.1951 50.8201 21.2078L11.1021 20.781C11.1021 20.781 11.1021 20.7524 11.1021 20.7396C11.1021 20.7269 11.1021 20.7142 11.1021 20.7014L50.8201 21.1282Z" fill="#455A64"/>
<path d="M50.7684 21.7843C50.77 21.797 50.77 21.8098 50.7684 21.8225C50.77 21.8363 50.77 21.8502 50.7684 21.8639L11.1489 21.4372C11.1504 21.4234 11.1504 21.4095 11.1489 21.3958V21.3575L50.7684 21.7843Z" fill="#455A64"/>
<path d="M50.7177 22.4373C50.7177 22.4373 50.7177 22.4659 50.7177 22.4787C50.7177 22.4914 50.7177 22.5041 50.7177 22.5169L11.1968 22.0933C11.1968 22.0933 11.1968 22.0678 11.1968 22.0551C11.1968 22.0423 11.1968 22.0296 11.1968 22.0137L50.7177 22.4373Z" fill="#455A64"/>
<path d="M50.6639 23.0933C50.6639 23.0933 50.6639 23.1219 50.6639 23.1347C50.6623 23.1474 50.6623 23.1602 50.6639 23.1729L11.2383 22.7493C11.2383 22.7493 11.2383 22.7238 11.2383 22.7111C11.2399 22.6973 11.2399 22.6834 11.2383 22.6697L50.6639 23.0933Z" fill="#455A64"/>
<path d="M50.6066 23.7494C50.6079 23.7632 50.6079 23.777 50.6066 23.7908C50.6097 23.8033 50.6097 23.8165 50.6066 23.829L11.2764 23.4054C11.2779 23.3927 11.2779 23.3799 11.2764 23.3672C11.2779 23.3534 11.2779 23.3396 11.2764 23.3258L50.6066 23.7494Z" fill="#455A64"/>
<path d="M50.5463 24.4246C50.5478 24.4373 50.5478 24.4501 50.5463 24.4628C50.5463 24.4628 50.5463 24.4914 50.5463 24.5042L11.3433 24.0806C11.3448 24.0679 11.3448 24.0551 11.3433 24.0424C11.3447 24.0286 11.3447 24.0147 11.3433 24.001L50.5463 24.4246Z" fill="#455A64"/>
<path d="M50.486 25.0615C50.486 25.0615 50.486 25.087 50.486 25.0997C50.486 25.1125 50.486 25.1284 50.486 25.1411L11.3975 24.7176C11.3975 24.7176 11.3975 24.6921 11.3975 24.6793C11.3975 24.6666 11.3975 24.6507 11.3975 24.6379L50.486 25.0615Z" fill="#455A64"/>
<path d="M50.4221 25.7175C50.4238 25.7313 50.4238 25.7452 50.4221 25.7589C50.4221 25.7589 50.4221 25.7844 50.4221 25.7971L11.4448 25.3799C11.4448 25.3799 11.4448 25.3544 11.4448 25.3417C11.4448 25.329 11.4448 25.3162 11.4448 25.3003L50.4221 25.7175Z" fill="#455A64"/>
<path d="M50.3586 26.3736C50.3586 26.3736 50.3586 26.3991 50.3586 26.4119C50.3569 26.4256 50.3569 26.4395 50.3586 26.4533L11.5085 26.036C11.5069 26.0223 11.5069 26.0084 11.5085 25.9946C11.5069 25.9819 11.5069 25.9691 11.5085 25.9564L50.3586 26.3736Z" fill="#455A64"/>
<path d="M50.292 27.0298C50.292 27.0298 50.292 27.0552 50.292 27.068C50.292 27.0807 50.292 27.0966 50.292 27.1094L11.5659 26.6922C11.5675 26.6784 11.5675 26.6645 11.5659 26.6508C11.5675 26.6381 11.5675 26.6252 11.5659 26.6125L50.292 27.0298Z" fill="#455A64"/>
<path d="M50.2188 27.6858C50.2203 27.6985 50.2203 27.7113 50.2188 27.724C50.2188 27.724 50.2188 27.7526 50.2188 27.7654L11.623 27.3513C11.6247 27.3376 11.6247 27.3237 11.623 27.3099C11.623 27.3099 11.623 27.2845 11.623 27.2717L50.2188 27.6858Z" fill="#455A64"/>
<path d="M50.149 28.3419C50.149 28.3419 50.149 28.3705 50.149 28.3833C50.149 28.396 50.149 28.4088 50.149 28.4215L11.6772 28.0075C11.6772 28.0075 11.6772 27.9788 11.6772 27.9661C11.6788 27.9534 11.6788 27.9405 11.6772 27.9279L50.149 28.3419Z" fill="#455A64"/>
<path d="M50.0657 28.998C50.0673 29.0107 50.0673 29.0235 50.0657 29.0362C50.0675 29.05 50.0675 29.0639 50.0657 29.0776L11.7466 28.6636C11.7466 28.6636 11.7466 28.6381 11.7466 28.6222C11.7466 28.6063 11.7466 28.5967 11.7466 28.584L50.0657 28.998Z" fill="#455A64"/>
<path d="M49.9995 29.6508C49.9995 29.6508 49.9995 29.6795 49.9995 29.6922C49.9995 29.705 49.9995 29.7177 49.9995 29.7305L11.8234 29.3196C11.8219 29.3069 11.8219 29.2941 11.8234 29.2814C11.8219 29.2676 11.8219 29.2537 11.8234 29.24L49.9995 29.6508Z" fill="#455A64"/>
<path d="M49.9203 30.307C49.9203 30.307 49.9203 30.3356 49.9203 30.3484C49.9218 30.361 49.9218 30.3739 49.9203 30.3866L11.8968 29.9789C11.8951 29.9652 11.8951 29.9513 11.8968 29.9375C11.8953 29.9248 11.8953 29.912 11.8968 29.8993L49.9203 30.307Z" fill="#455A64"/>
<path d="M49.8376 30.9631C49.8376 30.9631 49.8376 30.9917 49.8376 31.0045C49.8391 31.0172 49.8391 31.03 49.8376 31.0427L11.9699 30.635C11.9684 30.6223 11.9684 30.6095 11.9699 30.5968C11.9684 30.5831 11.9684 30.5692 11.9699 30.5554L49.8376 30.9631Z" fill="#455A64"/>
<path d="M49.7482 31.6191C49.7467 31.6328 49.7467 31.6467 49.7482 31.6605C49.7482 31.6605 49.7482 31.686 49.7482 31.6987L12.0396 31.291C12.0396 31.291 12.0396 31.2656 12.0396 31.2528C12.0396 31.2401 12.0396 31.2273 12.0396 31.2114L49.7482 31.6191Z" fill="#455A64"/>
<path d="M49.6654 32.2719C49.6654 32.2719 49.6654 32.3006 49.6654 32.3133C49.6654 32.3261 49.6654 32.3388 49.6654 32.3515L12.1253 31.9502C12.1236 31.9365 12.1236 31.9226 12.1253 31.9088C12.1238 31.8951 12.1238 31.8812 12.1253 31.8674L49.6654 32.2719Z" fill="#455A64"/>
<path d="M49.5734 32.9312C49.5734 32.9312 49.5734 32.9567 49.5734 32.9694C49.5721 32.9832 49.5721 32.9971 49.5734 33.0108L12.2145 32.6064C12.213 32.5937 12.213 32.5808 12.2145 32.5681C12.2145 32.5681 12.2145 32.5395 12.2145 32.5267L49.5734 32.9312Z" fill="#455A64"/>
<path d="M49.4809 33.5873C49.4809 33.5873 49.4809 33.6128 49.4809 33.6256C49.4809 33.6383 49.4809 33.651 49.4809 33.6638L12.3127 33.2625C12.3124 33.2359 12.3124 33.2094 12.3127 33.1829L49.4809 33.5873Z" fill="#455A64"/>
<path d="M49.3858 34.2401C49.3843 34.2528 49.3843 34.2657 49.3858 34.2784C49.3845 34.2921 49.3845 34.306 49.3858 34.3198L12.4116 33.9217C12.4132 33.909 12.4132 33.8961 12.4116 33.8834C12.4129 33.8697 12.4129 33.8558 12.4116 33.842L49.3858 34.2401Z" fill="#455A64"/>
<path d="M49.2844 34.8963C49.2828 34.909 49.2828 34.9218 49.2844 34.9345C49.2828 34.9482 49.2828 34.9621 49.2844 34.9759L12.5264 34.581C12.5279 34.5672 12.5279 34.5533 12.5264 34.5396C12.5264 34.5396 12.5264 34.5141 12.5264 34.5013L49.2844 34.8963Z" fill="#455A64"/>
<path d="M49.1755 35.5523C49.1752 35.5789 49.1752 35.6054 49.1755 35.632L12.6432 35.253V35.2116C12.6417 35.1989 12.6417 35.186 12.6432 35.1733L49.1755 35.5523Z" fill="#455A64"/>
<path d="M49.0646 36.2084C49.0661 36.2211 49.0661 36.234 49.0646 36.2467L47.9391 36.269L21.5494 35.9823L19.8515 35.925H19.8229L18.3604 35.8708L49.0646 36.2084Z" fill="#455A64"/>
<path d="M28.6843 23.9723C28.6307 24.7208 28.8301 25.4657 29.2503 26.087C29.4748 26.4153 29.7775 26.6824 30.131 26.8641C30.4898 27.0404 30.8824 27.1371 31.282 27.1475C31.6887 27.1649 32.0922 27.0679 32.4467 26.8676C32.8013 26.6672 33.0928 26.3714 33.2882 26.0137C33.6555 25.3649 33.8184 24.62 33.7556 23.8767C33.575 24.5433 33.2767 25.1721 32.8749 25.7335C32.6947 25.9846 32.4552 26.187 32.1778 26.3227C31.9003 26.4583 31.5936 26.5229 31.2851 26.5106C30.9721 26.5125 30.6622 26.4482 30.3757 26.322C30.0892 26.1958 29.8325 26.0104 29.6223 25.7781C29.1814 25.2522 28.8612 24.6357 28.6843 23.9723Z" fill="#FBBA96"/>
<path d="M42.3656 22.8862C44.3973 22.8512 44.3146 26.9214 42.4323 26.9533C40.5501 26.9851 40.6646 22.9149 42.3656 22.8862Z" fill="#FBBA96"/>
<path d="M19.4092 22.6156C21.4378 22.5805 21.3583 26.6508 19.476 26.6826C17.5938 26.7145 17.705 22.6442 19.4092 22.6156Z" fill="#FBBA96"/>
<path d="M13.3051 22.9181C12.5123 17.8194 12.1137 12.6669 12.1128 7.5067V6.99712C14.8847 6.36088 17.7035 5.95081 20.5416 5.77096C23.1976 5.58303 25.8638 5.58943 28.5189 5.79007C23.3141 6.42704 18.0266 6.95572 12.9108 8.12137L13.3909 7.50351C13.3909 8.77745 13.3909 10.0514 13.4068 11.3476C13.4068 15.2045 13.4514 19.0613 13.3115 22.9181H13.3051Z" fill="#455A64"/>
<path d="M32.0258 95.1789C32.0258 95.1789 33.8063 96.1535 37.981 95.9815C42.1557 95.8095 43.8471 94.7076 43.8471 94.7076C43.8471 94.7076 42.6453 79.6019 40.3497 72.5315C39.5199 69.9836 38.76 67.7097 36.3277 67.8084C33.4979 67.9231 33.1196 70.2066 32.7062 72.8468C31.6665 79.3407 32.0258 95.1789 32.0258 95.1789Z" fill="#FBBA96"/>
<path d="M37.163 97.1336L40.6035 96.9922L40.3445 90.6692L36.904 90.8107L37.163 97.1336Z" fill="#37474F"/>
<path opacity="0.1" d="M32.0225 95.179C32.0225 95.179 33.8062 96.1536 37.984 95.9816C42.1618 95.8096 43.847 94.7077 43.847 94.7077C43.847 94.7077 43.8152 93.9911 43.7484 92.7968C42.2241 91.8575 40.4474 91.4126 38.6612 91.5228C37.379 91.5408 36.1173 91.8483 34.9701 92.4223C33.8229 92.9963 32.8197 93.8221 32.0352 94.8382C32.032 95.058 32.0225 95.179 32.0225 95.179Z" fill="black"/>
<path d="M29.5522 99.8544H49.6688C49.6688 99.8544 48.397 92.421 40.3561 92.7044C38.0616 92.738 35.8247 93.4292 33.91 94.6963C31.9954 95.9634 30.4832 97.7534 29.5522 99.8544Z" fill="#FBBA96"/>
<path d="M30.7285 97.574C30.7285 98.8321 31.622 99.8544 32.7221 99.8544C33.8222 99.8544 34.7156 98.8321 34.7156 97.574C34.7156 96.316 33.8222 95.2937 32.7221 95.2937C31.622 95.2937 30.7285 96.3129 30.7285 97.574Z" fill="#FBBA96"/>
<path opacity="0.1" d="M30.7285 97.574C30.7285 98.8321 31.622 99.8544 32.7221 99.8544C33.8222 99.8544 34.7156 98.8321 34.7156 97.574C34.7156 96.316 33.8222 95.2937 32.7221 95.2937C31.622 95.2937 30.7285 96.3129 30.7285 97.574Z" fill="black"/>
<path d="M29.7781 95.1789C29.7781 95.1789 27.9976 96.1535 23.8198 95.9815C19.6419 95.8095 17.9536 94.7076 17.9536 94.7076C17.9536 94.7076 19.1555 79.6019 21.451 72.5315C22.2777 69.9836 23.0408 67.7097 25.4731 67.8084C28.3028 67.9231 28.678 70.2066 29.0945 72.8468C30.1374 79.3407 29.7781 95.1789 29.7781 95.1789Z" fill="#FBBA96"/>
<path d="M24.8736 90.8089L21.4331 90.6675L21.1741 96.9904L24.6145 97.1319L24.8736 90.8089Z" fill="#37474F"/>
<path opacity="0.1" d="M29.7779 95.1789C29.7779 95.1789 27.9973 96.1535 23.8195 95.9815C19.6417 95.8095 17.9565 94.7076 17.9565 94.7076C17.9565 94.7076 17.9883 93.991 18.0519 92.7966C19.5764 91.8578 21.3529 91.4129 23.1391 91.5227C24.421 91.5403 25.6823 91.8475 26.8291 92.4216C27.9759 92.9957 28.9784 93.8217 29.762 94.8381C29.7715 95.0579 29.7779 95.1789 29.7779 95.1789Z" fill="black"/>
<path d="M32.2611 99.8544H12.1318C12.1318 99.8544 13.4036 92.421 21.4477 92.7044C23.7439 92.7362 25.9828 93.4266 27.8993 94.6938C29.8158 95.961 31.3295 97.7519 32.2611 99.8544Z" fill="#FBBA96"/>
<path d="M31.0747 97.574C31.0747 98.8321 30.1813 99.8544 29.078 99.8544C27.9747 99.8544 27.0845 98.8321 27.0845 97.574C27.0845 96.316 27.9779 95.2937 29.078 95.2937C30.1781 95.2937 31.0747 96.3129 31.0747 97.574Z" fill="#FBBA96"/>
<path opacity="0.1" d="M31.0747 97.574C31.0747 98.8321 30.1813 99.8544 29.078 99.8544C27.9747 99.8544 27.0845 98.8321 27.0845 97.574C27.0845 96.316 27.9779 95.2937 29.078 95.2937C30.1781 95.2937 31.0747 96.3129 31.0747 97.574Z" fill="black"/>
<path d="M18.6468 69.2511C18.7835 69.2957 19.5561 72.006 19.5657 72.229C19.4596 72.7353 19.1766 73.187 18.7676 73.5029C18.2684 73.8787 17.34 73.9934 17.1779 73.8787C17.0157 73.7641 15.7471 71.2672 15.7407 70.9678C15.7344 70.6684 17.2605 68.7766 18.6468 69.2511Z" fill="#37474F"/>
<path d="M15.728 70.9646C15.728 71.2608 16.9998 73.7609 17.1651 73.8756C17.25 73.9133 17.343 73.9286 17.4354 73.9202C17.181 73.038 16.7773 71.5984 16.7423 71.2959C16.6946 70.8755 17.286 69.7958 17.7629 69.2289C16.6819 69.5028 15.728 70.7289 15.728 70.9646Z" fill="#263238"/>
<path d="M13.636 74.0476C13.4357 74.4043 12.4851 74.5381 11.5789 74.2132C11.1751 74.0699 10.3294 72.0921 10.288 71.4233C10.2373 70.4685 10.2373 69.5117 10.288 68.5569C10.3453 68.3722 12.7394 69.1047 12.8698 69.3054C13.0001 69.506 12.8698 71.5985 13.0987 72.4106C13.3276 73.2227 13.706 73.9234 13.636 74.0476Z" fill="#37474F"/>
<path d="M11.019 68.6238C11.5564 69.2034 11.7026 70.5347 11.833 70.9997C11.9475 71.4137 12.9172 73.4074 13.3464 74.2737C13.4652 74.2324 13.5669 74.1529 13.6358 74.0476C13.7057 73.9234 13.3496 73.2131 13.1111 72.3978C12.8727 71.5825 13.0126 69.4932 12.8822 69.2926C12.7964 69.162 11.7535 68.8053 11.019 68.6238Z" fill="#263238"/>
<path d="M16.0454 70.35C16.2012 70.4423 17.2536 73.831 17.2409 74.0062C17.2059 74.4361 16.287 75.124 15.7878 75.2323C15.2887 75.3406 13.9278 74.7546 13.7975 74.6495C13.3782 74.0032 13.0042 73.3285 12.6783 72.6303C12.4948 71.6604 12.3885 70.6775 12.3604 69.6907C12.408 69.6206 15.8546 70.2385 16.0454 70.35Z" fill="#37474F"/>
<path d="M9.79157 65.6873C9.80747 66.1554 10.2144 70.0091 10.5896 70.404C10.9648 70.7989 12.5196 71.4518 13.6992 71.627C15.2603 71.8627 17.3842 71.2703 18.2077 70.6365C19.0311 70.0027 19.5335 65.5408 19.3014 65.3274C19.0693 65.114 16.5225 63.8815 14.6594 63.8815C12.4719 63.8815 9.77568 65.2637 9.79157 65.6873Z" fill="#37474F"/>
<path d="M10.4722 70.0442C11.0576 70.3408 11.6619 70.5983 12.2813 70.8149C12.8921 71.0424 13.5374 71.1631 14.189 71.1716C14.8444 71.1541 15.4958 71.0644 16.1316 70.9041C16.7687 70.7487 17.3961 70.5562 18.0107 70.3276C17.4014 70.5748 16.7757 70.7791 16.138 70.9391C15.5008 71.1053 14.8471 71.2004 14.189 71.2226C13.5288 71.2102 12.8758 71.083 12.259 70.8468C11.6423 70.6291 11.0446 70.3607 10.4722 70.0442Z" fill="#263238"/>
<path d="M10.3862 69.5314C10.9958 69.8424 11.6257 70.1116 12.2717 70.3371C12.9119 70.5759 13.5885 70.702 14.2716 70.7098C14.9549 70.6914 15.6341 70.5974 16.2969 70.4295C16.9623 70.2686 17.6174 70.0675 18.2586 69.8276C17.6243 70.0875 16.9719 70.3004 16.3064 70.4645C15.6425 70.6394 14.9609 70.7387 14.2747 70.7607C13.5861 70.7495 12.9048 70.6169 12.2621 70.369C11.615 70.1416 10.9876 69.8615 10.3862 69.5314Z" fill="#263238"/>
<path d="M10.3228 69.0537C10.9548 69.3761 11.6081 69.6549 12.2781 69.8881C12.9414 70.1373 13.6429 70.2688 14.3512 70.2767C15.0583 70.2571 15.761 70.1589 16.4464 69.9837C17.1351 69.8164 17.8135 69.609 18.4781 69.3626C17.8202 69.6285 17.1445 69.8477 16.456 70.0187C15.7683 70.2026 15.0624 70.3094 14.3512 70.3372C13.6376 70.3234 12.9318 70.1855 12.2654 69.9295C11.5946 69.6923 10.9448 69.3993 10.3228 69.0537Z" fill="#263238"/>
<path d="M10.3765 68.6174C11.0085 68.9398 11.6618 69.2186 12.3318 69.4519C12.9957 69.6985 13.6969 69.8289 14.4049 69.8372C15.1119 69.8187 15.8146 69.7215 16.5001 69.5474C17.1888 69.3801 17.8672 69.1727 18.5318 68.9264C17.8741 69.1927 17.1984 69.4119 16.5097 69.5824C15.8217 69.7648 15.1159 69.8716 14.4049 69.9009C13.6913 69.8871 12.9855 69.7492 12.3191 69.4933C11.6489 69.2546 10.9992 68.9617 10.3765 68.6174Z" fill="#263238"/>
<path d="M10.3228 68.1078C10.9764 68.4422 11.652 68.7316 12.3449 68.9741C13.032 69.2303 13.758 69.3661 14.4911 69.3754C15.2239 69.3557 15.9523 69.2542 16.6626 69.0728C17.3751 68.902 18.0768 68.6894 18.7643 68.4358C18.0839 68.7115 17.3848 68.9382 16.6722 69.1142C15.9589 69.2996 15.2275 69.4064 14.4911 69.4327C13.7537 69.4181 13.0244 69.2758 12.3354 69.0123C11.6406 68.7673 10.9674 68.4648 10.3228 68.1078Z" fill="#263238"/>
<path d="M10.1924 67.5537C10.8626 67.8987 11.5564 68.1957 12.2686 68.4423C12.9737 68.7063 13.7193 68.8453 14.472 68.8531C15.2233 68.8296 15.9697 68.7228 16.6976 68.5346C17.4294 68.3543 18.1502 68.1321 18.8565 67.869C18.1564 68.1524 17.4371 68.3855 16.704 68.5665C15.9761 68.7545 15.2297 68.8613 14.4783 68.885C13.7169 68.8722 12.9635 68.7256 12.2527 68.4518C11.5422 68.2103 10.853 67.9099 10.1924 67.5537Z" fill="#263238"/>
<path d="M10.103 67.0249C10.7995 67.3822 11.5197 67.6908 12.2587 67.9485C12.9912 68.223 13.7659 68.3674 14.5479 68.3753C15.3289 68.3551 16.1052 68.2483 16.8626 68.0568C17.6229 67.8714 18.3714 67.6406 19.1041 67.3657C18.3807 67.6602 17.6368 67.9018 16.8785 68.0886C16.1187 68.2877 15.3392 68.402 14.5543 68.4294C13.7669 68.4132 12.9882 68.2613 12.2524 67.9804C11.5108 67.722 10.7919 67.4024 10.103 67.0249Z" fill="#263238"/>
<path d="M9.97949 66.5186C10.6984 66.8883 11.4421 67.2075 12.2051 67.474C12.9574 67.7545 13.7522 67.9031 14.5548 67.9135C15.3569 67.8966 16.1546 67.7898 16.933 67.595C17.7153 67.4062 18.4851 67.169 19.2381 66.8848C18.4919 67.1885 17.7247 67.4375 16.9426 67.6301C16.1617 67.833 15.361 67.9494 14.5548 67.9772C13.7467 67.9626 12.9474 67.8074 12.1924 67.5186C11.429 67.2457 10.6889 66.9113 9.97949 66.5186Z" fill="#263238"/>
<path d="M17.8168 44.3362C17.3685 46.5974 18.0394 48.8427 19.3176 49.3587C20.5957 49.8746 21.9947 48.4574 22.443 46.1993C22.8913 43.9413 22.2204 41.6928 20.9423 41.1768C19.6641 40.6609 18.2715 42.0781 17.8168 44.3362Z" fill="#37474F"/>
<path d="M17.8579 44.352C17.4764 46.2629 18.0455 48.1547 19.1297 48.5879L19.1901 48.6102C20.2552 48.9796 21.3966 47.7948 21.7686 45.9222C22.0866 44.2374 21.6955 42.5558 20.8466 41.8902C20.7408 41.8077 20.6242 41.7402 20.5 41.6895C19.4158 41.2564 18.2331 42.4475 17.8579 44.352Z" fill="#455A64"/>
<path d="M18.2708 44.5718C17.937 46.2598 18.344 47.9445 19.1897 48.6102C20.2548 48.9796 21.3963 47.7949 21.7683 45.9222C22.0862 44.2374 21.6952 42.5558 20.8462 41.8902C19.7747 41.5207 18.6333 42.7055 18.2708 44.5718Z" fill="#263238"/>
<path d="M19.2252 43.7119L20.4079 44.0686C20.5288 44.1036 20.6909 44.6897 20.6051 45.3075C20.5192 45.9254 20.2172 46.3394 20.0963 46.3044L18.9072 45.9477L19.2252 43.7119Z" fill="#37474F"/>
<path d="M19.2254 43.7119C19.0123 43.6514 18.7707 44.1004 18.6817 44.7183C18.5927 45.3362 18.6976 45.8871 18.9106 45.9476C19.1236 46.0082 19.3653 45.5591 19.4511 44.9412C19.537 44.3234 19.432 43.7724 19.2254 43.7119Z" fill="#455A64"/>
<path d="M19.4794 68.4071C19.4794 68.4071 16.0742 69.6588 13.1045 68.8339C9.6834 67.8784 8.97119 66.13 8.97119 66.13C8.97119 66.13 13.184 49.2917 16.3635 44.8075C17.4986 43.1991 18.8785 41.1736 20.2234 42.3551C20.9292 42.973 21.5238 47.0528 21.244 49.0019C20.5477 53.8174 19.4794 68.4071 19.4794 68.4071Z" fill="#FBBA96"/>
<path d="M18.1444 57.4673C18.1444 57.4673 14.1478 57.0628 11.9508 55.5564L11.3403 57.6042C11.3403 57.6042 13.6677 59.0502 17.9219 59.4929L18.1444 57.4673Z" fill="#263238"/>
<path d="M18.5891 61.8942C19.9022 62.0279 21.1104 60.7158 21.2853 58.9546C21.4443 57.3972 20.7543 56.0086 19.6956 55.5914C19.5464 55.5334 19.3904 55.4949 19.2314 55.4767C17.9119 55.3302 16.6878 56.6456 16.5129 58.4163C16.338 60.1871 17.2633 61.7477 18.5891 61.8942Z" fill="#263238"/>
<path d="M18.5891 61.8974C19.9022 62.0311 21.1105 60.719 21.2853 58.9578C21.4443 57.4004 20.7543 56.0118 19.6956 55.5946C18.3825 55.4608 17.1774 56.7761 16.9994 58.5374C16.8436 60.0947 17.5367 61.4802 18.5891 61.8974Z" fill="#37474F"/>
<path d="M44.8585 44.3362C45.3068 46.5974 44.6359 48.8427 43.3578 49.3587C42.0796 49.8746 40.6807 48.4574 40.2324 46.1993C39.7841 43.9413 40.4549 41.6928 41.7331 41.1768C43.0112 40.6609 44.4102 42.0781 44.8585 44.3362Z" fill="#37474F"/>
<path d="M44.8168 44.352C45.1984 46.2629 44.6292 48.1547 43.545 48.5879L43.4846 48.6102C42.4195 48.9796 41.2781 47.7948 40.9061 45.9222C40.5722 44.2374 40.9792 42.5558 41.8281 41.8902C41.9339 41.8077 42.0505 41.7402 42.1747 41.6895C43.2589 41.2564 44.4416 42.4475 44.8168 44.352Z" fill="#455A64"/>
<path d="M44.4128 44.5718C44.7307 46.2598 44.3396 47.9445 43.4939 48.6102C42.4288 48.9796 41.2873 47.7949 40.9153 45.9222C40.5815 44.2374 40.9885 42.5558 41.8374 41.8902C42.8993 41.5207 44.0408 42.7055 44.4128 44.5718Z" fill="#263238"/>
<path d="M43.456 43.7119L42.27 44.0686C42.1492 44.1036 41.9871 44.6897 42.0729 45.3075C42.1587 45.9254 42.4608 46.3394 42.5816 46.3044L43.7676 45.9477L43.456 43.7119Z" fill="#37474F"/>
<path d="M43.4561 43.7119C43.666 43.6514 43.9076 44.1004 43.9967 44.7183C44.0857 45.3362 43.9808 45.8871 43.7677 45.9476C43.5547 46.0082 43.3131 45.5591 43.2272 44.9412C43.1414 44.3234 43.2431 43.7724 43.4561 43.7119Z" fill="#455A64"/>
<path d="M52.2667 56.91C48.5498 53.8398 45.0143 50.7282 43.628 49.2664C42.1813 47.7536 41.0272 44.3203 41.2529 43.3489C41.6885 41.4954 44.1145 42.3935 46.1016 43.0782C48.5467 43.9286 52.6832 46.7599 56.524 49.6422C56.1774 52.9003 55.1536 55.6583 52.2667 56.91Z" fill="#FBBA96"/>
<path d="M64.396 45.5655C64.5327 45.6038 66.7011 43.8075 66.8315 43.6292C67.0329 43.152 67.0543 42.6178 66.8919 42.1259C66.6948 41.5367 65.9921 40.9157 65.7854 40.9125C65.5788 40.9093 63.1306 42.2565 62.9589 42.5049C62.7872 42.7533 62.9843 45.1706 64.396 45.5655Z" fill="#37474F"/>
<path d="M62.9588 42.5016C63.1305 42.2564 65.5787 40.9092 65.7853 40.9092C65.8766 40.9268 65.9619 40.9674 66.0333 41.027C65.3275 41.6226 64.1829 42.578 63.9826 42.801C63.706 43.1195 63.5851 44.3488 63.6646 45.0845C62.9174 44.2437 62.8221 42.6927 62.9588 42.5016Z" fill="#263238"/>
<path d="M63.5821 36.492C63.5122 36.0875 62.6632 35.6384 61.6999 35.6384C61.2706 35.6384 59.8113 37.2117 59.5442 37.8296C59.1788 38.7167 58.8604 39.6224 58.5903 40.5431C58.5903 40.7374 61.083 40.8616 61.2738 40.7119C61.4646 40.5622 62.0401 38.5526 62.5456 37.8646C63.0511 37.1767 63.6044 36.6321 63.5821 36.492Z" fill="#37474F"/>
<path d="M59.2866 40.7118C59.9861 40.3456 60.5584 39.1481 60.8541 38.75C61.0989 38.3996 62.6855 36.8391 63.3818 36.1798C63.4802 36.2618 63.5493 36.3736 63.5789 36.4983C63.6012 36.6416 63.0257 37.1894 62.5265 37.8741C62.0273 38.5589 61.455 40.5749 61.2547 40.7214C61.1434 40.8042 60.0402 40.7883 59.2866 40.7118Z" fill="#263238"/>
<path d="M63.3949 42.7342C63.5761 42.7183 65.9861 40.1163 66.0466 39.9507C66.2023 39.5494 65.6777 38.5334 65.2644 38.2181C64.8511 37.9028 63.379 37.8455 63.2168 37.8837C62.5613 38.2855 61.9345 38.7325 61.3409 39.2213C60.7536 40.0142 60.2316 40.8535 59.7798 41.731C59.8052 41.8234 63.1818 42.7565 63.3949 42.7342Z" fill="#37474F"/>
<path d="M55.2865 42.1323C55.6362 41.8138 58.6885 39.4411 59.2322 39.4379C59.7759 39.4347 61.3243 40.1035 62.2686 40.8328C63.5213 41.7883 64.5674 43.7406 64.685 44.7725C64.8027 45.8044 61.9348 49.2727 61.6263 49.2313C61.3179 49.1899 58.6567 48.2312 57.3658 46.8872C55.8461 45.3203 54.9717 42.4157 55.2865 42.1323Z" fill="#37474F"/>
<path d="M58.8926 39.6035C59.512 39.8201 60.1163 40.0776 60.7017 40.3742C61.2935 40.6579 61.8315 41.0426 62.2914 41.5112C62.7332 41.9981 63.1202 42.5321 63.4456 43.1037C63.775 43.6725 64.0723 44.2594 64.3358 44.8617C64.0918 44.2503 63.8039 43.6574 63.4742 43.0877C63.1515 42.5169 62.7677 41.9829 62.3296 41.4953C61.8624 41.0227 61.317 40.6348 60.7176 40.3488C60.1305 40.0511 59.5201 39.8018 58.8926 39.6035Z" fill="#263238"/>
<path d="M58.4634 39.8965C59.111 40.119 59.7422 40.3872 60.352 40.6991C60.9685 40.9949 61.529 41.3958 62.0085 41.8838C62.4703 42.3886 62.8735 42.9442 63.2103 43.5399C63.5563 44.1311 63.8663 44.7427 64.1388 45.3712C63.8844 44.7338 63.5848 44.1154 63.2421 43.5208C62.907 42.9206 62.506 42.3598 62.0467 41.8488C61.5595 41.3607 60.9915 40.9609 60.3679 40.6672C59.7552 40.3584 59.1183 40.1006 58.4634 39.8965Z" fill="#263238"/>
<path d="M58.0718 40.1768C58.7426 40.4067 59.396 40.6845 60.0272 41.008C60.6654 41.3136 61.2453 41.7285 61.7409 42.2342C62.2183 42.7574 62.6363 43.3321 62.9873 43.9476C63.3434 44.5647 63.6619 45.2029 63.9411 45.8585C63.678 45.2 63.3677 44.5614 63.0127 43.9476C62.6645 43.326 62.2486 42.745 61.7727 42.2151C61.2695 41.7093 60.682 41.2955 60.0367 40.9921C59.4053 40.6664 58.7481 40.3937 58.0718 40.1768Z" fill="#263238"/>
<path d="M57.8018 40.5239C58.4715 40.7566 59.1248 41.0343 59.7571 41.3552C60.3947 41.6619 60.9745 42.0767 61.4709 42.5813C61.9486 43.1055 62.3666 43.6812 62.7172 44.298C63.074 44.9147 63.3925 45.5529 63.6711 46.2089C63.4078 45.5504 63.0975 44.9118 62.7427 44.298C62.3937 43.6769 61.9779 43.0959 61.5027 42.5654C60.9986 42.0607 60.4113 41.6469 59.7667 41.3424C59.1344 41.0178 58.4774 40.7441 57.8018 40.5239Z" fill="#263238"/>
<path d="M57.3789 40.8264C58.0737 41.0642 58.7505 41.3516 59.4042 41.6863C60.0663 42.004 60.6678 42.4351 61.1816 42.9603C61.6755 43.5023 62.1084 44.0972 62.4724 44.7342C62.8409 45.3694 63.1721 46.0255 63.4644 46.6993C63.1941 46.017 62.8753 45.355 62.5106 44.7183C62.1546 44.0741 61.728 43.4716 61.2388 42.922C60.7169 42.3965 60.108 41.9655 59.4392 41.6481C58.7763 41.3176 58.0872 41.0427 57.3789 40.8264Z" fill="#263238"/>
<path d="M56.9082 41.1259C57.6208 41.3727 58.3156 41.6686 58.9876 42.0112C59.6664 42.3366 60.2839 42.7774 60.8126 43.3138C61.3219 43.8677 61.7696 44.4753 62.148 45.126C62.5268 45.7783 62.8666 46.4525 63.1654 47.1452C62.8842 46.4433 62.5538 45.7621 62.1766 45.1069C61.8058 44.4472 61.3645 43.83 60.8603 43.2661C60.3239 42.7295 59.699 42.2899 59.013 41.9666C58.3348 41.6309 57.631 41.3497 56.9082 41.1259Z" fill="#263238"/>
<path d="M56.4663 41.4285C57.2065 41.6832 57.9279 41.9897 58.6252 42.3457C59.335 42.682 59.9806 43.1401 60.5329 43.6993C61.061 44.2832 61.5227 44.9241 61.9096 45.6102C62.3022 46.2879 62.6557 46.9876 62.9683 47.7058C62.6746 46.9777 62.3304 46.271 61.9382 45.591C61.5545 44.9054 61.0959 44.2645 60.571 43.6801C60.0178 43.123 59.3723 42.6662 58.6633 42.3298C57.9568 41.9697 57.222 41.6682 56.4663 41.4285Z" fill="#263238"/>
<path d="M56.0151 41.6927C56.7778 41.954 57.5215 42.268 58.2408 42.6323C58.9643 42.9809 59.6226 43.4517 60.1866 44.0241C60.7292 44.6178 61.2038 45.2705 61.6015 45.97C62.0049 46.6661 62.3679 47.385 62.6889 48.1229C62.3869 47.3761 62.0331 46.6514 61.6301 45.9541C61.2374 45.2479 60.7659 44.5887 60.2248 43.989C59.6547 43.4155 58.9885 42.9466 58.2567 42.6036C57.5359 42.2385 56.7861 41.9339 56.0151 41.6927Z" fill="#263238"/>
<path d="M49.5161 50.7314C52.2091 45.7726 55.0389 41.2342 55.0389 41.2342C55.0389 41.2342 56.7939 40.5303 59.8494 42.3393C62.5043 43.9126 63.9637 47.2376 63.9637 47.2376C63.9637 47.2376 60.2882 52.4607 55.6652 56.066C50.5749 55.4131 50.9755 53.4799 49.5161 50.7314Z" fill="#FBBA96"/>
<path d="M51.901 53.9512C51.901 53.9512 52.5369 48.6198 51.564 46.1356L52.2317 46.0974C52.2317 46.0974 54.4573 49.9447 53.9263 54.1965L51.901 53.9512Z" fill="#263238"/>
<path d="M56.1071 55.3876C55.9418 56.6997 54.3934 57.5787 52.6383 57.3494C51.0899 57.152 49.8976 56.1647 49.7355 55.0277C49.7132 54.8692 49.7132 54.7084 49.7355 54.5499C49.8912 53.2282 51.446 52.3397 53.2106 52.5658C54.9752 52.7919 56.2661 54.0627 56.1071 55.3876Z" fill="#263238"/>
<path d="M56.107 55.4034C55.9417 56.7156 54.3933 57.5946 52.6382 57.3653C51.0898 57.1678 49.8975 56.1805 49.7354 55.0436C49.9039 53.7346 51.4523 52.8556 53.2074 53.0785C54.7494 53.2791 55.9417 54.2696 56.107 55.4034Z" fill="#37474F"/>
</svg>
