<svg viewBox="0 0 30 30" fill="none" xmlns="http://www.w3.org/2000/svg"><mask id="mask0_157_5465" style="mask-type:alpha" maskUnits="userSpaceOnUse" x="0" y="0" width="30" height="30"><circle cx="15" cy="15" r="15" fill="white"/></mask><g mask="url(#mask0_157_5465)"><circle cx="15" cy="15" r="15" fill="white"/><path d="M11.8858 29.2269C11.8967 29.515 12.1468 31.8894 12.3763 32.1315C12.6059 32.3735 13.5652 32.7778 14.2901 32.8867C15.2567 33.0295 16.5579 32.6652 17.069 32.2816C17.58 31.8979 17.8845 29.1349 17.7407 29.0139C17.597 28.8929 16.0287 28.1099 14.8821 28.1099C13.535 28.1099 11.8761 28.9667 11.8858 29.2269Z" fill="#37474F"/><path d="M11.9966 29.7375C12.4363 29.9644 12.8918 30.1593 13.3594 30.3209C13.8232 30.4952 14.3139 30.587 14.8093 30.592C15.3035 30.5794 15.7947 30.5112 16.2736 30.3887C16.7541 30.2714 17.2274 30.1259 17.6908 29.953C17.2316 30.1378 16.7601 30.2902 16.2797 30.4092C15.7998 30.5349 15.3074 30.6068 14.8117 30.6234C14.3157 30.6133 13.8253 30.5175 13.3618 30.3402C12.891 30.1773 12.4344 29.9757 11.9966 29.7375Z" fill="#263238"/><path d="M19.4467 22.0345C19.465 21.9348 19.4479 21.8319 19.3985 21.7435C19.3491 21.6551 19.2704 21.5868 19.176 21.5504C17.7697 21.0663 16.013 20.7867 14.9014 20.7831H14.8821C13.7693 20.7831 12.0114 21.0614 10.6062 21.5504C10.5115 21.5864 10.4324 21.6546 10.3827 21.743C10.333 21.8315 10.3159 21.9347 10.3344 22.0345C10.547 23.3452 10.7355 27.8823 11.7939 29.9071C12.3799 31.0314 14.6682 31.0374 14.8821 31.0338H14.8966C15.1104 31.0338 17.3963 31.0338 17.9847 29.9071C19.0467 27.8823 19.234 23.3452 19.4467 22.0345Z" fill="#FBBA96"/><path opacity="0.1" d="M12.7197 21.059L12.7826 22.2752L12.8357 23.4915L12.93 25.9241L13.0024 28.3579L13.0327 29.5742L13.052 30.7917L12.9892 29.5766L12.9348 28.3603L12.8418 25.9265L12.7681 23.494L12.7391 22.2765L12.7197 21.059Z" fill="black"/><path opacity="0.1" d="M12.3715 21.7924C12.3792 21.8352 12.3747 21.8793 12.3584 21.9197C12.3421 21.96 12.3147 21.9948 12.2794 22.0202C12.2441 22.0455 12.2023 22.0603 12.159 22.0628C12.1156 22.0654 12.0724 22.0555 12.0344 22.0344C12.0063 22.0177 11.9821 21.9953 11.9631 21.9686C11.9442 21.942 11.931 21.9116 11.9245 21.8795C11.9166 21.8494 11.9149 21.8179 11.9196 21.7871C11.9242 21.7562 11.9352 21.7267 11.9517 21.7002C11.9681 21.6738 11.9899 21.651 12.0155 21.6333C12.0411 21.6155 12.07 21.6032 12.1006 21.5971C12.1311 21.591 12.1625 21.5912 12.193 21.5977C12.2234 21.6042 12.2522 21.6169 12.2776 21.6349C12.303 21.653 12.3244 21.6761 12.3406 21.7027C12.3567 21.7294 12.3673 21.7591 12.3715 21.79V21.7924ZM12.3715 21.7924C12.3654 21.767 12.3541 21.7431 12.3383 21.7222C12.3225 21.7014 12.3025 21.6841 12.2797 21.6714C12.2544 21.6576 12.2263 21.65 12.1976 21.6491C12.1688 21.6481 12.1402 21.6539 12.1141 21.666C12.088 21.678 12.0651 21.696 12.0471 21.7185C12.0292 21.741 12.0167 21.7674 12.0107 21.7956C12.0047 21.8238 12.0054 21.853 12.0127 21.8809C12.0199 21.9087 12.0336 21.9345 12.0525 21.9562C12.0715 21.9779 12.0952 21.9948 12.1219 22.0056C12.1485 22.0165 12.1773 22.021 12.206 22.0187C12.2311 22.0162 12.2555 22.0086 12.2777 21.9966C12.2999 21.9845 12.3194 21.9682 12.3353 21.9485C12.3525 21.9268 12.3646 21.9015 12.3709 21.8745C12.3772 21.8475 12.3774 21.8195 12.3715 21.7924Z" fill="black"/><path opacity="0.1" d="M12.4548 23.2494C12.466 23.3053 12.4562 23.3633 12.4271 23.4122C12.3981 23.4612 12.352 23.4976 12.2977 23.5145C12.2373 23.5313 12.1728 23.5239 12.1177 23.4939C12.0896 23.4774 12.0653 23.4552 12.0464 23.4288C12.0275 23.4023 12.0143 23.3721 12.0077 23.3402C12.002 23.3081 12.0027 23.2751 12.01 23.2433C12.0173 23.2115 12.0309 23.1815 12.05 23.155C12.0691 23.1304 12.093 23.1099 12.1202 23.0947C12.1474 23.0796 12.1774 23.07 12.2083 23.0667C12.2646 23.0614 12.321 23.0771 12.3665 23.1108C12.412 23.1445 12.4434 23.1939 12.4548 23.2494ZM12.4548 23.2494C12.4488 23.2239 12.4376 23.2 12.4217 23.1791C12.4059 23.1583 12.3859 23.141 12.3629 23.1284C12.3408 23.1163 12.3164 23.1088 12.2913 23.1063C12.2662 23.1038 12.2409 23.1064 12.2168 23.1139C12.1896 23.1231 12.1649 23.1385 12.1447 23.1589C12.1244 23.1793 12.1092 23.2041 12.1003 23.2314C12.0913 23.2587 12.0888 23.2877 12.0929 23.3161C12.0971 23.3446 12.1078 23.3717 12.1242 23.3952C12.1406 23.4188 12.1622 23.4383 12.1874 23.452C12.2126 23.4657 12.2407 23.4734 12.2694 23.4744C12.2981 23.4754 12.3266 23.4697 12.3527 23.4578C12.3788 23.4458 12.4017 23.4279 12.4197 23.4056C12.4363 23.3835 12.448 23.3582 12.454 23.3313C12.46 23.3044 12.4603 23.2765 12.4548 23.2494Z" fill="black"/><path opacity="0.1" d="M12.508 24.7974C12.5192 24.8533 12.5094 24.9113 12.4804 24.9602C12.4514 25.0092 12.4052 25.0456 12.3509 25.0625C12.2905 25.0793 12.226 25.0719 12.1709 25.0419C12.1428 25.0254 12.1185 25.0032 12.0995 24.9766C12.0806 24.95 12.0675 24.9197 12.0611 24.8877C12.0547 24.8557 12.0552 24.8227 12.0624 24.7908C12.0697 24.759 12.0836 24.7291 12.1033 24.703C12.13 24.6683 12.1661 24.642 12.2074 24.6272C12.2487 24.6125 12.2933 24.6099 12.3359 24.6198C12.3786 24.6298 12.4175 24.6518 12.448 24.6833C12.4785 24.7148 12.4994 24.7544 12.508 24.7974ZM12.508 24.7974C12.5021 24.7719 12.4909 24.7479 12.4751 24.7271C12.4592 24.7062 12.4392 24.6889 12.4162 24.6764C12.3939 24.6645 12.3696 24.6572 12.3444 24.6549C12.3193 24.6526 12.294 24.6554 12.27 24.6631C12.2424 24.6719 12.2173 24.6871 12.1966 24.7074C12.176 24.7277 12.1604 24.7526 12.1511 24.78C12.1418 24.8075 12.139 24.8367 12.1431 24.8654C12.1471 24.8941 12.1579 24.9215 12.1744 24.9453C12.1909 24.9691 12.2128 24.9887 12.2383 25.0024C12.2637 25.0162 12.2921 25.0238 12.321 25.0246C12.3499 25.0254 12.3786 25.0194 12.4048 25.0071C12.431 24.9947 12.4539 24.9764 12.4718 24.9536C12.4889 24.9318 12.5011 24.9066 12.5074 24.8796C12.5136 24.8526 12.5139 24.8245 12.508 24.7974Z" fill="black"/><path opacity="0.1" d="M12.561 26.3453C12.5692 26.3883 12.565 26.4326 12.5489 26.4732C12.5327 26.5138 12.5053 26.549 12.4698 26.5744C12.4343 26.5999 12.3923 26.6147 12.3487 26.6169C12.3052 26.6192 12.2618 26.609 12.2239 26.5874C12.1906 26.5684 12.1626 26.5414 12.1425 26.5087C12.1223 26.4761 12.1107 26.4389 12.1087 26.4005C12.1067 26.3622 12.1143 26.324 12.131 26.2894C12.1476 26.2548 12.1726 26.225 12.2037 26.2026C12.2348 26.1803 12.2711 26.1661 12.3091 26.1615C12.3472 26.1568 12.3857 26.1618 12.4213 26.1761C12.4569 26.1903 12.4884 26.2132 12.5128 26.2428C12.5372 26.2724 12.5538 26.3076 12.561 26.3453ZM12.561 26.3453C12.5546 26.32 12.5432 26.2962 12.5274 26.2754C12.5117 26.2546 12.4918 26.2372 12.4692 26.2243C12.447 26.2122 12.4227 26.2047 12.3975 26.2022C12.3724 26.1997 12.3471 26.2023 12.323 26.2098C12.2804 26.2245 12.2446 26.2542 12.2224 26.2934C12.2001 26.3326 12.1929 26.3786 12.2022 26.4228C12.209 26.4572 12.2255 26.4889 12.2497 26.5142C12.274 26.5395 12.3049 26.5574 12.339 26.5657C12.373 26.5739 12.4087 26.5723 12.4418 26.5609C12.475 26.5495 12.5041 26.5289 12.526 26.5015C12.5427 26.4795 12.5545 26.4542 12.5606 26.4272C12.5666 26.4003 12.5668 26.3723 12.561 26.3453Z" fill="black"/><path opacity="0.1" d="M12.6143 27.892C12.6255 27.9478 12.6157 28.0058 12.5867 28.0548C12.5576 28.1037 12.5115 28.1402 12.4572 28.157C12.3968 28.1738 12.3323 28.1664 12.2772 28.1364C12.2492 28.12 12.2249 28.0978 12.2059 28.0713C12.187 28.0448 12.1738 28.0147 12.1673 27.9827C12.1596 27.9527 12.1581 27.9214 12.1629 27.8908C12.1677 27.8602 12.1786 27.8308 12.1951 27.8046C12.2115 27.7783 12.2331 27.7557 12.2586 27.738C12.284 27.7204 12.3128 27.7081 12.3431 27.7019C12.3735 27.6958 12.4047 27.6959 12.435 27.7022C12.4653 27.7085 12.494 27.7209 12.5194 27.7387C12.5448 27.7565 12.5663 27.7792 12.5826 27.8056C12.5989 27.8319 12.6097 27.8613 12.6143 27.892ZM12.6143 27.892C12.6008 27.8411 12.5678 27.7976 12.5225 27.771C12.5002 27.7591 12.4758 27.7517 12.4507 27.7495C12.4256 27.7472 12.4003 27.75 12.3763 27.7576C12.329 27.7681 12.2877 27.7967 12.2613 27.8373C12.2348 27.8779 12.2253 27.9272 12.2348 27.9748C12.2443 28.0223 12.272 28.0642 12.312 28.0915C12.352 28.1188 12.4011 28.1293 12.4488 28.1207C12.474 28.1187 12.4986 28.1114 12.5208 28.0993C12.5431 28.0872 12.5626 28.0706 12.5781 28.0505C12.5954 28.0284 12.6076 28.0027 12.6138 27.9753C12.6201 27.9479 12.6203 27.9194 12.6143 27.892Z" fill="black"/><path opacity="0.1" d="M12.6664 29.4411C12.6776 29.4966 12.6679 29.5543 12.6391 29.603C12.6103 29.6517 12.5645 29.688 12.5105 29.7049C12.4807 29.714 12.4494 29.717 12.4185 29.7136C12.3876 29.7103 12.3576 29.7007 12.3305 29.6855C12.3028 29.6686 12.2788 29.6463 12.2599 29.6199C12.241 29.5935 12.2276 29.5635 12.2205 29.5318C12.214 29.4998 12.2143 29.4668 12.2213 29.4348C12.2284 29.4029 12.2421 29.3729 12.2616 29.3467C12.2808 29.3221 12.3047 29.3017 12.3319 29.2865C12.359 29.2714 12.389 29.2618 12.4199 29.2583C12.4763 29.2524 12.5329 29.2679 12.5785 29.3017C12.6242 29.3356 12.6555 29.3853 12.6664 29.4411ZM12.6664 29.4411C12.6605 29.4157 12.6494 29.3918 12.6338 29.371C12.6182 29.3501 12.5984 29.3328 12.5757 29.32C12.5536 29.3079 12.5292 29.3004 12.504 29.2981C12.4789 29.2958 12.4535 29.2987 12.4295 29.3067C12.3823 29.3172 12.341 29.3457 12.3145 29.3863C12.2881 29.4269 12.2786 29.4763 12.2881 29.5239C12.2976 29.5714 12.3253 29.6133 12.3653 29.6406C12.4053 29.6679 12.4544 29.6784 12.502 29.6698C12.5527 29.6644 12.5991 29.6391 12.6313 29.5996C12.6487 29.5775 12.6609 29.5518 12.667 29.5243C12.673 29.4969 12.6728 29.4684 12.6664 29.4411Z" fill="black"/><path d="M14.5726 27.9101C15.7977 28.0566 17.0808 27.3752 17.2306 25.8346C17.4046 24.0555 16.4247 23.1345 15.0728 22.9445C14.1702 22.8235 12.7627 23.3729 12.5549 25.0636C12.3144 27.0412 13.7655 27.8133 14.5726 27.9101Z" fill="#FBBA96"/><g opacity="0.1"><path d="M14.5726 27.9101C15.7977 28.0566 17.0808 27.3752 17.2306 25.8346C17.4046 24.0555 16.4247 23.1345 15.0728 22.9445C14.1702 22.8235 12.7627 23.3729 12.5549 25.0636C12.3144 27.0412 13.7655 27.8133 14.5726 27.9101Z" fill="black"/></g><path d="M14.5898 27.6705C15.734 27.8072 16.9301 27.1718 17.0715 25.7341C17.2334 24.0748 16.3188 23.2144 15.0574 23.0377C14.2117 22.9166 12.902 23.437 12.7087 25.0152C12.4803 26.8608 13.8359 27.5797 14.5898 27.6705Z" fill="#FBBA96"/><g opacity="0.1"><path d="M14.7999 27.4382C16.2498 27.3244 16.8333 25.9665 16.46 24.6704C16.2377 23.7687 15.3847 23.2919 14.4943 23.4674C13.628 23.6719 13.0952 24.5409 13.0915 25.4038C13.0347 26.4603 13.6654 27.4467 14.7999 27.437V27.4382ZM14.7999 27.4382C13.6678 27.466 13.0045 26.4591 13.0299 25.405C12.9961 24.363 13.7464 23.3004 14.8555 23.3149C15.2473 23.3047 15.6303 23.4323 15.938 23.6754C16.2456 23.9186 16.4585 24.2621 16.5397 24.6462C16.8817 25.9556 16.257 27.3438 14.7999 27.4358V27.4382Z" fill="black"/></g><path d="M14.8014 27.3607C15.6894 27.3171 16.5497 26.6237 16.5315 25.411C16.5098 24.0108 15.7341 23.4238 14.7531 23.4516C14.097 23.4698 13.1377 24.0809 13.128 25.4171C13.1159 26.9807 14.2166 27.3909 14.8014 27.3607Z" fill="#FBBA96"/><g opacity="0.2"><path d="M14.8061 27.0508C15.5539 27.0133 16.2777 26.43 16.2619 25.4109C16.2438 24.2322 15.5914 23.7384 14.7662 23.7614C14.214 23.7771 13.4058 24.2915 13.3985 25.4158C13.3888 26.7313 14.3143 27.0762 14.8061 27.0508Z" fill="white"/></g><path d="M12.7979 19.3077C12.8051 19.5122 12.9827 21.1993 13.147 21.3651C13.3114 21.5309 13.9928 21.8238 14.5075 21.9012C15.1901 22.0029 16.1192 21.7439 16.4805 21.468C16.8417 21.192 17.0604 19.2339 16.9638 19.1443C16.8671 19.0547 15.7483 18.5114 14.9328 18.5114C13.9698 18.5174 12.7918 19.1225 12.7979 19.3077Z" fill="#37474F"/><path d="M13.0962 21.2114C13.3521 21.3414 13.6165 21.4538 13.8876 21.5479C14.1581 21.6494 14.4444 21.7026 14.7333 21.7052C15.0188 21.6961 15.3024 21.6555 15.579 21.5842C15.8579 21.5163 16.1326 21.4322 16.4018 21.3324C16.1354 21.4406 15.8617 21.5295 15.5827 21.5987C15.3037 21.6704 15.0176 21.711 14.7297 21.7197C14.4403 21.714 14.1541 21.6579 13.8839 21.5539C13.6123 21.4619 13.3488 21.3474 13.0962 21.2114Z" fill="#263238"/><path d="M13.0576 20.99C13.3244 21.126 13.6001 21.2436 13.8828 21.3422C14.1634 21.4462 14.4596 21.5015 14.7588 21.5056C15.0575 21.4979 15.3545 21.4573 15.6444 21.3845C15.9351 21.3129 16.2215 21.2249 16.5022 21.1207C16.2246 21.2341 15.9391 21.3271 15.648 21.399C15.3573 21.4752 15.0591 21.519 14.7588 21.5298C14.4575 21.5231 14.1597 21.465 13.878 21.3579C13.595 21.2578 13.3207 21.1347 13.0576 20.99Z" fill="#263238"/><path d="M13.0264 20.7806C13.3027 20.9214 13.5886 21.0428 13.8818 21.1437C14.172 21.2516 14.4784 21.3089 14.7879 21.3131C15.0977 21.3046 15.4057 21.262 15.7062 21.1861C16.0069 21.1117 16.3034 21.0208 16.5942 20.9138C16.3064 21.0298 16.0109 21.1257 15.7098 21.2006C15.4084 21.2795 15.0992 21.325 14.7879 21.3361C14.4764 21.3293 14.1682 21.2692 13.8769 21.1582C13.5837 21.0556 13.2993 20.9293 13.0264 20.7806Z" fill="#263238"/><path d="M13.0542 20.5894C13.3307 20.7299 13.6165 20.8513 13.9096 20.9524C14.1998 21.0603 14.5063 21.1176 14.8158 21.1219C15.1253 21.1153 15.4333 21.0747 15.734 21.0008C16.035 20.9267 16.3315 20.8354 16.622 20.7273C16.3344 20.8443 16.0389 20.9406 15.7376 21.0154C15.4361 21.0938 15.127 21.1392 14.8158 21.1509C14.5042 21.1441 14.1961 21.0839 13.9048 20.973C13.6114 20.8684 13.3269 20.7401 13.0542 20.5894Z" fill="#263238"/><path d="M13.0239 20.3643C13.3098 20.5101 13.6053 20.6363 13.9083 20.7419C14.2088 20.8542 14.5264 20.9135 14.8471 20.9173C15.1676 20.9091 15.4861 20.8649 15.7967 20.7854C16.1089 20.7096 16.4163 20.6155 16.7174 20.5034C16.419 20.624 16.1126 20.7235 15.8004 20.8012C15.4887 20.8826 15.169 20.9293 14.8471 20.9403C14.5243 20.9346 14.2049 20.8723 13.9035 20.7564C13.6002 20.6496 13.3061 20.5185 13.0239 20.3643Z" fill="#263238"/><path d="M12.9731 20.1222C13.2667 20.2725 13.5703 20.4023 13.8817 20.5107C14.191 20.6266 14.5181 20.6877 14.8483 20.691C15.1777 20.6828 15.5052 20.6373 15.8245 20.5555C16.1447 20.4771 16.4601 20.3805 16.7693 20.2662C16.463 20.3896 16.1485 20.4915 15.8281 20.5712C15.5078 20.6551 15.1792 20.703 14.8483 20.714C14.5176 20.7075 14.1906 20.6436 13.8817 20.5252C13.5683 20.4161 13.2644 20.2813 12.9731 20.1222Z" fill="#263238"/><path d="M12.9331 19.8936C13.2381 20.0496 13.5534 20.1847 13.8767 20.2978C14.1973 20.4173 14.5362 20.4804 14.8783 20.4842C15.2204 20.4756 15.5604 20.4285 15.892 20.3438C16.2244 20.2634 16.5516 20.1627 16.8718 20.0424C16.5543 20.1711 16.2281 20.277 15.8956 20.3595C15.563 20.4461 15.2218 20.4956 14.8783 20.5071C14.534 20.501 14.1934 20.4347 13.8719 20.3111C13.548 20.1981 13.234 20.0585 12.9331 19.8936Z" fill="#263238"/><path d="M12.8799 19.6708C13.1919 19.8318 13.5149 19.9705 13.8464 20.0859C14.1757 20.2098 14.5241 20.2749 14.8758 20.2783C15.2268 20.269 15.5757 20.2207 15.9161 20.1343C16.2576 20.0503 16.594 19.9469 16.9237 19.8245C16.5971 19.9561 16.2616 20.0645 15.9197 20.1488C15.5786 20.2388 15.2284 20.2899 14.8758 20.3013C14.5221 20.2949 14.1721 20.2269 13.8416 20.1004C13.5098 19.9838 13.1882 19.8401 12.8799 19.6708Z" fill="#263238"/><path d="M23.1123 19.6187C23.1123 19.5933 23.6306 19.4977 24.1224 19.4215C24.3802 19.3786 24.6179 19.2554 24.8018 19.0694C24.9858 18.8834 25.1065 18.6441 25.1469 18.3855L25.8138 14.0843C25.8567 13.8062 25.804 13.5217 25.6644 13.2774C25.5248 13.0332 25.3066 12.8436 25.0454 12.7397L23.6777 12.1879L23.1123 19.6187Z" fill="#FBBA96"/><g opacity="0.2"><path d="M23.1123 19.6187C23.1123 19.5933 23.6306 19.4977 24.1224 19.4215C24.3802 19.3786 24.6179 19.2554 24.8018 19.0694C24.9858 18.8834 25.1065 18.6441 25.1469 18.3855L25.8138 14.0843C25.8567 13.8062 25.804 13.5217 25.6644 13.2774C25.5248 13.0332 25.3066 12.8436 25.0454 12.7397L23.6777 12.1879L23.1123 19.6187Z" fill="black"/></g><path d="M6.86932 19.4736C6.86932 19.4481 6.34858 19.3755 5.85322 19.3114C5.5939 19.2775 5.35187 19.1626 5.1616 18.9828C4.97134 18.8031 4.84257 18.5678 4.79363 18.3105L3.9793 14.0347C3.92702 13.7589 3.9695 13.4735 4.09981 13.225C4.23013 12.9764 4.4406 12.7794 4.69697 12.666L6.04532 12.0669L6.86932 19.4736Z" fill="#FBBA96"/><g opacity="0.2"><path d="M6.86932 19.4736C6.86932 19.4481 6.34858 19.3755 5.85322 19.3114C5.5939 19.2775 5.35187 19.1626 5.1616 18.9828C4.97134 18.8031 4.84257 18.5678 4.79363 18.3105L3.9793 14.0347C3.92702 13.7589 3.9695 13.4735 4.09981 13.225C4.23013 12.9764 4.4406 12.7794 4.69697 12.666L6.04532 12.0669L6.86932 19.4736Z" fill="black"/></g><path d="M23.1486 20.6753C23.1486 20.6753 24.1381 15.245 24.2831 6.74066C24.2831 6.74066 14.0399 5.14073 5.67676 6.64384C5.67676 6.64384 6.05251 17.4004 6.75206 20.4127C6.75447 20.4127 15.3037 20.8617 23.1486 20.6753Z" fill="#FBBA96"/><path opacity="0.1" d="M14.4884 6.0072C14.4884 7.22228 14.4936 8.43736 14.5041 9.65244L14.5415 13.2965L14.5826 13.2517L10.4578 13.553L8.39541 13.7079L6.33301 13.8774L8.39782 13.7564L10.4626 13.6232L14.5887 13.3449H14.6309V13.3037L14.5705 9.65849C14.5464 8.43857 14.519 7.22147 14.4884 6.0072Z" fill="black"/><path opacity="0.1" d="M15.061 6.55546C15.0936 6.55754 15.1254 6.56646 15.1544 6.58166C15.1833 6.59685 15.2088 6.61797 15.2291 6.64364C15.2493 6.66932 15.264 6.69898 15.2721 6.7307C15.2802 6.76242 15.2815 6.79549 15.2761 6.82776C15.2705 6.86068 15.2581 6.89208 15.2398 6.91999C15.2215 6.94789 15.1977 6.97171 15.1697 6.98993C15.1425 7.00648 15.1122 7.01746 15.0807 7.02223C15.0492 7.02701 15.017 7.02549 14.9861 7.01777C14.931 7.00159 14.8837 6.96581 14.853 6.91714C14.8224 6.86847 14.8106 6.81027 14.8198 6.75349C14.829 6.6967 14.8586 6.64524 14.903 6.60877C14.9474 6.5723 15.0036 6.55334 15.061 6.55546ZM14.858 6.90643C14.8749 6.92609 14.8956 6.94212 14.9189 6.95356C14.9421 6.965 14.9675 6.97161 14.9933 6.97299C15.0399 6.97528 15.0857 6.96029 15.122 6.9309C15.1582 6.90151 15.1824 6.85977 15.1899 6.81366C15.1973 6.76754 15.1876 6.72029 15.1625 6.68092C15.1374 6.64155 15.0987 6.61283 15.0538 6.60024C15.0288 6.59323 15.0026 6.59133 14.9769 6.59465C14.9511 6.59798 14.9263 6.60646 14.9039 6.6196C14.8809 6.63457 14.8612 6.65411 14.8461 6.677C14.8309 6.6999 14.8206 6.72567 14.8157 6.75273C14.8116 6.77988 14.8132 6.80762 14.8205 6.83411C14.8278 6.8606 14.8406 6.88524 14.858 6.90643Z" fill="black"/><path opacity="0.1" d="M15.0331 8.05255C15.0649 8.05449 15.0959 8.06303 15.1242 8.07761C15.1525 8.09219 15.1774 8.11251 15.1975 8.13726C15.2186 8.16295 15.2341 8.19285 15.2428 8.22498C15.2516 8.25712 15.2534 8.29075 15.2482 8.32364C15.2432 8.35598 15.2314 8.3869 15.2137 8.4144C15.196 8.4419 15.1728 8.46537 15.1454 8.48328C15.1181 8.5012 15.0873 8.51316 15.055 8.51839C15.0228 8.52362 14.9898 8.522 14.9582 8.51365C14.9022 8.49855 14.8537 8.46314 14.8222 8.41429C14.7907 8.36543 14.7784 8.3066 14.7877 8.2492C14.7971 8.1918 14.8273 8.1399 14.8727 8.10357C14.918 8.06724 14.9752 8.04906 15.0331 8.05255ZM14.829 8.40352C14.8482 8.42597 14.8724 8.4436 14.8996 8.45503C14.9269 8.46646 14.9564 8.47135 14.9859 8.46933C15.0153 8.46731 15.0439 8.45842 15.0694 8.44337C15.0948 8.42833 15.1164 8.40754 15.1324 8.38267C15.1483 8.3578 15.1583 8.32954 15.1615 8.30012C15.1647 8.27071 15.1609 8.24096 15.1506 8.21325C15.1402 8.18554 15.1236 8.16063 15.1019 8.1405C15.0803 8.12038 15.0542 8.10559 15.0259 8.09733C14.9866 8.08589 14.9448 8.08745 14.9065 8.10178C14.8682 8.11611 14.8356 8.14245 14.8134 8.17686C14.7913 8.21127 14.7809 8.25193 14.7836 8.29277C14.7864 8.33361 14.8023 8.37245 14.829 8.40352Z" fill="black"/><path opacity="0.1" d="M15.0393 9.63908C15.0711 9.64156 15.1021 9.65032 15.1305 9.66486C15.1589 9.6794 15.1842 9.69943 15.2048 9.7238C15.2255 9.74995 15.2406 9.78012 15.2492 9.8124C15.2577 9.84469 15.2594 9.87839 15.2543 9.91139C15.2487 9.9443 15.2364 9.9757 15.2181 10.0036C15.1998 10.0315 15.1759 10.0553 15.148 10.0736C15.1166 10.0928 15.0812 10.1045 15.0445 10.1075C15.0078 10.1105 14.971 10.1048 14.9369 10.0909C14.9028 10.0769 14.8725 10.0552 14.8484 10.0273C14.8242 9.99946 14.807 9.96631 14.7981 9.93055C14.7891 9.89479 14.7887 9.85742 14.7968 9.82147C14.805 9.78552 14.8215 9.75199 14.845 9.72361C14.8684 9.69523 14.8983 9.67279 14.932 9.6581C14.9658 9.64342 15.0025 9.6369 15.0393 9.63908ZM14.8351 9.99005C14.8523 10.0096 14.8733 10.0256 14.8967 10.037C14.9201 10.0485 14.9456 10.0551 14.9716 10.0566C15.0182 10.0589 15.064 10.0439 15.1002 10.0145C15.1365 9.98513 15.1607 9.94339 15.1681 9.89728C15.1756 9.85117 15.1659 9.80392 15.1408 9.76455C15.1156 9.72518 15.0769 9.69646 15.032 9.68386C15.007 9.67703 14.9808 9.67533 14.955 9.67887C14.9293 9.6824 14.9045 9.6911 14.8822 9.70444C14.8588 9.71863 14.8387 9.73779 14.8235 9.76059C14.8083 9.78338 14.7982 9.80924 14.794 9.83635C14.7896 9.86342 14.791 9.89113 14.7981 9.91762C14.8051 9.94412 14.8178 9.96881 14.8351 9.99005Z" fill="black"/><path opacity="0.1" d="M15.0453 11.227C15.0781 11.229 15.11 11.2378 15.1391 11.2529C15.1682 11.268 15.1938 11.289 15.2143 11.3147C15.2348 11.3403 15.2497 11.37 15.258 11.4017C15.2663 11.4335 15.2679 11.4667 15.2626 11.4991C15.2573 11.5315 15.2454 11.5624 15.2274 11.5899C15.2095 11.6174 15.186 11.6408 15.1584 11.6586C15.1309 11.6764 15.0999 11.6882 15.0675 11.6933C15.0352 11.6984 15.0021 11.6966 14.9704 11.6881C14.9143 11.673 14.8659 11.6376 14.8344 11.5887C14.8029 11.5399 14.7906 11.481 14.7999 11.4236C14.8092 11.3662 14.8395 11.3143 14.8848 11.278C14.9302 11.2417 14.9874 11.2235 15.0453 11.227ZM14.8424 11.578C14.8593 11.5976 14.88 11.6136 14.9032 11.6251C14.9265 11.6365 14.9518 11.6431 14.9777 11.6445C15.0243 11.6468 15.07 11.6318 15.1063 11.6024C15.1425 11.573 15.1667 11.5313 15.1742 11.4852C15.1817 11.4391 15.1719 11.3918 15.1468 11.3525C15.1217 11.3131 15.083 11.2844 15.0381 11.2718C15.0131 11.2648 14.9869 11.2629 14.9612 11.2662C14.9355 11.2695 14.9107 11.278 14.8883 11.2911C14.8651 11.3059 14.8453 11.3254 14.8301 11.3483C14.8149 11.3713 14.8047 11.3971 14.8001 11.4243C14.7959 11.4514 14.7975 11.4791 14.8048 11.5056C14.8121 11.5321 14.8249 11.5568 14.8424 11.578Z" fill="black"/><path opacity="0.1" d="M13.7731 13.5506C13.8058 13.5526 13.8377 13.5614 13.8668 13.5765C13.8959 13.5916 13.9216 13.6127 13.942 13.6383C13.9625 13.6639 13.9774 13.6936 13.9857 13.7253C13.994 13.7571 13.9956 13.7903 13.9904 13.8227C13.9851 13.8551 13.9731 13.886 13.9552 13.9135C13.9372 13.941 13.9137 13.9644 13.8862 13.9822C13.8586 14 13.8277 14.0118 13.7953 14.0169C13.7629 14.022 13.7298 14.0202 13.6982 14.0117C13.6421 13.9966 13.5936 13.9612 13.5621 13.9123C13.5306 13.8635 13.5183 13.8047 13.5277 13.7472C13.537 13.6898 13.5672 13.6379 13.6126 13.6016C13.6579 13.5653 13.7151 13.5471 13.7731 13.5506ZM13.5677 13.9016C13.587 13.9233 13.6112 13.9403 13.6382 13.9511C13.6652 13.962 13.6943 13.9665 13.7233 13.9642C13.7523 13.9618 13.7804 13.9528 13.8053 13.9379C13.8303 13.9229 13.8514 13.9023 13.8671 13.8778C13.8828 13.8532 13.8926 13.8254 13.8957 13.7964C13.8989 13.7674 13.8953 13.7381 13.8853 13.7108C13.8752 13.6834 13.859 13.6588 13.8379 13.6387C13.8167 13.6187 13.7912 13.6039 13.7634 13.5954C13.7384 13.5884 13.7123 13.5865 13.6865 13.5898C13.6608 13.5931 13.636 13.6016 13.6136 13.6147C13.5902 13.6293 13.5703 13.6487 13.5551 13.6716C13.5399 13.6945 13.5297 13.7205 13.5254 13.7477C13.521 13.7749 13.5225 13.8027 13.5298 13.8292C13.5371 13.8558 13.55 13.8804 13.5677 13.9016Z" fill="black"/><path opacity="0.1" d="M12.2592 13.6692C12.3067 13.6713 12.3524 13.6878 12.3903 13.7165C12.4282 13.7452 12.4565 13.7847 12.4715 13.8299C12.4864 13.8751 12.4873 13.9238 12.474 13.9694C12.4607 14.0151 12.4339 14.0557 12.3971 14.0858C12.3602 14.1159 12.3151 14.134 12.2678 14.1378C12.2204 14.1416 12.173 14.1309 12.1319 14.1072C12.0907 14.0834 12.0577 14.0476 12.0373 14.0046C12.0169 13.9617 12.01 13.9135 12.0176 13.8665C12.0281 13.8103 12.0582 13.7597 12.1024 13.7236C12.1466 13.6875 12.2022 13.6682 12.2592 13.6692ZM12.055 14.0202C12.0722 14.0399 12.0931 14.0559 12.1165 14.0674C12.14 14.0788 12.1655 14.0854 12.1915 14.0868C12.2381 14.089 12.2839 14.0741 12.3202 14.0447C12.3564 14.0153 12.3806 13.9735 12.3881 13.9274C12.3955 13.8813 12.3858 13.8341 12.3607 13.7947C12.3356 13.7553 12.2969 13.7266 12.252 13.714C12.2127 13.7026 12.1708 13.7041 12.1326 13.7185C12.0943 13.7328 12.0616 13.7591 12.0395 13.7935C12.0174 13.828 12.0069 13.8686 12.0097 13.9094C12.0125 13.9503 12.0284 13.9891 12.055 14.0202Z" fill="black"/><path opacity="0.1" d="M10.7439 13.7891C10.7758 13.7912 10.807 13.7998 10.8354 13.8143C10.8639 13.8289 10.8891 13.8491 10.9095 13.8738C10.9304 13.8999 10.9457 13.93 10.9545 13.9623C10.9632 13.9946 10.9651 14.0283 10.9602 14.0614C10.955 14.0938 10.9432 14.1247 10.9253 14.1522C10.9075 14.1797 10.8841 14.2032 10.8567 14.2211C10.8293 14.239 10.7984 14.2509 10.7661 14.2562C10.7337 14.2614 10.7007 14.2598 10.669 14.2514C10.6139 14.2352 10.5666 14.1994 10.536 14.1508C10.5053 14.1021 10.4935 14.0439 10.5027 13.9871C10.5119 13.9303 10.5415 13.8789 10.5859 13.8424C10.6304 13.8059 10.6865 13.787 10.7439 13.7891ZM10.541 14.1401C10.5602 14.1627 10.5844 14.1804 10.6117 14.1919C10.6391 14.2034 10.6687 14.2084 10.6982 14.2063C10.7278 14.2043 10.7565 14.1954 10.782 14.1803C10.8075 14.1651 10.8291 14.1442 10.845 14.1192C10.861 14.0942 10.8709 14.0658 10.874 14.0363C10.877 14.0068 10.8731 13.977 10.8626 13.9492C10.8521 13.9215 10.8352 13.8966 10.8133 13.8766C10.7915 13.8565 10.7652 13.8419 10.7367 13.8339C10.6975 13.8228 10.6559 13.8247 10.6179 13.8392C10.5798 13.8537 10.5475 13.88 10.5255 13.9143C10.5036 13.9486 10.4933 13.9891 10.496 14.0297C10.4988 14.0704 10.5146 14.1091 10.541 14.1401Z" fill="black"/><path opacity="0.1" d="M9.23013 13.9089C9.26285 13.9108 9.29479 13.9197 9.3239 13.9348C9.353 13.9499 9.37862 13.9709 9.3991 13.9966C9.41957 14.0222 9.43445 14.0519 9.44278 14.0836C9.4511 14.1154 9.45268 14.1485 9.44741 14.1809C9.44215 14.2134 9.43016 14.2443 9.41221 14.2718C9.39427 14.2992 9.37076 14.3226 9.34323 14.3405C9.31569 14.3583 9.28473 14.3701 9.25235 14.3752C9.21996 14.3803 9.18688 14.3785 9.15522 14.37C9.09915 14.3549 9.05067 14.3195 9.01917 14.2706C8.98767 14.2218 8.97539 14.1629 8.98472 14.1055C8.99404 14.0481 9.02431 13.9962 9.06965 13.9599C9.11499 13.9236 9.17217 13.9054 9.23013 13.9089ZM9.02715 14.2598C9.04406 14.2795 9.06476 14.2955 9.08802 14.307C9.11127 14.3184 9.1366 14.325 9.16247 14.3264C9.2123 14.3338 9.26301 14.321 9.30346 14.291C9.3439 14.2609 9.37076 14.216 9.37813 14.166C9.3855 14.1161 9.37278 14.0653 9.34276 14.0248C9.31273 13.9843 9.26787 13.9574 9.21805 13.95C9.19306 13.943 9.16691 13.9411 9.14117 13.9444C9.11543 13.9478 9.09063 13.9562 9.06823 13.9694C9.04507 13.9842 9.02526 14.0037 9.01007 14.0266C8.99488 14.0495 8.98465 14.0754 8.98003 14.1025C8.97598 14.1306 8.97809 14.1592 8.98623 14.1864C8.99437 14.2136 9.00834 14.2386 9.02715 14.2598Z" fill="black"/><path opacity="0.1" d="M7.69818 14.0262C7.73006 14.0262 7.76164 14.0325 7.79108 14.0448C7.82053 14.057 7.84726 14.075 7.86974 14.0976C7.89187 14.1223 7.90872 14.1512 7.91924 14.1826C7.92976 14.214 7.93373 14.2473 7.9309 14.2803C7.92806 14.3133 7.9185 14.3454 7.90278 14.3746C7.88707 14.4037 7.86554 14.4293 7.83954 14.4498C7.80979 14.4718 7.77527 14.4865 7.73879 14.4926C7.70231 14.4987 7.66491 14.4961 7.62964 14.4849C7.59437 14.4738 7.56224 14.4544 7.53587 14.4284C7.5095 14.4025 7.48964 14.3706 7.47791 14.3355C7.46619 14.3003 7.46293 14.2629 7.4684 14.2263C7.47388 14.1896 7.48793 14.1548 7.50941 14.1247C7.53089 14.0945 7.5592 14.0699 7.592 14.0528C7.62481 14.0356 7.66119 14.0266 7.69818 14.0262ZM7.52178 14.3893C7.55972 14.4258 7.61053 14.4458 7.66314 14.445C7.69973 14.4439 7.73524 14.4323 7.76537 14.4115C7.79551 14.3906 7.81898 14.3615 7.83296 14.3276C7.84694 14.2937 7.85083 14.2565 7.84416 14.2204C7.83749 14.1844 7.82055 14.151 7.79537 14.1244C7.7702 14.0978 7.73787 14.079 7.70229 14.0704C7.66671 14.0618 7.62939 14.0636 7.59485 14.0758C7.5603 14.0879 7.53 14.1098 7.5076 14.1388C7.4852 14.1678 7.47166 14.2027 7.46862 14.2392C7.46678 14.2673 7.47102 14.2955 7.48102 14.3218C7.49103 14.3481 7.50658 14.372 7.52661 14.3917L7.52178 14.3893Z" fill="black"/><path opacity="0.1" d="M15.0515 12.8136C15.0833 12.8161 15.1143 12.8249 15.1427 12.8394C15.1711 12.854 15.1964 12.874 15.217 12.8984C15.2383 12.9243 15.2538 12.9544 15.2625 12.9868C15.2712 13.0191 15.2729 13.053 15.2675 13.0861C15.2622 13.1192 15.2498 13.1508 15.2313 13.1787C15.2128 13.2066 15.1886 13.2303 15.1602 13.2481C15.1289 13.2674 15.0934 13.279 15.0567 13.282C15.02 13.285 14.9832 13.2793 14.9491 13.2654C14.915 13.2515 14.8847 13.2297 14.8606 13.2019C14.8364 13.174 14.8192 13.1409 14.8103 13.1051C14.8013 13.0694 14.8009 13.032 14.809 12.996C14.8172 12.9601 14.8337 12.9266 14.8572 12.8982C14.8807 12.8698 14.9105 12.8473 14.9442 12.8327C14.978 12.818 15.0147 12.8115 15.0515 12.8136ZM14.8485 13.1646C14.8719 13.1922 14.9027 13.2124 14.9372 13.2229C14.9717 13.2335 15.0085 13.2339 15.0433 13.224C15.078 13.2142 15.1092 13.1946 15.1332 13.1676C15.1571 13.1405 15.1728 13.1071 15.1783 13.0714C15.1838 13.0359 15.1791 12.9995 15.1647 12.9666C15.1503 12.9336 15.1269 12.9054 15.0972 12.8852C15.0674 12.8651 15.0326 12.8538 14.9967 12.8527C14.9608 12.8516 14.9253 12.8607 14.8944 12.879C14.8711 12.8934 14.8512 12.9127 14.836 12.9355C14.8207 12.9584 14.8106 12.9842 14.8063 13.0113C14.8019 13.0384 14.8034 13.0661 14.8107 13.0926C14.818 13.119 14.8309 13.1436 14.8485 13.1646Z" fill="black"/><path d="M22.0396 19.7676C22.0396 19.7676 22.8914 15.3115 23.0171 7.9448C23.0171 7.9448 12.7897 6.63895 6.90088 7.86129C6.90088 7.86129 7.23072 16.9296 7.83723 19.5389C7.83723 19.5389 15.2435 19.9286 22.0396 19.7676Z" fill="#37474F"/><path d="M6.91162 8.15176C6.97445 9.72507 7.29583 17.208 7.8371 19.5389C7.8371 19.5389 14.9582 19.9141 21.642 19.7809C21.7737 19.0354 22.4672 14.8395 22.5723 8.30909C22.5723 8.30425 12.7617 7.05165 6.91162 8.15176Z" fill="#263238"/><path d="M15.5928 7.74996L11.8413 7.71002C12.0334 7.71002 12.2255 7.70276 12.4176 7.70155C13.2634 7.69186 14.1091 7.70155 14.9258 7.72817C15.1494 7.73422 15.3729 7.74269 15.5928 7.74996Z" fill="#455A64"/><path d="M20.1388 8.04889L8.45312 7.92786L8.57395 7.91455L8.70443 7.90002L19.7583 8.02105H19.7655L19.9588 8.03799L20.1388 8.04889Z" fill="#455A64"/><path d="M22.5723 8.30429V8.32486L6.91162 8.15543L6.9672 8.14575C6.99499 8.14575 7.02157 8.13486 7.04935 8.13123L22.4853 8.29703L22.5723 8.30429Z" fill="#455A64"/><path d="M22.5685 8.54383C22.5673 8.54901 22.5673 8.5544 22.5685 8.55957C22.5679 8.56439 22.5679 8.56927 22.5685 8.57409L6.92232 8.40587C6.92173 8.40104 6.92173 8.39617 6.92232 8.39134V8.37561L22.5685 8.54383Z" fill="#455A64"/><path d="M22.5626 8.79322V8.82348L6.93213 8.65526V8.64073C6.93213 8.64073 6.93213 8.62984 6.93213 8.625L22.5626 8.79322Z" fill="#455A64"/><path d="M22.5577 9.04249V9.05701C22.5571 9.06224 22.5571 9.06752 22.5577 9.07275L6.94527 8.90452C6.94468 8.8997 6.94468 8.89482 6.94527 8.89C6.94472 8.88477 6.94472 8.8795 6.94527 8.87427L22.5577 9.04249Z" fill="#455A64"/><path d="M22.552 9.29188V9.3064C22.5514 9.31163 22.5514 9.31691 22.552 9.32214L6.95651 9.15391C6.95592 9.14909 6.95592 9.14421 6.95651 9.13939C6.9559 9.13416 6.9559 9.12888 6.95651 9.12366L22.552 9.29188Z" fill="#455A64"/><path d="M22.5446 9.54116V9.55568C22.5453 9.56091 22.5453 9.56619 22.5446 9.57141L6.96729 9.4044C6.96729 9.39835 6.96729 9.39351 6.96729 9.38867V9.37415L22.5446 9.54116Z" fill="#455A64"/><path d="M22.5372 9.79043V9.80495C22.5366 9.81018 22.5366 9.81546 22.5372 9.82068L6.97799 9.65367C6.97739 9.64844 6.97739 9.64316 6.97799 9.63794C6.97799 9.63794 6.97799 9.62825 6.97799 9.62341L22.5372 9.79043Z" fill="#455A64"/><path d="M22.5286 10.0397V10.0542C22.5292 10.0594 22.5292 10.0647 22.5286 10.07L6.99117 9.90294C6.99057 9.89771 6.99057 9.89243 6.99117 9.8872C6.99058 9.88238 6.99058 9.8775 6.99117 9.87268L22.5286 10.0397Z" fill="#455A64"/><path d="M22.5203 10.2891V10.3048C22.5203 10.3048 22.5203 10.3145 22.5203 10.3193L7.00338 10.1523C7.00278 10.1475 7.00278 10.1426 7.00338 10.1378C7.00278 10.1326 7.00278 10.1273 7.00338 10.1221L22.5203 10.2891Z" fill="#455A64"/><path d="M22.5081 10.5384V10.5541C22.5087 10.5589 22.5087 10.5638 22.5081 10.5686L7.01172 10.4028V10.3871C7.01172 10.3871 7.01172 10.3774 7.01172 10.3726L22.5081 10.5384Z" fill="#455A64"/><path d="M22.5008 10.7876V10.8034C22.5008 10.8034 22.5008 10.813 22.5008 10.8179L7.02734 10.6521C7.02734 10.6521 7.02734 10.6412 7.02734 10.6363C7.02794 10.6315 7.02794 10.6266 7.02734 10.6218L22.5008 10.7876Z" fill="#455A64"/><path d="M22.491 11.037C22.4904 11.0422 22.4904 11.0475 22.491 11.0528V11.0673L7.04293 10.9015C7.04233 10.8962 7.04233 10.891 7.04293 10.8857C7.04293 10.8857 7.04293 10.8761 7.04293 10.8712L22.491 11.037Z" fill="#455A64"/><path d="M22.4795 11.2875V11.3032C22.4789 11.3081 22.4789 11.3129 22.4795 11.3178L7.05315 11.152V11.1374C7.0526 11.1322 7.0526 11.1269 7.05315 11.1217L22.4795 11.2875Z" fill="#455A64"/><path d="M22.4686 11.5356C22.468 11.5408 22.468 11.5461 22.4686 11.5513C22.468 11.5561 22.468 11.561 22.4686 11.5658L7.06641 11.4V11.3855C7.06641 11.3855 7.06641 11.3746 7.06641 11.3698L22.4686 11.5356Z" fill="#455A64"/><path d="M22.4551 11.785V11.8007C22.4545 11.8055 22.4545 11.8104 22.4551 11.8152L7.07956 11.6506C7.07895 11.6458 7.07895 11.6409 7.07956 11.6361C7.07896 11.6309 7.07896 11.6256 7.07956 11.6204L22.4551 11.785Z" fill="#455A64"/><path d="M22.4418 12.0354C22.4424 12.0403 22.4424 12.0451 22.4418 12.05V12.0657L7.09761 11.8999V11.8842C7.09702 11.8793 7.09702 11.8745 7.09761 11.8696L22.4418 12.0354Z" fill="#455A64"/><path d="M22.4284 12.2847C22.4278 12.2895 22.4278 12.2944 22.4284 12.2992V12.3137L7.1084 12.1492C7.10899 12.1443 7.10899 12.1395 7.1084 12.1346V12.1189L22.4284 12.2847Z" fill="#455A64"/><path d="M22.4143 12.5329C22.4143 12.5329 22.4143 12.5438 22.4143 12.5486V12.5631L7.12447 12.3985C7.12388 12.3937 7.12388 12.3888 7.12447 12.384C7.12387 12.3788 7.12387 12.3735 7.12447 12.3683L22.4143 12.5329Z" fill="#455A64"/><path d="M22.398 12.7822C22.3986 12.787 22.3986 12.7919 22.398 12.7967V12.8124L7.13721 12.649V12.6333C7.13721 12.6333 7.13721 12.6236 7.13721 12.6188L22.398 12.7822Z" fill="#455A64"/><path d="M22.3874 13.0314C22.388 13.0362 22.388 13.0411 22.3874 13.0459C22.388 13.0512 22.388 13.0565 22.3874 13.0617L7.16406 12.8983C7.16471 12.8931 7.16471 12.8878 7.16406 12.8826C7.16466 12.8777 7.16466 12.8729 7.16406 12.868L22.3874 13.0314Z" fill="#455A64"/><path d="M22.3656 13.2808V13.2953C22.365 13.3006 22.365 13.3058 22.3656 13.3111L7.16403 13.1477C7.16342 13.1425 7.16342 13.1372 7.16403 13.132C7.16344 13.1271 7.16344 13.1223 7.16403 13.1174L22.3656 13.2808Z" fill="#455A64"/><path d="M22.3485 13.5301C22.3485 13.5301 22.3485 13.541 22.3485 13.5458C22.3491 13.5506 22.3491 13.5555 22.3485 13.5603L7.18555 13.397C7.1861 13.3917 7.1861 13.3865 7.18555 13.3812V13.3667L22.3485 13.5301Z" fill="#455A64"/><path d="M22.3305 13.7793C22.3311 13.7846 22.3311 13.7899 22.3305 13.7951C22.3311 13.7999 22.3311 13.8048 22.3305 13.8096L7.20015 13.6462C7.19956 13.6414 7.19956 13.6365 7.20015 13.6317C7.20015 13.6317 7.20015 13.6208 7.20015 13.616L22.3305 13.7793Z" fill="#455A64"/><path d="M22.3116 14.0286V14.0444C22.311 14.0492 22.311 14.0541 22.3116 14.0589L7.21875 13.8967C7.21875 13.8967 7.21875 13.8858 7.21875 13.881C7.21875 13.8761 7.21875 13.8713 7.21875 13.8665L22.3116 14.0286Z" fill="#455A64"/><path d="M22.2917 14.278C22.2923 14.2828 22.2923 14.2877 22.2917 14.2925C22.2923 14.2978 22.2923 14.303 22.2917 14.3083L7.23633 14.1461C7.23688 14.1409 7.23688 14.1356 7.23633 14.1304V14.1158L22.2917 14.278Z" fill="#455A64"/><path d="M22.2723 14.5261C22.2723 14.5261 22.2723 14.537 22.2723 14.5418C22.2723 14.5466 22.2723 14.5515 22.2723 14.5563L7.25439 14.3954C7.25439 14.3954 7.25439 14.3857 7.25439 14.3808C7.25439 14.376 7.25439 14.3712 7.25439 14.3651L22.2723 14.5261Z" fill="#455A64"/><path d="M22.2522 14.7755C22.2522 14.7755 22.2522 14.7864 22.2522 14.7912C22.2516 14.796 22.2516 14.8009 22.2522 14.8057L7.27051 14.6448C7.27051 14.6448 7.27051 14.6351 7.27051 14.6302C7.27111 14.625 7.27111 14.6197 7.27051 14.6145L22.2522 14.7755Z" fill="#455A64"/><path d="M22.2301 15.0247C22.2306 15.03 22.2306 15.0352 22.2301 15.0405C22.2313 15.0452 22.2313 15.0502 22.2301 15.055L7.28467 14.894C7.28526 14.8892 7.28526 14.8843 7.28467 14.8795C7.28527 14.8743 7.28527 14.869 7.28467 14.8638L22.2301 15.0247Z" fill="#455A64"/><path d="M22.2072 15.2813C22.2078 15.2861 22.2078 15.291 22.2072 15.2958C22.2072 15.2958 22.2072 15.3067 22.2072 15.3116L7.31006 15.1506C7.31065 15.1458 7.31065 15.1409 7.31006 15.1361C7.31061 15.1309 7.31061 15.1256 7.31006 15.1204L22.2072 15.2813Z" fill="#455A64"/><path d="M22.1847 15.5234C22.1847 15.5234 22.1847 15.5331 22.1847 15.5379C22.1847 15.5428 22.1847 15.5488 22.1847 15.5536L7.33105 15.3927C7.33105 15.3927 7.33105 15.383 7.33105 15.3782C7.33105 15.3733 7.33105 15.3673 7.33105 15.3624L22.1847 15.5234Z" fill="#455A64"/><path d="M22.16 15.7727C22.1606 15.7779 22.1606 15.7832 22.16 15.7884C22.16 15.7884 22.16 15.7981 22.16 15.8029L7.34863 15.6444C7.34863 15.6444 7.34863 15.6347 7.34863 15.6299C7.34863 15.625 7.34863 15.6202 7.34863 15.6141L22.16 15.7727Z" fill="#455A64"/><path d="M22.136 16.0219C22.136 16.0219 22.136 16.0316 22.136 16.0365C22.1354 16.0417 22.1354 16.047 22.136 16.0522L7.37301 15.8937C7.37241 15.8884 7.37241 15.8832 7.37301 15.8779C7.37241 15.8731 7.37241 15.8682 7.37301 15.8634L22.136 16.0219Z" fill="#455A64"/><path d="M22.1109 16.2712C22.1109 16.2712 22.1109 16.2809 22.1109 16.2857C22.1109 16.2906 22.1109 16.2966 22.1109 16.3015L7.39502 16.1429C7.39562 16.1377 7.39562 16.1324 7.39502 16.1272C7.39561 16.1224 7.39561 16.1175 7.39502 16.1127L22.1109 16.2712Z" fill="#455A64"/><path d="M22.0829 16.5205C22.0835 16.5253 22.0835 16.5302 22.0829 16.535C22.0829 16.535 22.0829 16.5459 22.0829 16.5507L7.4165 16.3934C7.41715 16.3882 7.41715 16.3829 7.4165 16.3777C7.4165 16.3777 7.4165 16.368 7.4165 16.3632L22.0829 16.5205Z" fill="#455A64"/><path d="M22.0562 16.7699C22.0562 16.7699 22.0562 16.7808 22.0562 16.7856C22.0562 16.7905 22.0562 16.7953 22.0562 16.8001L7.43701 16.6428C7.43701 16.6428 7.43701 16.6319 7.43701 16.6271C7.43761 16.6222 7.43761 16.6174 7.43701 16.6125L22.0562 16.7699Z" fill="#455A64"/><path d="M22.0246 17.0191C22.0252 17.024 22.0252 17.0288 22.0246 17.0337C22.0253 17.0389 22.0253 17.0442 22.0246 17.0494L7.46338 16.8921C7.46338 16.8921 7.46338 16.8824 7.46338 16.8763C7.46338 16.8703 7.46338 16.8667 7.46338 16.8618L22.0246 17.0191Z" fill="#455A64"/><path d="M21.9995 17.2673C21.9995 17.2673 21.9995 17.2782 21.9995 17.2831C21.9995 17.2879 21.9995 17.2927 21.9995 17.2976L7.49264 17.1415C7.49205 17.1366 7.49205 17.1318 7.49264 17.1269C7.49204 17.1217 7.49204 17.1164 7.49264 17.1112L21.9995 17.2673Z" fill="#455A64"/><path d="M21.9694 17.5166C21.9694 17.5166 21.9694 17.5275 21.9694 17.5323C21.97 17.5372 21.97 17.542 21.9694 17.5469L7.52052 17.392C7.51985 17.3867 7.51985 17.3814 7.52052 17.3762C7.51993 17.3714 7.51993 17.3665 7.52052 17.3617L21.9694 17.5166Z" fill="#455A64"/><path d="M21.938 17.7659C21.938 17.7659 21.938 17.7768 21.938 17.7816C21.9386 17.7864 21.9386 17.7913 21.938 17.7961L7.5483 17.6412C7.54772 17.6364 7.54772 17.6315 7.5483 17.6267C7.5477 17.6215 7.5477 17.6162 7.5483 17.611L21.938 17.7659Z" fill="#455A64"/><path d="M21.904 18.0153C21.9034 18.0205 21.9034 18.0258 21.904 18.031C21.904 18.031 21.904 18.0407 21.904 18.0455L7.57471 17.8906C7.57471 17.8906 7.57471 17.8809 7.57471 17.8761C7.57471 17.8712 7.57471 17.8664 7.57471 17.8604L21.904 18.0153Z" fill="#455A64"/><path d="M21.8726 18.2633C21.8726 18.2633 21.8726 18.2742 21.8726 18.2791C21.8726 18.2839 21.8726 18.2887 21.8726 18.2936L7.60742 18.1411C7.60677 18.1359 7.60677 18.1306 7.60742 18.1254C7.60684 18.1201 7.60684 18.1148 7.60742 18.1096L21.8726 18.2633Z" fill="#455A64"/><path d="M21.8379 18.5138C21.8379 18.5138 21.8379 18.5235 21.8379 18.5283C21.8374 18.5336 21.8374 18.5388 21.8379 18.5441L7.64155 18.3904C7.64097 18.3855 7.64097 18.3807 7.64155 18.3758C7.64155 18.3758 7.64155 18.3649 7.64155 18.3601L21.8379 18.5138Z" fill="#455A64"/><path d="M21.8027 18.7632C21.8027 18.7632 21.8027 18.7729 21.8027 18.7777C21.8027 18.7826 21.8027 18.7874 21.8027 18.7922L7.6788 18.6398C7.67868 18.6297 7.67868 18.6196 7.6788 18.6095L21.8027 18.7632Z" fill="#455A64"/><path d="M21.7665 19.0113C21.7659 19.0161 21.7659 19.021 21.7665 19.0258C21.766 19.031 21.766 19.0363 21.7665 19.0415L7.71631 18.8902C7.71689 18.8854 7.71689 18.8805 7.71631 18.8757C7.7168 18.8705 7.7168 18.8652 7.71631 18.86L21.7665 19.0113Z" fill="#455A64"/><path d="M21.7278 19.2605C21.7272 19.2654 21.7272 19.2702 21.7278 19.2751C21.7272 19.2803 21.7272 19.2856 21.7278 19.2908L7.75977 19.1407C7.76034 19.1355 7.76034 19.1302 7.75977 19.125C7.75977 19.125 7.75977 19.1153 7.75977 19.1105L21.7278 19.2605Z" fill="#455A64"/><path d="M21.6864 19.5099C21.6863 19.5199 21.6863 19.53 21.6864 19.5401L7.80415 19.3961V19.3804C7.80357 19.3755 7.80357 19.3707 7.80415 19.3658L21.6864 19.5099Z" fill="#455A64"/><path d="M21.6442 19.7591C21.6447 19.764 21.6447 19.7688 21.6442 19.7737L21.2165 19.7821L11.1884 19.6732L10.5432 19.6514H10.5323L9.97656 19.6309L21.6442 19.7591Z" fill="#455A64"/><path d="M13.8997 15.1094C13.8794 15.3939 13.9551 15.6769 14.1148 15.913C14.2001 16.0378 14.3151 16.1393 14.4495 16.2083C14.5858 16.2753 14.735 16.3121 14.8868 16.316C15.0414 16.3226 15.1947 16.2858 15.3294 16.2096C15.4642 16.1335 15.5749 16.0211 15.6492 15.8852C15.7888 15.6386 15.8507 15.3556 15.8268 15.0731C15.7582 15.3264 15.6448 15.5654 15.4921 15.7787C15.4237 15.8741 15.3327 15.951 15.2272 16.0026C15.1218 16.0541 15.0053 16.0787 14.888 16.074C14.7691 16.0747 14.6513 16.0503 14.5425 16.0023C14.4336 15.9544 14.336 15.8839 14.2562 15.7956C14.0886 15.5958 13.9669 15.3616 13.8997 15.1094Z" fill="#FBBA96"/><path d="M19.0985 14.6967C19.8706 14.6834 19.8392 16.2301 19.1239 16.2422C18.4087 16.2543 18.4522 14.7076 19.0985 14.6967Z" fill="#FBBA96"/><path d="M10.3754 14.5938C11.1462 14.5805 11.116 16.1272 10.4007 16.1393C9.68547 16.1514 9.72776 14.6047 10.3754 14.5938Z" fill="#FBBA96"/><path d="M8.05561 14.7088C7.75436 12.7713 7.60289 10.8134 7.60254 8.85249V8.65885C8.65586 8.41708 9.72702 8.26126 10.8055 8.19291C11.8148 8.1215 12.8279 8.12393 13.8369 8.20017C11.859 8.44222 9.84979 8.64312 7.9058 9.08607L8.08823 8.85128C8.08823 9.33538 8.08824 9.81947 8.09428 10.312C8.09428 11.7776 8.11119 13.2432 8.05803 14.7088H8.05561Z" fill="#455A64"/><path d="M9.77015 22.8477C9.59979 23.7069 9.85472 24.5601 10.3404 24.7562C10.8261 24.9523 11.3577 24.4137 11.5281 23.5556C11.6984 22.6976 11.4435 21.8432 10.9578 21.6471C10.4721 21.451 9.94292 21.9896 9.77015 22.8477Z" fill="#37474F"/><path d="M9.7858 22.8538C9.64082 23.5799 9.85709 24.2988 10.2691 24.4634L10.292 24.4719C10.6968 24.6123 11.1305 24.162 11.2719 23.4504C11.3927 22.8102 11.2441 22.1712 10.9215 21.9183C10.8813 21.8869 10.837 21.8613 10.7898 21.842C10.3778 21.6774 9.92837 22.1301 9.7858 22.8538Z" fill="#455A64"/><path d="M9.94273 22.9372C9.81587 23.5786 9.97052 24.2189 10.2919 24.4718C10.6966 24.6122 11.1304 24.162 11.2717 23.4504C11.3926 22.8101 11.244 22.1711 10.9214 21.9182C10.5142 21.7778 10.0805 22.228 9.94273 22.9372Z" fill="#263238"/><path d="M10.3054 22.6105L10.7548 22.746C10.8008 22.7593 10.8624 22.982 10.8297 23.2168C10.7971 23.4516 10.6823 23.6089 10.6364 23.5956L10.1846 23.4601L10.3054 22.6105Z" fill="#37474F"/><path d="M10.3056 22.6105C10.2246 22.5875 10.1328 22.7581 10.099 22.9929C10.0652 23.2277 10.105 23.4371 10.186 23.4601C10.2669 23.4831 10.3587 23.3124 10.3914 23.0776C10.424 22.8428 10.3841 22.6335 10.3056 22.6105Z" fill="#455A64"/><path d="M10.4018 31.9947C10.4018 31.9947 9.10781 32.4703 7.97935 32.1569C6.67933 31.7938 6.40869 31.1294 6.40869 31.1294C6.40869 31.1294 8.00956 24.7309 9.21776 23.0268C9.64909 22.4157 10.1734 21.646 10.6845 22.095C10.9527 22.3297 11.1787 23.8801 11.0724 24.6207C10.8078 26.4506 10.4018 31.9947 10.4018 31.9947Z" fill="#FBBA96"/><path d="M9.89463 27.8375C9.89463 27.8375 8.37592 27.6838 7.54105 27.1113L7.30908 27.8895C7.30908 27.8895 8.19348 28.439 9.81006 28.6072L9.89463 27.8375Z" fill="#263238"/><path d="M10.0636 29.5198C10.5626 29.5706 11.0217 29.072 11.0882 28.4027C11.1486 27.8109 10.8864 27.2832 10.4841 27.1247C10.4274 27.1027 10.3681 27.0881 10.3077 27.0811C9.80627 27.0255 9.34111 27.5253 9.27466 28.1982C9.20821 28.8711 9.5598 29.4641 10.0636 29.5198Z" fill="#263238"/><path d="M10.0636 29.5209C10.5626 29.5718 11.0217 29.0731 11.0881 28.4039C11.1485 27.8121 10.8864 27.2844 10.484 27.1259C9.98504 27.075 9.52713 27.5749 9.45947 28.2441C9.40027 28.8359 9.66366 29.3624 10.0636 29.5209Z" fill="#37474F"/><path d="M20.0461 22.8477C20.2165 23.7069 19.9616 24.5601 19.4759 24.7562C18.9902 24.9523 18.4586 24.4137 18.2882 23.5556C18.1179 22.6976 18.3728 21.8432 18.8585 21.6471C19.3442 21.451 19.8758 21.9896 20.0461 22.8477Z" fill="#37474F"/><path d="M20.0304 22.8538C20.1753 23.5799 19.9591 24.2988 19.5471 24.4634L19.5241 24.4719C19.1194 24.6123 18.6856 24.162 18.5443 23.4504C18.4174 22.8102 18.5721 22.1712 18.8947 21.9183C18.9349 21.8869 18.9792 21.8613 19.0263 21.842C19.4383 21.6774 19.8878 22.1301 20.0304 22.8538Z" fill="#455A64"/><path d="M19.8767 22.9372C19.9975 23.5786 19.8489 24.2189 19.5275 24.4718C19.1228 24.6122 18.6891 24.162 18.5477 23.4504C18.4208 22.8101 18.5755 22.1711 18.8981 21.9182C19.3016 21.7778 19.7354 22.228 19.8767 22.9372Z" fill="#263238"/><path d="M19.5132 22.6105L19.0626 22.746C19.0167 22.7593 18.955 22.982 18.9877 23.2168C19.0203 23.4516 19.1351 23.6089 19.181 23.5956L19.6316 23.4601L19.5132 22.6105Z" fill="#37474F"/><path d="M19.5131 22.6105C19.5929 22.5875 19.6847 22.7581 19.7185 22.9929C19.7523 23.2277 19.7125 23.4371 19.6315 23.4601C19.5506 23.4831 19.4587 23.3124 19.4261 23.0776C19.3935 22.8428 19.4322 22.6335 19.5131 22.6105Z" fill="#455A64"/><path d="M20.0106 22.8208C20.181 23.6801 19.926 24.5333 19.4403 24.7293C18.9546 24.9254 18.423 24.3868 18.2527 23.5288C18.0823 22.6707 18.3373 21.8163 18.823 21.6202C19.3087 21.4242 19.8378 21.9627 20.0106 22.8208Z" fill="#37474F"/><path d="M19.995 22.8268C20.1399 23.5529 19.9237 24.2718 19.5117 24.4364L19.4887 24.4449C19.084 24.5853 18.6502 24.1351 18.5089 23.4234C18.3881 22.7832 18.5367 22.1442 18.8593 21.8913C18.8995 21.86 18.9438 21.8343 18.9909 21.815C19.4029 21.6504 19.8524 22.1031 19.995 22.8268Z" fill="#455A64"/><path d="M19.838 22.9104C19.9649 23.5518 19.8102 24.192 19.4889 24.4449C19.0841 24.5853 18.6504 24.1351 18.509 23.4235C18.3882 22.7833 18.5368 22.1443 18.8594 21.8913C19.2666 21.7509 19.7003 22.2012 19.838 22.9104Z" fill="#263238"/><path d="M19.4754 22.5836L19.0259 22.7192C18.98 22.7325 18.9184 22.9552 18.951 23.1899C18.9836 23.4247 19.0984 23.5821 19.1443 23.5688L19.5962 23.4332L19.4754 22.5836Z" fill="#37474F"/><path d="M19.4752 22.5836C19.5561 22.5606 19.6479 22.7313 19.6818 22.9661C19.7156 23.2008 19.6757 23.4102 19.5948 23.4332C19.5138 23.4562 19.422 23.2856 19.3894 23.0508C19.3568 22.816 19.3966 22.6066 19.4752 22.5836Z" fill="#455A64"/><path d="M19.379 31.9677C19.379 31.9677 20.6729 32.4434 21.8014 32.1299C23.1014 31.7668 23.3721 31.1024 23.3721 31.1024C23.3721 31.1024 21.7712 24.7039 20.563 22.9999C20.1317 22.3887 19.6073 21.619 19.0962 22.068C18.828 22.3028 18.6021 23.8531 18.7084 24.5938C18.973 26.4236 19.379 31.9677 19.379 31.9677Z" fill="#FBBA96"/><path d="M19.8861 27.8106C19.8861 27.8106 21.4048 27.6569 22.2397 27.0845L22.4717 27.8627C22.4717 27.8627 21.5873 28.4121 19.9707 28.5803L19.8861 27.8106Z" fill="#263238"/><path d="M19.7171 29.4928C19.2182 29.5436 18.759 29.045 18.6926 28.3757C18.6322 27.7839 18.8944 27.2563 19.2967 27.0977C19.3534 27.0757 19.4127 27.0611 19.4731 27.0542C19.9745 26.9985 20.4396 27.4983 20.5061 28.1712C20.5726 28.8441 20.221 29.4371 19.7171 29.4928Z" fill="#263238"/><path d="M19.7172 29.4941C19.2182 29.5449 18.7591 29.0463 18.6926 28.377C18.6322 27.7852 18.8944 27.2576 19.2967 27.099C19.7957 27.0482 20.2536 27.548 20.3213 28.2173C20.3805 28.8091 20.1171 29.3355 19.7172 29.4941Z" fill="#37474F"/></g></svg>
