<svg id="svg" version="1.1" xmlns="http://www.w3.org/2000/svg" xmlns:xlink="http://www.w3.org/1999/xlink" width="400" height="189.83050847457628" viewBox="0, 0, 400,189.83050847457628"><g id="svgg"><path id="path0" d="M168.533 68.288 C 168.768 68.333,169.153 68.333,169.388 68.288 C 169.623 68.243,169.430 68.205,168.961 68.205 C 168.491 68.205,168.299 68.243,168.533 68.288 M167.442 68.504 C 167.181 68.540,166.864 68.654,166.738 68.758 C 166.612 68.861,166.399 68.882,166.264 68.804 C 166.129 68.726,166.080 68.731,166.155 68.814 C 166.231 68.898,166.052 69.104,165.758 69.272 C 164.547 69.964,164.055 70.343,163.722 70.839 C 163.480 71.199,163.325 71.291,163.226 71.134 C 163.135 70.991,163.080 71.065,163.078 71.334 C 163.077 71.570,162.905 72.081,162.696 72.471 C 162.487 72.860,162.316 73.372,162.316 73.609 C 162.316 73.845,162.231 74.039,162.126 74.039 C 162.022 74.039,161.936 74.231,161.935 74.466 C 161.935 74.701,161.815 75.122,161.668 75.402 C 161.522 75.682,161.421 76.168,161.442 76.482 C 161.464 76.796,161.413 77.010,161.329 76.958 C 161.246 76.907,161.177 77.173,161.177 77.551 C 161.177 78.023,161.108 78.195,160.957 78.102 C 160.805 78.008,160.773 78.100,160.853 78.406 C 160.916 78.648,160.874 79.021,160.760 79.235 C 160.645 79.448,160.559 79.862,160.567 80.153 C 160.575 80.445,160.519 80.683,160.443 80.683 C 160.284 80.683,159.762 82.923,159.829 83.313 C 159.854 83.454,159.782 83.513,159.671 83.444 C 159.543 83.365,159.468 83.557,159.468 83.971 C 159.468 84.918,159.258 85.819,159.066 85.700 C 158.974 85.643,158.899 85.687,158.899 85.798 C 158.899 85.909,159.006 86.000,159.136 86.002 C 159.322 86.004,159.321 86.038,159.131 86.159 C 158.998 86.243,158.837 86.752,158.773 87.290 C 158.709 87.828,158.594 88.229,158.518 88.181 C 158.441 88.134,158.333 88.496,158.277 88.987 C 158.222 89.477,158.083 89.910,157.968 89.948 C 157.854 89.986,157.760 90.101,157.760 90.203 C 157.760 90.305,157.867 90.324,157.997 90.245 C 158.183 90.134,158.185 90.163,158.009 90.381 C 157.886 90.534,157.725 91.106,157.653 91.652 C 157.580 92.197,157.447 92.644,157.356 92.644 C 157.265 92.644,157.190 92.908,157.190 93.232 C 157.190 93.555,157.069 94.089,156.921 94.418 C 156.773 94.747,156.596 95.509,156.527 96.111 C 156.459 96.713,156.324 97.156,156.227 97.096 C 156.130 97.036,156.041 97.206,156.028 97.473 C 156.014 97.741,155.982 98.045,155.956 98.149 C 155.930 98.253,155.898 98.686,155.885 99.109 C 155.872 99.533,155.788 99.834,155.697 99.779 C 155.523 99.671,155.305 101.100,155.280 102.515 C 155.269 103.168,155.227 103.280,155.102 102.990 C 155.004 102.761,154.934 104.166,154.926 106.534 C 154.918 108.692,154.986 110.486,155.076 110.520 C 155.167 110.555,155.300 111.352,155.373 112.291 C 155.466 113.508,155.586 114.044,155.789 114.158 C 155.946 114.246,156.060 114.503,156.042 114.729 C 155.988 115.403,156.041 115.643,156.220 115.533 C 156.409 115.416,156.613 116.037,156.621 116.754 C 156.625 117.130,156.665 117.169,156.811 116.944 C 156.951 116.727,156.995 116.804,156.998 117.265 C 156.999 117.598,157.087 117.924,157.193 117.990 C 157.300 118.055,157.329 118.202,157.259 118.315 C 157.183 118.439,157.220 118.466,157.353 118.384 C 157.497 118.295,157.615 118.451,157.690 118.826 C 157.754 119.145,157.881 119.359,157.973 119.302 C 158.065 119.246,158.140 119.340,158.140 119.511 C 158.140 119.683,158.417 120.108,158.757 120.456 C 159.705 121.430,159.848 121.642,159.848 122.072 C 159.848 122.292,159.916 122.429,159.999 122.378 C 160.184 122.264,162.791 124.851,162.791 125.148 C 162.791 125.265,162.993 125.375,163.241 125.393 C 163.489 125.411,163.770 125.568,163.867 125.741 C 163.964 125.914,164.167 126.056,164.319 126.056 C 164.470 126.056,164.594 126.184,164.594 126.341 C 164.594 126.499,164.763 126.626,164.974 126.626 C 165.183 126.626,165.354 126.698,165.354 126.787 C 165.354 126.875,165.703 127.085,166.130 127.252 C 166.556 127.420,166.854 127.641,166.791 127.743 C 166.728 127.845,166.776 127.990,166.899 128.066 C 167.037 128.151,167.070 128.121,166.985 127.984 C 166.788 127.665,167.230 127.715,167.564 128.049 C 167.721 128.206,168.013 128.334,168.215 128.334 C 168.416 128.334,168.581 128.411,168.581 128.505 C 168.581 128.599,168.901 128.756,169.293 128.853 C 169.684 128.950,169.987 129.119,169.965 129.229 C 169.943 129.339,170.028 129.425,170.155 129.421 C 171.142 129.388,171.692 129.493,171.429 129.663 C 171.210 129.805,171.275 129.848,171.713 129.852 C 172.663 129.860,173.750 130.089,173.519 130.231 C 173.341 130.341,175.026 130.601,176.398 130.676 C 176.573 130.686,176.675 130.761,176.624 130.843 C 176.573 130.925,178.395 130.986,180.672 130.979 C 182.949 130.971,184.642 130.899,184.433 130.817 C 184.182 130.719,184.649 130.622,185.807 130.532 C 186.771 130.456,187.611 130.312,187.674 130.211 C 187.736 130.110,187.951 130.079,188.151 130.143 C 188.363 130.210,188.514 130.169,188.514 130.044 C 188.514 129.926,188.664 129.844,188.847 129.863 C 189.664 129.946,190.135 129.852,189.843 129.663 C 189.633 129.527,189.757 129.478,190.318 129.473 C 191.287 129.466,191.957 129.288,191.823 129.072 C 191.766 128.979,191.895 128.893,192.110 128.880 C 192.814 128.837,192.893 128.811,193.038 128.577 C 193.116 128.450,193.455 128.325,193.790 128.300 C 194.137 128.273,194.400 128.148,194.400 128.009 C 194.400 127.875,194.533 127.765,194.696 127.765 C 194.880 127.765,194.939 127.854,194.853 128.002 C 194.776 128.132,194.885 128.090,195.094 127.907 C 195.303 127.724,195.616 127.575,195.791 127.575 C 195.965 127.575,196.108 127.489,196.108 127.385 C 196.108 127.280,196.223 127.195,196.364 127.195 C 196.505 127.195,196.817 127.024,197.057 126.815 C 197.474 126.454,197.720 126.357,198.068 126.418 C 198.154 126.433,198.178 126.370,198.122 126.278 C 198.035 126.138,198.698 125.701,199.193 125.571 C 199.271 125.551,199.400 125.513,199.478 125.488 C 199.556 125.462,199.691 125.454,199.777 125.469 C 199.863 125.484,199.884 125.416,199.824 125.319 C 199.692 125.106,201.406 123.934,201.639 124.078 C 201.730 124.134,201.804 124.086,201.804 123.971 C 201.804 123.707,202.291 123.208,203.081 122.662 C 203.419 122.429,204.188 121.715,204.790 121.075 C 205.392 120.435,206.162 119.635,206.501 119.299 C 206.839 118.962,207.536 118.077,208.049 117.333 C 208.573 116.573,209.020 116.087,209.071 116.224 C 209.120 116.359,209.223 116.234,209.299 115.947 C 209.376 115.660,209.514 115.425,209.605 115.425 C 209.697 115.425,209.828 115.078,209.896 114.655 C 209.976 114.151,210.100 113.917,210.256 113.976 C 210.412 114.036,210.461 113.943,210.398 113.702 C 210.342 113.488,210.399 113.336,210.534 113.336 C 210.663 113.336,210.718 113.209,210.657 113.052 C 210.597 112.895,210.623 112.767,210.715 112.767 C 210.807 112.767,210.943 112.404,211.017 111.960 C 211.092 111.516,211.225 111.107,211.314 111.050 C 211.486 110.940,211.638 110.296,211.661 109.576 C 211.669 109.335,211.756 109.187,211.854 109.248 C 211.952 109.308,212.034 109.207,212.037 109.022 C 212.042 108.652,212.170 107.791,212.242 107.641 C 212.267 107.589,212.270 107.344,212.250 107.098 C 212.226 106.817,212.289 106.697,212.418 106.777 C 212.532 106.847,212.630 106.792,212.638 106.656 C 212.680 105.859,212.821 105.287,213.003 105.174 C 213.118 105.103,213.236 104.554,213.266 103.953 C 213.301 103.269,213.422 102.798,213.590 102.691 C 213.818 102.547,213.815 102.520,213.574 102.513 C 213.349 102.506,213.359 102.463,213.621 102.310 C 213.860 102.171,213.953 101.876,213.953 101.261 C 213.953 100.790,214.028 100.451,214.119 100.507 C 214.210 100.564,214.343 100.096,214.414 99.469 C 214.485 98.842,214.610 98.370,214.691 98.420 C 214.773 98.471,214.845 98.409,214.852 98.283 C 214.859 98.157,214.928 97.712,215.007 97.295 C 215.085 96.877,215.141 96.386,215.132 96.203 C 215.123 96.020,215.193 95.871,215.288 95.871 C 215.382 95.871,215.516 95.444,215.585 94.922 C 215.654 94.400,215.795 93.972,215.898 93.972 C 216.001 93.972,216.047 93.716,216.001 93.403 C 215.955 93.090,215.978 92.833,216.053 92.833 C 216.127 92.833,216.246 92.370,216.317 91.803 C 216.387 91.236,216.563 90.674,216.707 90.555 C 216.851 90.435,216.923 90.220,216.868 90.076 C 216.813 89.932,216.837 89.703,216.921 89.568 C 217.005 89.432,217.049 89.129,217.019 88.894 C 216.989 88.659,217.050 88.467,217.156 88.467 C 217.261 88.467,217.405 88.083,217.476 87.613 C 217.546 87.143,217.673 86.758,217.758 86.758 C 217.843 86.758,217.972 86.289,218.043 85.714 C 218.115 85.140,218.249 84.670,218.342 84.670 C 218.585 84.670,218.548 83.386,218.302 83.304 C 218.188 83.266,218.082 83.002,218.065 82.719 C 218.049 82.435,217.949 82.202,217.843 82.202 C 217.619 82.202,217.079 81.420,217.145 81.191 C 217.170 81.105,217.110 81.085,217.011 81.146 C 216.912 81.207,216.703 81.128,216.545 80.970 C 216.388 80.812,216.167 80.683,216.055 80.683 C 215.943 80.683,215.852 80.609,215.852 80.519 C 215.852 80.428,215.491 80.305,215.049 80.246 C 214.608 80.187,214.216 80.047,214.179 79.936 C 214.099 79.696,212.055 79.660,212.055 79.899 C 212.055 79.990,211.652 80.110,211.160 80.165 C 210.667 80.221,210.233 80.360,210.194 80.475 C 210.156 80.590,210.048 80.683,209.953 80.683 C 209.782 80.683,209.507 80.886,208.353 81.866 C 208.018 82.150,207.688 82.328,207.621 82.261 C 207.554 82.194,207.499 82.300,207.499 82.497 C 207.499 82.694,207.221 83.092,206.882 83.383 C 206.542 83.673,206.372 83.910,206.504 83.910 C 206.763 83.911,206.557 84.391,205.980 85.130 C 205.810 85.348,205.791 85.439,205.933 85.356 C 206.080 85.270,206.170 85.329,206.170 85.513 C 206.170 85.676,206.099 85.809,206.012 85.809 C 205.813 85.809,205.393 87.146,205.525 87.359 C 205.579 87.446,205.532 87.518,205.422 87.518 C 205.311 87.518,205.221 87.726,205.221 87.981 C 205.221 88.236,205.149 88.489,205.061 88.543 C 204.973 88.598,204.917 88.902,204.935 89.219 C 204.954 89.536,204.919 89.797,204.858 89.797 C 204.626 89.800,204.311 90.762,204.414 91.155 C 204.481 91.410,204.447 91.518,204.325 91.443 C 204.109 91.309,203.797 92.630,203.862 93.403 C 203.894 93.778,203.863 93.818,203.710 93.593 C 203.539 93.340,203.516 93.340,203.504 93.593 C 203.453 94.637,203.288 95.578,203.093 95.933 C 202.838 96.394,202.822 96.467,202.782 97.353 C 202.766 97.699,202.674 97.933,202.578 97.874 C 202.482 97.814,202.344 98.321,202.272 98.999 C 202.195 99.715,202.062 100.185,201.956 100.119 C 201.855 100.057,201.795 100.165,201.823 100.359 C 201.886 100.796,201.627 101.970,201.408 102.243 C 201.318 102.354,201.187 102.952,201.116 103.572 C 201.045 104.192,200.899 104.756,200.791 104.826 C 200.684 104.896,200.579 105.067,200.557 105.206 C 200.536 105.344,200.487 105.672,200.449 105.933 C 200.411 106.194,200.315 106.455,200.237 106.514 C 200.158 106.572,200.044 106.999,199.984 107.463 C 199.842 108.550,198.810 110.639,198.342 110.788 C 198.138 110.853,198.022 111.015,198.078 111.160 C 198.176 111.416,196.867 112.876,195.485 114.053 C 194.752 114.677,194.281 114.856,194.497 114.428 C 194.564 114.298,194.487 114.362,194.328 114.570 C 193.762 115.310,193.370 115.624,193.127 115.531 C 192.992 115.479,192.881 115.509,192.881 115.598 C 192.881 115.686,192.625 115.865,192.311 115.994 C 191.998 116.124,191.742 116.301,191.742 116.388 C 191.742 116.475,191.443 116.603,191.077 116.671 C 190.712 116.740,190.413 116.872,190.413 116.965 C 190.413 117.057,190.349 117.119,190.271 117.102 C 189.989 117.041,188.988 117.392,188.740 117.640 C 188.601 117.779,188.330 117.893,188.137 117.893 C 187.944 117.893,187.758 117.969,187.723 118.062 C 187.667 118.211,186.662 118.400,185.572 118.466 L 185.192 118.489 185.572 118.641 C 186.197 118.891,182.645 119.079,179.497 118.963 C 177.931 118.905,176.452 118.853,176.212 118.848 C 175.971 118.843,175.827 118.755,175.891 118.651 C 175.955 118.547,175.811 118.462,175.569 118.461 C 175.328 118.460,174.893 118.336,174.602 118.184 C 174.241 117.996,174.110 117.981,174.189 118.138 C 174.253 118.264,174.191 118.236,174.053 118.076 C 173.915 117.915,173.660 117.813,173.488 117.849 C 173.315 117.884,172.850 117.631,172.454 117.286 C 172.058 116.941,171.795 116.760,171.869 116.883 C 171.954 117.024,171.791 117.001,171.430 116.821 C 171.114 116.663,170.898 116.464,170.951 116.379 C 171.003 116.294,170.830 116.170,170.565 116.104 C 170.274 116.031,170.136 115.899,170.216 115.770 C 170.294 115.643,170.263 115.609,170.140 115.684 C 169.912 115.826,169.018 114.955,168.851 114.428 C 168.793 114.245,168.667 114.096,168.573 114.096 C 168.355 114.096,167.701 112.756,167.526 111.952 C 167.454 111.617,167.320 111.296,167.229 111.238 C 167.138 111.180,167.009 110.603,166.941 109.956 C 166.874 109.309,166.745 108.780,166.655 108.780 C 166.462 108.780,166.433 105.296,166.625 105.104 C 166.775 104.954,166.773 104.965,166.960 103.198 C 167.053 102.319,167.154 101.975,167.267 102.154 C 167.381 102.334,167.437 102.158,167.439 101.614 C 167.443 100.505,167.432 100.566,167.706 100.142 C 167.841 99.934,168.007 99.348,168.075 98.842 C 168.143 98.335,168.329 97.537,168.489 97.069 C 168.648 96.600,168.795 96.011,168.816 95.759 C 168.837 95.507,168.927 95.301,169.017 95.301 C 169.107 95.301,169.124 95.045,169.056 94.732 C 168.977 94.374,169.006 94.162,169.135 94.162 C 169.248 94.162,169.340 93.859,169.340 93.488 C 169.340 93.118,169.460 92.584,169.605 92.302 C 169.751 92.020,169.932 91.298,170.007 90.697 C 170.082 90.097,170.211 89.606,170.293 89.606 C 170.375 89.606,170.502 89.093,170.574 88.467 C 170.647 87.841,170.784 87.328,170.878 87.328 C 170.972 87.328,171.049 87.057,171.049 86.726 C 171.049 86.395,171.195 85.962,171.374 85.765 C 171.654 85.455,171.660 85.382,171.421 85.228 C 171.219 85.098,171.204 85.011,171.365 84.906 C 171.487 84.827,171.643 84.379,171.712 83.909 C 171.781 83.440,171.913 83.029,172.005 82.996 C 172.097 82.962,172.229 82.430,172.299 81.813 C 172.369 81.196,172.501 80.737,172.592 80.793 C 172.683 80.850,172.757 80.463,172.757 79.935 C 172.757 79.407,172.835 78.975,172.930 78.975 C 173.024 78.975,173.053 78.791,172.995 78.565 C 172.927 78.308,172.961 78.201,173.085 78.278 C 173.211 78.356,173.332 77.948,173.415 77.169 C 173.488 76.492,173.620 75.937,173.710 75.937 C 173.800 75.937,173.932 75.532,174.004 75.036 C 174.076 74.540,174.184 74.050,174.244 73.947 C 174.578 73.376,174.657 70.961,174.337 71.083 C 174.197 71.137,174.086 71.052,174.086 70.889 C 174.086 70.718,174.176 70.655,174.306 70.735 C 174.446 70.821,174.473 70.787,174.381 70.638 C 174.303 70.511,174.191 70.453,174.134 70.511 C 173.980 70.665,173.327 69.852,173.324 69.501 C 173.322 69.259,173.288 69.250,173.159 69.455 C 173.030 69.658,172.938 69.628,172.717 69.313 C 172.564 69.095,172.381 68.973,172.311 69.043 C 172.241 69.113,172.050 69.006,171.887 68.804 C 171.724 68.603,171.644 68.545,171.710 68.676 C 171.851 68.953,171.587 68.994,171.324 68.737 C 171.140 68.556,168.297 68.386,167.442 68.504 " stroke="none" fill="#e01e26" fill-rule="evenodd"></path><path id="path1" d="M213.147 58.026 C 212.860 58.076,212.625 58.193,212.625 58.286 C 212.625 58.474,212.274 58.535,209.353 58.854 C 207.397 59.068,206.008 59.380,205.278 59.769 C 205.090 59.870,204.637 59.979,204.271 60.012 C 203.906 60.044,203.403 60.223,203.154 60.410 C 202.905 60.597,202.604 60.750,202.484 60.750 C 201.831 60.750,196.858 63.152,196.580 63.602 C 196.517 63.704,196.320 63.787,196.143 63.787 C 195.965 63.787,195.719 63.949,195.595 64.147 C 195.472 64.345,194.875 64.787,194.268 65.131 C 193.662 65.475,192.663 66.253,192.049 66.860 C 191.436 67.467,190.825 67.964,190.692 67.964 C 190.559 67.964,190.281 68.231,190.075 68.557 C 189.868 68.884,189.270 69.588,188.747 70.123 C 188.223 70.659,187.527 71.624,187.200 72.269 C 186.874 72.914,186.539 73.469,186.457 73.503 C 186.124 73.640,184.833 76.594,184.874 77.126 C 184.897 77.432,184.743 77.962,184.532 78.304 C 184.321 78.646,184.093 79.323,184.026 79.810 C 183.960 80.296,183.832 80.739,183.742 80.795 C 183.652 80.850,183.579 81.152,183.579 81.465 C 183.579 81.778,183.329 82.777,183.024 83.685 C 182.719 84.592,182.407 85.674,182.330 86.089 C 182.174 86.936,181.619 88.591,181.426 88.784 C 181.357 88.853,181.300 89.240,181.300 89.644 C 181.300 90.047,181.172 90.684,181.016 91.059 C 180.859 91.434,180.731 91.935,180.731 92.172 C 180.731 92.409,180.604 92.652,180.449 92.711 C 180.250 92.788,180.201 92.982,180.280 93.380 C 180.348 93.718,180.231 94.464,179.985 95.257 C 179.761 95.981,179.503 96.991,179.411 97.503 C 179.212 98.611,178.792 99.784,178.485 100.092 C 178.363 100.213,178.260 100.745,178.256 101.272 C 178.253 101.799,178.127 102.444,177.978 102.705 C 177.146 104.161,178.302 106.836,180.203 107.853 C 182.322 108.988,186.940 107.091,187.659 104.791 C 187.740 104.531,187.923 104.150,188.065 103.944 C 188.208 103.739,188.325 103.301,188.325 102.973 C 188.325 102.401,188.976 100.528,189.306 100.152 C 189.393 100.053,189.464 99.708,189.464 99.386 C 189.464 99.064,189.630 98.326,189.834 97.746 C 190.038 97.166,190.291 96.155,190.397 95.498 C 190.590 94.300,191.098 92.705,191.394 92.368 C 191.481 92.269,191.552 91.882,191.552 91.507 C 191.552 91.133,191.736 90.317,191.961 89.694 C 192.187 89.072,192.433 88.178,192.509 87.708 C 192.688 86.593,193.405 83.668,193.765 82.582 C 193.921 82.112,194.158 81.245,194.291 80.656 C 194.858 78.154,200.669 71.761,202.376 71.761 C 202.558 71.761,202.813 71.633,202.943 71.476 C 203.073 71.319,203.288 71.191,203.421 71.191 C 203.554 71.191,204.139 70.941,204.721 70.635 C 205.894 70.018,208.174 69.317,209.777 69.080 C 210.351 68.995,211.334 68.845,211.960 68.746 C 216.490 68.029,221.353 69.089,224.653 71.513 C 225.265 71.963,225.826 72.330,225.900 72.330 C 226.579 72.330,228.433 75.930,228.834 78.026 C 228.884 78.287,229.016 78.842,229.128 79.260 C 229.518 80.715,229.073 85.836,228.370 87.976 C 228.168 88.594,228.002 89.387,228.002 89.739 C 228.002 90.091,227.881 90.568,227.733 90.799 C 227.586 91.031,227.414 91.746,227.352 92.389 C 227.290 93.032,227.071 93.929,226.866 94.382 C 226.660 94.835,226.490 95.400,226.487 95.636 C 226.485 95.873,226.406 96.214,226.312 96.396 C 226.219 96.577,225.994 97.409,225.814 98.244 C 225.634 99.079,225.396 99.934,225.286 100.142 C 225.175 100.351,225.102 100.757,225.122 101.043 C 225.143 101.330,225.031 101.874,224.872 102.253 C 224.714 102.632,224.585 103.140,224.585 103.382 C 224.585 103.624,224.499 103.875,224.395 103.939 C 224.290 104.004,224.202 104.415,224.199 104.852 C 224.195 105.290,224.027 105.990,223.825 106.407 C 223.624 106.825,223.456 107.520,223.452 107.953 C 223.449 108.385,223.277 109.111,223.070 109.566 C 222.864 110.022,222.693 110.654,222.690 110.973 C 222.688 111.291,222.584 111.654,222.459 111.779 C 222.334 111.904,222.167 112.455,222.088 113.004 C 221.841 114.717,221.694 115.317,221.426 115.704 C 220.308 117.324,221.421 120.073,223.601 121.075 C 225.295 121.854,229.871 121.103,229.895 120.042 C 229.898 119.919,230.093 119.660,230.327 119.466 C 231.043 118.874,231.794 117.447,231.804 116.659 C 231.808 116.346,231.936 115.923,232.090 115.721 C 232.243 115.518,232.368 114.989,232.368 114.545 C 232.368 114.068,232.530 113.464,232.764 113.067 C 233.046 112.590,233.124 112.233,233.036 111.832 C 232.953 111.456,233.034 110.990,233.277 110.441 C 233.478 109.986,233.703 109.215,233.776 108.727 C 233.849 108.239,233.989 107.790,234.088 107.729 C 234.186 107.669,234.267 107.332,234.267 106.982 C 234.267 106.632,234.447 105.805,234.667 105.143 C 234.888 104.481,235.137 103.469,235.221 102.895 C 235.385 101.774,236.057 98.987,236.389 98.054 C 236.500 97.741,236.655 96.951,236.733 96.300 C 236.811 95.648,236.983 94.985,237.115 94.826 C 237.361 94.530,237.788 93.032,238.062 91.505 C 238.379 89.737,238.850 87.580,239.118 86.664 C 239.979 83.725,239.215 74.812,237.948 73.002 C 237.803 72.795,237.684 72.438,237.684 72.208 C 237.684 71.978,237.483 71.548,237.238 71.253 C 236.993 70.958,236.739 70.498,236.674 70.231 C 236.609 69.964,236.343 69.451,236.083 69.092 C 235.823 68.732,235.438 68.124,235.226 67.739 C 235.014 67.355,234.673 66.922,234.468 66.778 C 234.263 66.635,234.007 66.287,233.901 66.006 C 233.777 65.681,233.565 65.496,233.316 65.496 C 233.091 65.496,232.862 65.325,232.776 65.093 C 232.566 64.524,230.465 62.838,229.967 62.838 C 229.738 62.838,229.196 62.496,228.761 62.079 C 228.327 61.661,227.887 61.319,227.785 61.319 C 227.682 61.319,227.139 61.102,226.577 60.836 C 226.014 60.570,225.400 60.322,225.212 60.284 C 224.252 60.093,223.695 59.894,222.988 59.490 C 222.561 59.246,221.907 59.045,221.534 59.044 C 221.162 59.042,220.414 58.910,219.874 58.749 C 219.170 58.540,218.788 58.512,218.529 58.651 C 218.151 58.854,217.011 58.582,216.780 58.235 C 216.650 58.039,213.958 57.885,213.147 58.026 " stroke="none" fill="#0564b0" fill-rule="evenodd"></path><path id="path2" d="M209.479 57.734 C 209.253 58.099,209.836 58.293,210.821 58.180 C 212.081 58.035,213.764 57.706,213.764 57.604 C 213.764 57.409,209.602 57.535,209.479 57.734 M215.955 57.704 C 216.632 57.978,219.070 58.291,219.565 58.167 C 220.657 57.893,219.455 57.534,217.466 57.541 C 216.273 57.544,215.711 57.605,215.955 57.704 M208.356 58.087 C 208.203 58.335,208.640 58.546,208.857 58.329 C 208.979 58.207,208.942 58.104,208.752 58.031 C 208.591 57.969,208.413 57.995,208.356 58.087 M220.218 58.099 C 220.218 58.371,220.620 58.525,220.817 58.329 C 220.938 58.208,220.866 58.107,220.611 58.040 C 220.395 57.984,220.218 58.010,220.218 58.099 M207.123 58.280 C 206.887 58.425,206.896 58.471,207.180 58.580 C 207.576 58.732,207.835 58.542,207.579 58.287 C 207.472 58.179,207.290 58.176,207.123 58.280 M221.547 58.394 C 221.547 58.565,221.753 58.662,222.117 58.662 C 222.430 58.662,222.686 58.739,222.686 58.834 C 222.686 58.928,222.857 58.961,223.066 58.906 C 223.278 58.851,223.446 58.901,223.446 59.019 C 223.446 59.136,223.576 59.231,223.735 59.231 C 224.278 59.231,227.466 60.576,228.703 61.328 C 229.383 61.741,230.009 62.079,230.094 62.079 C 230.179 62.079,230.277 62.143,230.312 62.221 C 230.346 62.299,230.720 62.598,231.142 62.884 C 233.165 64.256,235.801 67.366,237.218 70.053 C 237.631 70.836,238.026 71.520,238.096 71.573 C 238.166 71.626,238.282 71.904,238.354 72.190 C 238.426 72.476,238.542 72.710,238.613 72.710 C 238.684 72.710,238.763 72.988,238.789 73.327 C 238.814 73.666,238.909 73.969,238.999 74.001 C 239.089 74.032,239.119 74.224,239.065 74.428 C 239.012 74.632,239.064 74.798,239.181 74.798 C 239.297 74.798,239.393 75.055,239.393 75.368 C 239.393 75.681,239.473 75.937,239.571 75.937 C 239.846 75.937,239.992 75.599,239.775 75.465 C 239.669 75.399,239.582 75.142,239.582 74.894 C 239.582 74.646,239.483 74.203,239.361 73.909 C 239.239 73.615,239.128 73.332,239.114 73.280 C 238.911 72.516,238.713 72.015,237.931 70.290 C 237.332 68.968,236.163 67.081,235.688 66.668 C 235.428 66.443,235.216 66.177,235.216 66.077 C 235.216 65.863,232.792 63.408,232.580 63.408 C 232.500 63.408,232.013 63.020,231.499 62.547 C 230.985 62.073,230.373 61.637,230.138 61.577 C 229.903 61.517,229.710 61.399,229.710 61.314 C 229.710 61.229,229.461 61.105,229.157 61.038 C 228.852 60.971,228.556 60.794,228.498 60.643 C 228.441 60.493,228.184 60.370,227.929 60.370 C 227.673 60.370,227.436 60.306,227.401 60.228 C 227.309 60.022,226.104 59.455,225.439 59.306 C 225.126 59.236,224.781 59.110,224.672 59.025 C 224.564 58.941,224.094 58.778,223.628 58.664 C 222.369 58.356,222.212 58.314,222.212 58.282 C 222.212 58.266,222.062 58.224,221.879 58.189 C 221.690 58.153,221.547 58.241,221.547 58.394 M204.167 59.006 C 204.068 59.091,203.474 59.314,202.848 59.501 C 201.240 59.983,198.854 61.024,198.668 61.324 C 198.605 61.426,198.385 61.509,198.178 61.509 C 197.971 61.509,197.358 61.808,196.815 62.174 C 196.273 62.539,195.721 62.838,195.589 62.838 C 195.457 62.838,195.349 62.924,195.349 63.028 C 195.349 63.132,195.218 63.218,195.058 63.218 C 194.898 63.218,194.718 63.346,194.658 63.503 C 194.598 63.659,194.474 63.787,194.381 63.787 C 194.289 63.787,193.697 64.193,193.065 64.689 C 192.434 65.185,191.653 65.782,191.331 66.015 C 190.542 66.587,187.945 69.238,187.945 69.472 C 187.945 69.575,187.774 69.751,187.565 69.862 C 187.356 69.974,187.186 70.144,187.186 70.240 C 187.186 70.336,186.837 70.910,186.412 71.515 C 185.782 72.410,185.228 73.402,185.003 74.039 C 184.985 74.091,184.747 74.604,184.476 75.178 C 183.778 76.654,183.648 77.266,184.033 77.266 C 184.232 77.266,184.338 77.101,184.338 76.792 C 184.338 76.531,184.423 76.317,184.528 76.317 C 184.632 76.317,184.718 76.152,184.718 75.951 C 184.718 75.630,185.431 74.122,186.249 72.716 C 187.656 70.295,191.262 66.492,193.768 64.785 C 196.234 63.105,196.921 62.676,197.771 62.284 C 198.318 62.031,198.766 61.753,198.766 61.667 C 198.766 61.580,198.892 61.509,199.047 61.509 C 199.201 61.509,199.948 61.223,200.708 60.873 C 202.469 60.062,202.656 59.986,203.782 59.623 C 204.296 59.457,204.751 59.216,204.794 59.087 C 204.882 58.823,204.446 58.767,204.167 59.006 M168.866 68.344 C 167.971 68.466,167.999 68.475,169.340 68.490 C 170.289 68.501,170.638 68.452,170.384 68.344 C 170.176 68.254,169.962 68.188,169.910 68.197 C 169.858 68.206,169.388 68.272,168.866 68.344 M165.420 69.184 C 164.581 69.578,164.017 69.967,163.942 70.204 C 163.875 70.414,163.695 70.635,163.543 70.693 C 163.390 70.752,163.265 70.951,163.265 71.135 C 163.265 71.384,163.370 71.324,163.671 70.904 C 164.149 70.235,164.949 69.637,166.065 69.115 C 166.509 68.907,166.872 68.691,166.872 68.635 C 166.872 68.496,166.939 68.471,165.420 69.184 M212.625 69.103 C 212.421 69.235,212.627 69.288,213.348 69.290 C 213.972 69.292,214.311 69.221,214.238 69.103 C 214.089 68.861,212.999 68.861,212.625 69.103 M215.093 69.103 C 214.887 69.236,215.061 69.288,215.721 69.290 C 216.282 69.292,216.588 69.220,216.516 69.103 C 216.367 68.862,215.466 68.862,215.093 69.103 M217.418 69.242 C 217.004 69.386,217.162 69.673,217.655 69.673 C 217.916 69.673,218.130 69.596,218.130 69.503 C 218.130 69.284,217.723 69.135,217.418 69.242 M210.726 69.483 C 210.726 69.587,210.977 69.673,211.284 69.673 C 211.592 69.673,211.896 69.587,211.960 69.483 C 212.030 69.370,211.804 69.293,211.402 69.293 C 211.030 69.293,210.726 69.378,210.726 69.483 M209.682 69.673 C 209.617 69.777,209.746 69.862,209.967 69.862 C 210.188 69.862,210.316 69.777,210.252 69.673 C 210.187 69.568,210.059 69.483,209.967 69.483 C 209.875 69.483,209.747 69.568,209.682 69.673 M218.423 69.660 C 218.347 69.783,218.484 69.862,218.772 69.862 C 219.033 69.862,219.294 69.938,219.351 70.031 C 219.452 70.195,220.740 70.528,221.025 70.464 C 221.103 70.446,221.168 70.508,221.168 70.601 C 221.168 70.693,221.467 70.825,221.832 70.894 C 222.197 70.963,222.496 71.100,222.496 71.200 C 222.496 71.300,222.617 71.381,222.765 71.381 C 222.913 71.381,223.063 71.447,223.098 71.528 C 223.132 71.609,223.430 71.844,223.758 72.050 C 225.486 73.136,227.283 75.454,227.717 77.157 C 227.962 78.118,228.487 78.372,228.283 77.431 C 228.206 77.079,228.080 76.749,228.002 76.697 C 227.924 76.645,227.800 76.324,227.726 75.985 C 227.581 75.315,226.113 73.206,225.404 72.648 C 225.161 72.457,224.832 72.171,224.672 72.011 C 223.548 70.886,218.775 69.090,218.423 69.660 M173.443 69.910 C 173.506 70.093,173.627 70.242,173.711 70.242 C 173.796 70.242,173.942 70.473,174.036 70.755 C 174.130 71.037,174.262 71.179,174.329 71.070 C 174.396 70.962,174.198 70.582,173.890 70.225 C 173.581 69.869,173.381 69.727,173.443 69.910 M208.401 69.808 C 208.090 69.856,207.879 70.007,207.879 70.182 C 207.879 70.394,207.997 70.444,208.306 70.362 C 208.541 70.299,208.882 70.246,209.065 70.245 C 209.248 70.243,209.397 70.114,209.397 69.957 C 209.397 69.801,209.290 69.685,209.160 69.701 C 209.029 69.717,208.688 69.765,208.401 69.808 M207.119 70.245 C 206.963 70.327,206.236 70.615,205.505 70.886 C 201.421 72.399,195.349 77.513,195.349 79.439 C 195.349 79.601,195.281 79.734,195.198 79.734 C 195.011 79.734,194.561 81.813,194.700 82.038 C 194.756 82.128,194.711 82.202,194.601 82.202 C 194.490 82.202,194.400 82.399,194.400 82.639 C 194.400 82.879,194.318 83.157,194.218 83.257 C 194.103 83.372,194.102 83.544,194.215 83.723 C 194.358 83.949,194.394 83.920,194.397 83.579 C 194.398 83.344,194.475 83.151,194.568 83.151 C 194.660 83.151,194.794 82.767,194.864 82.297 C 194.935 81.827,195.061 81.443,195.146 81.443 C 195.230 81.443,195.344 81.108,195.399 80.698 C 195.568 79.436,199.562 74.419,200.398 74.419 C 200.544 74.419,200.664 74.339,200.664 74.243 C 200.664 73.951,205.199 71.381,205.714 71.381 C 205.861 71.381,205.980 71.302,205.980 71.206 C 205.980 71.110,206.253 70.972,206.586 70.898 C 207.218 70.760,207.797 70.328,207.548 70.182 C 207.469 70.135,207.276 70.164,207.119 70.245 M162.762 71.686 C 162.688 71.884,162.571 72.088,162.502 72.140 C 162.350 72.254,162.082 73.280,162.204 73.280 C 162.377 73.280,163.137 71.570,163.018 71.450 C 162.950 71.382,162.835 71.488,162.762 71.686 M239.582 76.887 C 239.582 77.095,239.668 77.266,239.772 77.266 C 239.877 77.266,239.969 77.416,239.977 77.598 C 239.987 77.810,240.028 77.842,240.090 77.685 C 240.226 77.347,239.997 76.507,239.769 76.507 C 239.666 76.507,239.582 76.678,239.582 76.887 M183.526 78.195 C 183.352 78.490,183.255 78.778,183.312 78.835 C 183.435 78.958,183.013 80.510,182.787 80.769 C 182.578 81.007,182.584 81.633,182.795 81.633 C 182.939 81.633,183.230 80.776,183.278 80.209 C 183.287 80.104,183.344 79.976,183.405 79.924 C 183.518 79.829,183.959 77.777,183.884 77.699 C 183.861 77.676,183.701 77.899,183.526 78.195 M239.975 78.586 C 239.965 79.085,240.015 79.188,240.184 79.019 C 240.348 78.855,240.351 78.684,240.196 78.364 C 240.000 77.957,239.987 77.971,239.975 78.586 M173.036 78.562 C 173.080 78.789,173.035 78.975,172.936 78.975 C 172.838 78.975,172.762 79.252,172.767 79.592 C 172.775 80.200,172.780 80.197,173.066 79.379 C 173.270 78.797,173.297 78.489,173.157 78.349 C 173.016 78.208,172.980 78.272,173.036 78.562 M228.192 78.595 C 228.192 78.950,228.242 79.000,228.420 78.823 C 228.597 78.646,228.597 78.545,228.420 78.367 C 228.242 78.190,228.192 78.241,228.192 78.595 M228.382 80.114 C 228.382 80.427,228.467 80.683,228.571 80.683 C 228.676 80.683,228.761 80.427,228.761 80.114 C 228.761 79.801,228.676 79.544,228.571 79.544 C 228.467 79.544,228.382 79.801,228.382 80.114 M211.391 79.924 C 211.054 80.069,211.070 80.089,211.533 80.101 C 211.820 80.108,212.055 80.028,212.055 79.924 C 212.055 79.701,211.909 79.701,211.391 79.924 M214.143 79.902 C 214.143 80.094,214.817 80.304,215.377 80.287 C 215.631 80.279,215.536 80.190,215.093 80.019 C 214.277 79.705,214.143 79.688,214.143 79.902 M209.079 80.865 C 208.102 81.542,207.496 82.136,207.637 82.277 C 207.695 82.335,208.018 82.150,208.353 81.866 C 209.520 80.875,209.782 80.683,209.969 80.683 C 210.072 80.683,210.157 80.598,210.157 80.494 C 210.157 80.196,209.933 80.274,209.079 80.865 M215.852 80.494 C 215.852 80.598,215.951 80.683,216.071 80.683 C 216.192 80.683,216.630 81.029,217.044 81.451 C 217.458 81.874,217.849 82.167,217.914 82.102 C 218.041 81.975,216.275 80.304,216.013 80.304 C 215.924 80.304,215.852 80.389,215.852 80.494 M182.442 82.117 C 182.441 82.331,182.355 82.591,182.251 82.695 C 181.961 82.984,181.753 85.334,182.033 85.161 C 182.155 85.086,182.209 84.948,182.151 84.855 C 182.094 84.762,182.132 84.533,182.236 84.346 C 182.539 83.799,182.780 82.256,182.606 81.981 C 182.488 81.795,182.445 81.831,182.442 82.117 M207.192 82.540 C 207.076 82.615,206.917 82.881,206.838 83.131 L 206.696 83.586 207.118 83.193 C 207.537 82.802,207.597 82.280,207.192 82.540 M217.998 82.645 C 218.071 82.836,218.130 83.071,218.130 83.167 C 218.130 83.263,218.215 83.341,218.320 83.341 C 218.613 83.341,218.545 82.969,218.188 82.616 C 217.887 82.317,217.875 82.319,217.998 82.645 M228.382 83.151 C 228.382 83.569,228.467 83.911,228.571 83.911 C 228.676 83.911,228.761 83.569,228.761 83.151 C 228.761 82.734,228.676 82.392,228.571 82.392 C 228.467 82.392,228.382 82.734,228.382 83.151 M206.259 84.196 C 206.210 84.352,206.130 84.608,206.081 84.765 C 205.932 85.243,206.126 85.083,206.426 84.480 C 206.582 84.167,206.629 83.911,206.529 83.911 C 206.429 83.911,206.308 84.039,206.259 84.196 M193.747 84.942 C 193.676 85.414,193.538 85.850,193.439 85.911 C 193.207 86.055,193.206 87.328,193.439 87.328 C 193.537 87.328,193.675 86.944,193.745 86.474 C 193.816 86.004,193.948 85.619,194.039 85.619 C 194.131 85.619,194.194 85.427,194.180 85.192 C 194.167 84.957,194.189 84.648,194.230 84.504 C 194.271 84.360,194.208 84.207,194.090 84.164 C 193.961 84.116,193.825 84.425,193.747 84.942 M239.886 84.569 C 239.817 84.841,239.839 85.203,239.935 85.374 C 240.075 85.624,240.134 85.564,240.244 85.063 C 240.411 84.304,240.070 83.834,239.886 84.569 M228.192 84.724 C 228.192 85.249,228.445 85.409,228.678 85.032 C 228.748 84.917,228.668 84.685,228.499 84.516 C 228.216 84.233,228.192 84.250,228.192 84.724 M218.130 85.050 C 218.130 85.259,218.197 85.430,218.279 85.430 C 218.361 85.430,218.428 85.259,218.428 85.050 C 218.428 84.841,218.361 84.670,218.279 84.670 C 218.197 84.670,218.130 84.841,218.130 85.050 M181.490 85.809 C 181.490 86.018,181.576 86.189,181.680 86.189 C 181.785 86.189,181.870 86.018,181.870 85.809 C 181.870 85.600,181.785 85.430,181.680 85.430 C 181.576 85.430,181.490 85.600,181.490 85.809 M227.812 86.200 C 227.812 86.415,227.897 86.538,228.002 86.474 C 228.106 86.409,228.192 86.233,228.192 86.083 C 228.192 85.932,228.106 85.809,228.002 85.809 C 227.897 85.809,227.812 85.985,227.812 86.200 M239.820 86.093 C 239.536 86.415,239.503 87.138,239.772 87.138 C 239.877 87.138,239.969 87.074,239.978 86.996 C 239.986 86.917,240.032 86.618,240.079 86.331 C 240.176 85.739,240.151 85.716,239.820 86.093 M227.622 87.138 C 227.622 87.243,227.750 87.328,227.907 87.328 C 228.064 87.328,228.192 87.243,228.192 87.138 C 228.192 87.034,228.064 86.948,227.907 86.948 C 227.750 86.948,227.622 87.034,227.622 87.138 M170.669 87.613 C 170.669 87.769,170.755 87.897,170.859 87.897 C 170.963 87.897,171.049 87.769,171.049 87.613 C 171.049 87.456,170.963 87.328,170.859 87.328 C 170.755 87.328,170.669 87.456,170.669 87.613 M180.812 88.191 C 180.677 88.908,180.769 89.153,181.098 88.949 C 181.349 88.794,181.368 87.518,181.119 87.518 C 181.020 87.518,180.881 87.821,180.812 88.191 M193.105 87.761 C 192.993 87.896,192.971 88.116,193.056 88.254 C 193.164 88.429,193.237 88.357,193.304 88.010 C 193.411 87.450,193.387 87.421,193.105 87.761 M239.474 87.958 C 239.322 88.355,239.512 88.613,239.767 88.358 C 239.875 88.250,239.878 88.069,239.774 87.901 C 239.629 87.666,239.583 87.674,239.474 87.958 M227.343 88.713 C 227.262 88.900,227.249 89.106,227.314 89.171 C 227.507 89.364,227.662 89.093,227.573 88.719 C 227.495 88.388,227.485 88.387,227.343 88.713 M192.588 89.274 C 192.505 89.613,192.428 89.976,192.417 90.081 C 192.406 90.185,192.329 90.377,192.248 90.508 C 192.166 90.638,192.153 90.832,192.218 90.938 C 192.382 91.204,192.739 90.954,192.624 90.654 C 192.573 90.521,192.603 90.337,192.691 90.246 C 192.779 90.155,192.910 89.760,192.982 89.369 C 193.145 88.484,192.801 88.401,192.588 89.274 M204.587 89.549 C 204.524 89.935,204.513 90.291,204.562 90.340 C 204.611 90.389,204.651 90.286,204.651 90.112 C 204.651 89.938,204.715 89.796,204.794 89.796 C 204.872 89.796,204.948 89.582,204.963 89.321 C 205.006 88.586,204.715 88.762,204.587 89.549 M239.056 89.262 C 239.174 89.614,239.582 89.672,239.582 89.337 C 239.582 89.172,239.447 89.037,239.282 89.037 C 239.116 89.037,239.015 89.138,239.056 89.262 M180.240 90.318 C 180.154 90.918,180.080 91.495,180.075 91.599 C 180.071 91.704,180.011 91.832,179.943 91.884 C 179.699 92.071,179.524 93.847,179.764 93.699 C 179.887 93.623,179.935 93.397,179.872 93.197 C 179.807 92.994,179.845 92.833,179.959 92.833 C 180.070 92.833,180.161 92.625,180.161 92.370 C 180.161 92.115,180.254 91.849,180.368 91.779 C 180.481 91.709,180.533 91.494,180.483 91.302 C 180.433 91.110,180.458 90.928,180.539 90.897 C 180.848 90.778,180.974 89.226,180.675 89.226 C 180.479 89.226,180.348 89.554,180.240 90.318 M239.038 89.969 C 238.845 90.089,238.829 90.221,238.978 90.485 C 239.162 90.813,239.187 90.815,239.303 90.514 C 239.481 90.051,239.348 89.777,239.038 89.969 M216.573 90.660 C 216.514 90.759,216.411 91.224,216.345 91.694 L 216.224 92.549 216.524 91.729 C 216.798 90.979,216.833 90.224,216.573 90.660 M226.673 90.935 C 226.673 91.144,226.758 91.315,226.863 91.315 C 226.967 91.315,227.053 91.144,227.053 90.935 C 227.053 90.726,226.967 90.555,226.863 90.555 C 226.758 90.555,226.673 90.726,226.673 90.935 M169.570 92.346 C 169.444 92.624,169.346 93.039,169.354 93.269 C 169.363 93.564,169.448 93.467,169.642 92.938 C 169.962 92.062,169.907 91.606,169.570 92.346 M238.443 92.169 C 238.443 92.326,238.529 92.454,238.633 92.454 C 238.738 92.454,238.823 92.326,238.823 92.169 C 238.823 92.012,238.738 91.884,238.633 91.884 C 238.529 91.884,238.443 92.012,238.443 92.169 M191.742 92.460 C 191.489 92.623,191.489 92.664,191.742 92.827 C 191.925 92.946,192.049 92.946,192.090 92.827 C 192.215 92.463,192.034 92.271,191.742 92.460 M226.218 92.755 C 226.066 93.153,226.073 93.213,226.273 93.213 C 226.510 93.213,226.691 92.677,226.495 92.556 C 226.406 92.501,226.281 92.591,226.218 92.755 M238.392 92.758 C 238.316 92.834,238.253 93.028,238.253 93.188 C 238.253 93.401,238.310 93.423,238.465 93.268 C 238.581 93.152,238.643 92.958,238.603 92.838 C 238.563 92.718,238.468 92.682,238.392 92.758 M191.457 93.403 C 191.393 93.507,191.395 93.682,191.462 93.791 C 191.530 93.900,191.485 94.110,191.362 94.257 C 191.240 94.405,191.196 94.616,191.264 94.727 C 191.437 95.007,191.790 94.752,191.668 94.434 C 191.613 94.291,191.650 94.124,191.750 94.062 C 191.985 93.917,191.987 93.213,191.753 93.213 C 191.655 93.213,191.522 93.299,191.457 93.403 M238.057 93.886 C 237.891 94.086,237.875 94.240,238.009 94.374 C 238.143 94.507,238.234 94.415,238.297 94.081 C 238.406 93.512,238.383 93.493,238.057 93.886 M179.141 94.566 C 178.973 95.408,178.988 95.491,179.307 95.491 C 179.513 95.491,179.592 95.280,179.592 94.732 C 179.592 93.830,179.309 93.725,179.141 94.566 M168.961 94.447 C 168.961 94.604,169.046 94.732,169.150 94.732 C 169.255 94.732,169.340 94.604,169.340 94.447 C 169.340 94.290,169.255 94.162,169.150 94.162 C 169.046 94.162,168.961 94.290,168.961 94.447 M237.684 95.005 C 237.684 95.444,238.011 95.523,238.119 95.109 C 238.183 94.865,238.124 94.732,237.951 94.732 C 237.804 94.732,237.684 94.855,237.684 95.005 M190.982 95.491 C 190.982 95.700,191.068 95.871,191.172 95.871 C 191.277 95.871,191.362 95.700,191.362 95.491 C 191.362 95.282,191.277 95.112,191.172 95.112 C 191.068 95.112,190.982 95.282,190.982 95.491 M202.994 95.226 C 203.057 95.289,203.028 95.567,202.929 95.843 C 202.761 96.316,202.767 96.324,203.036 95.977 C 203.377 95.538,203.409 95.112,203.101 95.112 C 202.979 95.112,202.931 95.163,202.994 95.226 M225.464 95.729 C 225.292 96.370,225.321 97.046,225.516 96.926 C 225.611 96.868,225.643 96.649,225.589 96.440 C 225.533 96.228,225.583 96.061,225.702 96.061 C 225.818 96.061,225.914 95.890,225.914 95.681 C 225.914 95.167,225.606 95.199,225.464 95.729 M178.808 95.729 C 178.781 95.781,178.716 96.158,178.537 97.295 C 178.471 97.712,178.340 98.135,178.245 98.234 C 178.013 98.478,178.026 99.098,178.263 99.098 C 178.367 99.098,178.453 98.932,178.453 98.730 C 178.453 98.527,178.542 98.306,178.650 98.239 C 178.759 98.172,178.796 97.953,178.732 97.753 C 178.668 97.550,178.706 97.390,178.820 97.390 C 178.931 97.390,179.022 97.193,179.022 96.953 C 179.022 96.713,179.117 96.421,179.234 96.305 C 179.457 96.082,179.314 95.681,179.011 95.681 C 178.913 95.681,178.822 95.702,178.808 95.729 M190.708 96.233 C 190.650 96.328,190.654 96.542,190.717 96.708 C 190.781 96.874,190.750 97.010,190.647 97.010 C 190.545 97.010,190.404 97.373,190.333 97.817 C 190.263 98.261,190.157 98.816,190.098 99.051 C 189.973 99.552,190.310 99.631,190.507 99.146 C 190.643 98.812,191.172 96.470,191.172 96.203 C 191.172 96.003,190.837 96.025,190.708 96.233 M237.114 97.617 C 237.114 98.527,237.412 98.415,237.609 97.431 C 237.707 96.944,237.669 96.820,237.423 96.820 C 237.187 96.820,237.114 97.008,237.114 97.617 M224.964 97.674 C 224.964 97.831,225.050 97.959,225.154 97.959 C 225.259 97.959,225.344 97.831,225.344 97.674 C 225.344 97.518,225.259 97.390,225.154 97.390 C 225.050 97.390,224.964 97.518,224.964 97.674 M236.732 99.051 C 236.731 99.234,236.676 99.597,236.611 99.858 C 236.526 100.202,236.552 100.278,236.705 100.136 C 237.017 99.849,237.211 98.719,236.948 98.719 C 236.831 98.719,236.734 98.868,236.732 99.051 M177.883 99.668 C 177.883 99.877,177.969 100.047,178.073 100.047 C 178.178 100.047,178.263 99.877,178.263 99.668 C 178.263 99.459,178.178 99.288,178.073 99.288 C 177.969 99.288,177.883 99.459,177.883 99.668 M224.484 99.487 C 224.304 99.779,224.551 99.968,224.794 99.724 C 224.931 99.588,224.934 99.481,224.804 99.401 C 224.698 99.336,224.554 99.374,224.484 99.487 M189.794 99.810 C 189.754 99.888,189.706 100.200,189.687 100.503 C 189.668 100.806,189.560 101.165,189.447 101.301 C 189.334 101.438,189.296 101.639,189.364 101.748 C 189.431 101.857,189.396 101.946,189.285 101.946 C 189.174 101.946,189.084 102.122,189.084 102.337 C 189.084 102.896,189.411 102.618,189.562 101.931 C 189.632 101.612,189.809 101.122,189.955 100.842 C 190.261 100.256,190.305 99.668,190.044 99.668 C 189.946 99.668,189.833 99.732,189.794 99.810 M167.640 100.221 C 167.524 100.439,167.508 100.617,167.605 100.617 C 167.800 100.617,168.069 100.042,167.936 99.909 C 167.890 99.863,167.757 100.003,167.640 100.221 M177.418 100.921 C 177.280 101.653,177.356 101.869,177.681 101.669 C 177.924 101.518,177.955 100.237,177.715 100.237 C 177.622 100.237,177.488 100.545,177.418 100.921 M224.337 100.359 C 224.185 100.510,224.357 100.807,224.596 100.807 C 224.694 100.807,224.775 100.679,224.775 100.522 C 224.775 100.228,224.551 100.145,224.337 100.359 M201.614 100.891 C 201.614 101.472,201.722 101.519,201.858 100.997 C 201.913 100.788,201.880 100.570,201.786 100.511 C 201.691 100.453,201.614 100.623,201.614 100.891 M236.088 101.402 C 235.927 102.408,236.246 102.797,236.438 101.829 C 236.477 101.632,236.527 101.386,236.549 101.281 C 236.625 100.927,236.545 100.617,236.379 100.617 C 236.288 100.617,236.157 100.970,236.088 101.402 M224.158 101.473 C 224.087 101.848,224.120 101.906,224.315 101.744 C 224.451 101.631,224.515 101.417,224.458 101.268 C 224.314 100.891,224.263 100.925,224.158 101.473 M177.100 102.136 C 177.087 102.240,177.066 102.404,177.053 102.500 C 177.040 102.595,176.965 102.738,176.887 102.816 C 176.654 103.049,176.724 103.275,177.029 103.275 C 177.186 103.275,177.315 103.168,177.316 103.037 C 177.318 102.907,177.370 102.608,177.433 102.373 C 177.502 102.117,177.463 101.946,177.336 101.946 C 177.219 101.946,177.113 102.031,177.100 102.136 M235.691 102.705 C 235.626 102.810,235.626 102.981,235.691 103.085 C 235.755 103.189,235.739 103.382,235.656 103.512 C 235.572 103.643,235.494 103.920,235.483 104.129 C 235.471 104.338,235.428 104.626,235.387 104.770 C 235.345 104.913,235.407 105.067,235.525 105.110 C 235.656 105.159,235.793 104.833,235.875 104.280 C 235.950 103.779,236.096 103.267,236.199 103.141 C 236.398 102.900,236.260 102.515,235.975 102.515 C 235.883 102.515,235.755 102.601,235.691 102.705 M213.331 102.958 C 213.119 103.496,213.154 103.771,213.402 103.523 C 213.516 103.409,213.578 103.157,213.539 102.963 C 213.470 102.623,213.463 102.623,213.331 102.958 M188.825 103.179 C 188.885 103.335,189.010 103.415,189.104 103.357 C 189.372 103.192,189.302 102.895,188.995 102.895 C 188.826 102.895,188.759 103.006,188.825 103.179 M223.636 103.465 C 223.636 103.819,223.686 103.870,223.863 103.692 C 224.040 103.515,224.040 103.414,223.863 103.237 C 223.686 103.060,223.636 103.110,223.636 103.465 M188.602 103.857 C 188.533 103.968,188.525 104.108,188.584 104.167 C 188.924 104.507,185.697 108.021,185.045 108.021 C 184.983 108.021,184.692 108.123,184.398 108.248 C 183.819 108.494,183.658 108.535,183.151 108.569 C 182.576 108.606,182.791 108.970,183.389 108.970 C 183.702 108.970,183.958 108.896,183.958 108.805 C 183.958 108.714,184.108 108.644,184.290 108.648 C 185.769 108.686,188.651 106.074,188.788 104.572 C 188.794 104.502,188.863 104.381,188.942 104.303 C 189.143 104.101,189.118 103.654,188.905 103.654 C 188.807 103.654,188.670 103.746,188.602 103.857 M200.783 104.191 C 200.699 104.434,200.680 104.683,200.742 104.745 C 200.939 104.941,201.077 104.651,201.005 104.193 L 200.935 103.749 200.783 104.191 M223.341 104.241 C 223.270 104.354,223.308 104.542,223.424 104.658 C 223.579 104.813,223.636 104.759,223.636 104.452 C 223.636 103.993,223.537 103.923,223.341 104.241 M176.844 105.126 C 176.921 105.308,176.980 105.586,176.975 105.743 C 176.947 106.554,178.922 108.502,179.919 108.646 C 180.151 108.680,180.401 108.766,180.473 108.839 C 180.675 109.041,181.490 108.994,181.490 108.780 C 181.490 108.676,181.234 108.590,180.921 108.590 C 180.607 108.590,180.351 108.514,180.351 108.421 C 180.351 108.328,180.137 108.198,179.876 108.133 C 179.274 107.981,177.693 106.481,177.693 106.060 C 177.693 105.886,177.608 105.743,177.504 105.743 C 177.399 105.743,177.314 105.529,177.314 105.268 C 177.314 104.959,177.207 104.794,177.009 104.794 C 176.791 104.794,176.744 104.889,176.844 105.126 M223.066 105.363 C 223.066 105.717,223.117 105.768,223.294 105.591 C 223.471 105.414,223.471 105.312,223.294 105.135 C 223.117 104.958,223.066 105.009,223.066 105.363 M166.562 106.977 C 166.562 108.021,166.594 108.424,166.633 107.872 C 166.671 107.320,166.671 106.466,166.632 105.974 C 166.593 105.481,166.561 105.933,166.562 106.977 M235.090 105.661 C 235.027 105.824,235.072 106.055,235.191 106.173 C 235.351 106.333,235.406 106.257,235.406 105.876 C 235.406 105.304,235.264 105.208,235.090 105.661 M222.773 106.325 C 222.705 106.436,222.694 106.573,222.750 106.629 C 222.886 106.765,223.256 106.525,223.256 106.301 C 223.256 106.058,222.928 106.075,222.773 106.325 M234.836 106.882 C 234.836 107.091,234.922 107.262,235.026 107.262 C 235.131 107.262,235.216 107.091,235.216 106.882 C 235.216 106.673,235.131 106.502,235.026 106.502 C 234.922 106.502,234.836 106.673,234.836 106.882 M222.496 107.356 C 222.496 107.513,222.625 107.641,222.781 107.641 C 222.938 107.641,223.066 107.513,223.066 107.356 C 223.066 107.200,222.938 107.072,222.781 107.072 C 222.625 107.072,222.496 107.200,222.496 107.356 M234.535 107.926 C 234.603 108.200,234.572 108.401,234.460 108.401 C 234.354 108.401,234.267 108.579,234.267 108.796 C 234.267 109.028,234.365 109.159,234.504 109.114 C 234.815 109.011,234.939 107.451,234.637 107.451 C 234.495 107.451,234.458 107.623,234.535 107.926 M199.682 108.116 C 199.619 108.325,199.506 108.666,199.429 108.875 C 199.309 109.201,199.335 109.193,199.610 108.824 C 199.787 108.587,199.901 108.246,199.863 108.065 C 199.804 107.780,199.780 107.786,199.682 108.116 M222.482 107.973 C 222.474 108.052,222.438 108.270,222.402 108.459 C 222.351 108.729,222.392 108.756,222.595 108.587 C 222.737 108.469,222.807 108.251,222.750 108.102 C 222.637 107.809,222.505 107.745,222.482 107.973 M222.117 109.255 C 222.117 109.411,222.202 109.540,222.307 109.540 C 222.411 109.540,222.496 109.411,222.496 109.255 C 222.496 109.098,222.411 108.970,222.307 108.970 C 222.202 108.970,222.117 109.098,222.117 109.255 M199.003 109.476 C 198.873 109.528,198.766 109.664,198.766 109.778 C 198.766 109.891,198.624 110.141,198.451 110.333 C 198.277 110.524,198.183 110.729,198.242 110.787 C 198.390 110.935,199.090 110.154,199.205 109.713 C 199.257 109.513,199.287 109.357,199.270 109.365 C 199.254 109.373,199.134 109.423,199.003 109.476 M234.110 109.645 C 234.196 110.057,234.533 110.082,234.610 109.682 C 234.650 109.474,234.557 109.350,234.362 109.350 C 234.179 109.350,234.075 109.473,234.110 109.645 M221.927 110.098 C 221.927 110.313,222.012 110.489,222.117 110.489 C 222.221 110.489,222.307 110.366,222.307 110.215 C 222.307 110.065,222.221 109.889,222.117 109.824 C 222.012 109.760,221.927 109.883,221.927 110.098 M233.824 110.426 C 233.619 110.631,233.677 110.820,233.982 110.937 C 234.176 111.012,234.267 110.927,234.267 110.673 C 234.267 110.300,234.063 110.186,233.824 110.426 M221.669 111.000 C 221.488 111.181,221.522 111.628,221.717 111.628 C 221.950 111.628,222.137 111.093,221.945 110.975 C 221.860 110.922,221.735 110.933,221.669 111.000 M196.488 112.495 C 195.809 113.162,195.053 113.886,194.808 114.104 C 194.256 114.595,194.415 114.824,195.028 114.422 C 195.521 114.099,198.196 111.500,198.196 111.344 C 198.196 111.013,197.560 111.442,196.488 112.495 M233.697 111.628 C 233.697 111.837,233.783 112.008,233.887 112.008 C 233.991 112.008,234.077 111.837,234.077 111.628 C 234.077 111.419,233.991 111.248,233.887 111.248 C 233.783 111.248,233.697 111.419,233.697 111.628 M167.542 112.008 C 167.747 112.817,168.383 114.096,168.582 114.096 C 168.819 114.096,168.826 113.849,168.595 113.612 C 168.499 113.513,168.196 113.004,167.921 112.482 C 167.647 111.960,167.476 111.747,167.542 112.008 M221.357 112.197 C 221.357 112.442,221.454 112.577,221.595 112.530 C 221.725 112.486,221.832 112.337,221.832 112.197 C 221.832 112.058,221.725 111.909,221.595 111.865 C 221.454 111.818,221.357 111.953,221.357 112.197 M233.447 112.332 C 233.375 112.448,233.368 112.679,233.432 112.845 C 233.496 113.011,233.453 113.147,233.338 113.147 C 233.222 113.147,233.128 113.318,233.128 113.526 C 233.128 114.154,233.481 113.954,233.613 113.252 C 233.751 112.513,233.657 111.991,233.447 112.332 M221.168 113.236 C 221.168 113.405,221.279 113.472,221.452 113.405 C 221.609 113.345,221.737 113.220,221.737 113.126 C 221.737 113.033,221.609 112.957,221.452 112.957 C 221.296 112.957,221.168 113.082,221.168 113.236 M210.361 113.558 C 210.353 113.732,210.248 113.907,210.128 113.947 C 210.008 113.987,209.951 114.144,210.001 114.295 C 210.069 114.498,210.154 114.456,210.327 114.132 C 210.456 113.892,210.519 113.593,210.469 113.468 C 210.416 113.339,210.370 113.378,210.361 113.558 M220.883 113.906 C 220.744 114.130,220.924 114.476,221.179 114.476 C 221.277 114.476,221.357 114.305,221.357 114.096 C 221.357 113.695,221.081 113.585,220.883 113.906 M155.685 114.227 C 155.728 114.720,156.025 115.138,156.038 114.724 C 156.045 114.495,155.966 114.255,155.861 114.191 C 155.757 114.126,155.678 114.143,155.685 114.227 M232.853 114.269 C 232.795 114.364,232.802 114.586,232.870 114.762 C 232.938 114.939,232.908 115.139,232.803 115.207 C 232.465 115.426,232.311 116.754,232.623 116.754 C 232.872 116.754,233.021 116.207,233.231 114.523 C 233.284 114.096,233.055 113.942,232.853 114.269 M168.951 114.618 C 169.295 115.210,169.614 115.541,170.195 115.910 C 170.635 116.190,170.551 116.046,169.825 115.279 C 168.830 114.225,168.638 114.081,168.951 114.618 M193.593 114.981 C 193.102 115.239,192.884 115.615,193.225 115.615 C 193.390 115.615,194.210 114.898,194.210 114.753 C 194.210 114.650,194.249 114.635,193.593 114.981 M220.725 114.792 C 220.493 115.023,220.594 115.425,220.883 115.425 C 221.041 115.425,221.168 115.256,221.168 115.045 C 221.168 114.667,220.965 114.551,220.725 114.792 M156.155 115.601 C 156.071 115.736,156.086 115.901,156.188 115.968 C 156.290 116.035,156.423 116.217,156.482 116.374 C 156.579 116.627,156.591 116.627,156.592 116.374 C 156.596 115.822,156.320 115.334,156.155 115.601 M191.552 116.217 C 190.798 116.638,190.665 116.763,191.075 116.667 C 191.388 116.594,191.687 116.467,191.740 116.387 C 191.793 116.306,192.093 116.102,192.406 115.935 C 192.720 115.767,192.890 115.631,192.786 115.632 C 192.682 115.634,192.126 115.897,191.552 116.217 M220.509 115.860 C 220.428 116.047,220.415 116.254,220.480 116.319 C 220.672 116.512,220.828 116.241,220.739 115.867 C 220.660 115.535,220.650 115.535,220.509 115.860 M208.194 117.133 C 207.793 117.753,207.109 118.635,206.675 119.093 C 206.241 119.551,205.392 120.446,204.790 121.082 C 204.188 121.718,203.419 122.429,203.081 122.662 C 202.177 123.287,201.725 123.778,202.054 123.778 C 202.790 123.778,207.780 118.608,208.792 116.797 C 209.340 115.817,208.876 116.077,208.194 117.133 M170.859 116.455 C 170.859 116.500,171.137 116.670,171.476 116.833 L 172.093 117.129 171.645 116.752 C 171.230 116.402,170.859 116.262,170.859 116.455 M220.218 117.798 C 220.218 118.477,220.301 119.032,220.402 119.032 C 220.503 119.032,220.540 119.153,220.483 119.301 C 220.141 120.192,223.454 122.824,223.936 122.045 C 223.992 121.954,223.901 121.879,223.734 121.879 C 223.566 121.879,223.326 121.795,223.200 121.691 C 223.074 121.587,222.587 121.194,222.117 120.816 C 220.956 119.883,220.616 119.193,220.606 117.750 C 220.602 117.091,220.514 116.564,220.408 116.564 C 220.301 116.564,220.218 117.102,220.218 117.798 M232.216 117.171 C 232.091 117.297,231.989 117.602,231.989 117.850 C 231.989 118.281,230.414 120.551,230.115 120.551 C 230.036 120.551,229.801 120.700,229.593 120.883 C 229.062 121.347,228.032 121.879,227.654 121.882 C 227.399 121.885,227.389 121.918,227.600 122.052 C 227.854 122.212,228.374 122.059,229.827 121.396 C 230.580 121.053,231.989 119.490,231.989 118.999 C 231.989 118.793,232.117 118.497,232.273 118.340 C 232.430 118.184,232.558 117.805,232.558 117.499 C 232.558 116.874,232.536 116.852,232.216 117.171 M172.841 117.611 C 173.044 117.766,173.322 117.893,173.458 117.893 C 173.882 117.893,173.734 117.749,173.090 117.534 C 172.525 117.346,172.504 117.352,172.841 117.611 M188.196 117.645 C 187.738 117.734,187.177 118.272,187.542 118.272 C 187.659 118.272,187.755 118.187,187.755 118.083 C 187.755 117.978,187.905 117.891,188.087 117.890 C 188.270 117.888,188.548 117.804,188.704 117.703 C 188.996 117.514,188.916 117.505,188.196 117.645 M158.424 120.317 C 158.529 120.395,158.795 120.796,159.017 121.208 C 159.417 121.953,159.848 122.302,159.848 121.882 C 159.848 121.761,159.741 121.550,159.611 121.412 C 159.480 121.275,159.212 120.939,159.015 120.667 C 158.817 120.394,158.561 120.172,158.445 120.174 C 158.309 120.176,158.302 120.227,158.424 120.317 M224.680 122.259 C 224.606 122.378,224.994 122.449,225.713 122.449 C 226.353 122.449,226.863 122.365,226.863 122.259 C 226.863 122.155,226.398 122.069,225.830 122.069 C 225.262 122.069,224.744 122.155,224.680 122.259 M160.038 122.423 C 160.038 122.719,162.379 125.107,162.669 125.107 C 162.987 125.107,163.004 125.129,161.462 123.601 C 160.679 122.825,160.038 122.295,160.038 122.423 M200.854 124.377 C 200.432 124.637,200.284 124.818,200.448 124.874 C 200.589 124.922,200.929 124.738,201.203 124.465 C 201.806 123.862,201.727 123.841,200.854 124.377 M163.194 125.574 C 163.252 125.727,163.463 125.903,163.661 125.966 C 163.860 126.029,164.151 126.210,164.308 126.367 C 164.563 126.621,164.594 126.620,164.594 126.354 C 164.594 126.190,164.485 126.056,164.352 126.056 C 164.218 126.056,163.963 125.885,163.784 125.676 C 163.405 125.234,163.039 125.171,163.194 125.574 M198.196 126.076 C 197.688 126.399,197.477 126.620,197.674 126.622 C 197.857 126.624,198.007 126.540,198.007 126.436 C 198.007 126.331,198.071 126.264,198.149 126.286 C 198.391 126.353,199.400 125.738,199.220 125.633 C 199.127 125.578,198.666 125.778,198.196 126.076 M165.058 126.916 C 165.539 127.281,165.842 127.276,165.476 126.910 C 165.319 126.754,165.078 126.628,164.940 126.632 C 164.783 126.635,164.826 126.741,165.058 126.916 M166.044 127.480 C 166.104 127.636,166.294 127.767,166.465 127.771 C 166.637 127.774,166.943 127.902,167.146 128.055 C 167.595 128.395,167.949 128.427,167.594 128.097 C 167.314 127.835,166.212 127.195,166.042 127.195 C 165.983 127.195,165.984 127.323,166.044 127.480 M169.340 129.093 C 169.340 129.198,169.461 129.283,169.610 129.283 C 169.758 129.283,170.035 129.338,170.227 129.404 C 170.532 129.510,170.528 129.487,170.195 129.220 C 169.763 128.874,169.340 128.812,169.340 129.093 M189.654 129.548 C 189.654 129.732,190.188 129.801,190.430 129.648 C 190.625 129.525,190.556 129.478,190.176 129.476 C 189.888 129.474,189.654 129.507,189.654 129.548 M172.378 130.043 C 172.639 130.126,173.066 130.193,173.327 130.191 C 173.753 130.188,173.744 130.173,173.232 130.043 C 172.429 129.838,171.740 129.838,172.378 130.043 " stroke="none" fill="#5e97ba" fill-rule="evenodd"></path><path id="path3" d="M209.145 58.515 C 209.023 58.591,208.778 58.608,208.602 58.553 C 208.426 58.499,208.127 58.540,207.938 58.645 C 207.749 58.750,207.167 58.928,206.645 59.039 C 205.376 59.311,205.344 59.319,205.126 59.451 C 205.021 59.515,204.637 59.629,204.271 59.705 C 203.906 59.782,203.522 59.910,203.417 59.989 C 203.313 60.069,203.014 60.197,202.753 60.274 C 195.411 62.445,187.035 69.837,184.898 76.032 C 184.646 76.763,184.392 77.404,184.334 77.456 C 184.275 77.508,184.071 78.234,183.880 79.070 C 183.689 79.905,183.456 80.684,183.362 80.802 C 183.269 80.919,183.242 81.145,183.303 81.305 C 183.365 81.464,183.323 81.651,183.212 81.720 C 183.100 81.789,183.010 81.989,183.010 82.166 C 183.011 82.461,182.167 85.721,181.919 86.379 C 181.860 86.535,181.829 86.806,181.850 86.980 C 181.871 87.154,181.758 87.325,181.599 87.360 C 181.390 87.405,181.361 87.501,181.495 87.708 C 181.758 88.112,181.992 87.707,182.263 86.379 C 182.380 85.804,182.724 84.592,183.027 83.685 C 183.330 82.777,183.579 81.778,183.579 81.465 C 183.579 81.152,183.652 80.850,183.742 80.795 C 183.832 80.739,183.960 80.296,184.026 79.810 C 184.093 79.323,184.321 78.646,184.532 78.304 C 184.743 77.962,184.897 77.432,184.874 77.126 C 184.833 76.594,186.124 73.640,186.457 73.503 C 186.539 73.469,186.874 72.914,187.200 72.269 C 187.527 71.624,188.223 70.659,188.747 70.123 C 189.270 69.588,189.868 68.884,190.075 68.557 C 190.281 68.231,190.559 67.964,190.692 67.964 C 190.825 67.964,191.436 67.467,192.049 66.860 C 192.663 66.253,193.662 65.475,194.268 65.131 C 194.875 64.787,195.472 64.345,195.595 64.147 C 195.719 63.949,195.965 63.787,196.143 63.787 C 196.320 63.787,196.517 63.704,196.580 63.602 C 196.858 63.152,201.831 60.750,202.484 60.750 C 202.604 60.750,202.905 60.597,203.154 60.410 C 203.403 60.223,203.906 60.044,204.271 60.012 C 204.637 59.979,205.097 59.866,205.295 59.761 C 206.153 59.302,209.383 58.685,211.106 58.652 C 211.576 58.642,212.131 58.558,212.340 58.463 C 212.594 58.348,212.166 58.305,211.044 58.334 C 210.122 58.358,209.268 58.439,209.145 58.515 M217.424 58.572 C 218.134 58.833,218.700 58.779,218.700 58.451 C 218.700 58.358,218.251 58.288,217.703 58.295 L 216.706 58.309 217.424 58.572 M219.382 58.442 C 219.254 58.649,220.685 59.040,221.584 59.044 C 221.929 59.045,222.561 59.246,222.988 59.490 C 223.695 59.894,224.252 60.093,225.212 60.284 C 225.400 60.322,226.014 60.570,226.577 60.836 C 227.139 61.102,227.682 61.319,227.785 61.319 C 227.887 61.319,228.327 61.661,228.761 62.079 C 229.196 62.496,229.738 62.838,229.967 62.838 C 230.465 62.838,232.566 64.524,232.776 65.093 C 232.862 65.325,233.091 65.496,233.316 65.496 C 233.565 65.496,233.777 65.681,233.901 66.006 C 234.007 66.287,234.263 66.635,234.468 66.778 C 234.673 66.922,235.014 67.355,235.226 67.739 C 235.438 68.124,235.823 68.732,236.083 69.092 C 236.343 69.451,236.609 69.964,236.674 70.231 C 236.739 70.498,236.993 70.958,237.238 71.253 C 237.483 71.548,237.684 71.978,237.684 72.208 C 237.684 72.438,237.803 72.795,237.948 73.002 C 238.766 74.171,239.672 80.009,239.502 83.022 C 239.442 84.085,239.448 84.827,239.515 84.670 C 239.582 84.514,239.722 84.172,239.826 83.911 L 240.015 83.436 240.160 83.911 C 240.241 84.177,240.304 83.178,240.304 81.633 C 240.304 80.119,240.243 79.093,240.169 79.355 L 240.034 79.829 239.808 79.414 C 239.533 78.909,239.512 78.215,239.772 78.215 C 240.078 78.215,239.990 77.697,239.663 77.572 C 239.474 77.499,239.379 77.264,239.405 76.934 C 239.428 76.647,239.404 76.284,239.351 76.127 C 239.298 75.971,239.065 75.202,238.835 74.419 C 236.446 66.317,229.054 59.870,220.664 58.572 C 220.440 58.538,220.084 58.455,219.874 58.388 C 219.663 58.321,219.442 58.346,219.382 58.442 M213.384 68.729 C 213.749 68.812,214.231 68.938,214.454 69.008 C 214.681 69.080,214.916 69.045,214.987 68.930 C 215.140 68.682,216.036 68.659,216.646 68.888 C 216.888 68.978,217.253 68.992,217.457 68.919 C 218.004 68.723,216.345 68.529,214.354 68.555 C 213.077 68.572,212.865 68.610,213.384 68.729 M211.616 69.117 C 212.069 69.407,212.450 69.487,213.134 69.433 L 214.048 69.361 213.052 69.327 C 212.084 69.294,211.714 69.030,212.387 68.854 C 212.570 68.806,212.335 68.759,211.865 68.749 L 211.011 68.730 211.616 69.117 M209.777 69.100 C 208.261 69.289,205.939 69.994,204.721 70.635 C 204.139 70.941,203.554 71.191,203.421 71.191 C 203.288 71.191,203.073 71.319,202.943 71.476 C 202.813 71.633,202.558 71.761,202.376 71.761 C 200.669 71.761,194.858 78.154,194.291 80.656 C 194.158 81.245,193.921 82.112,193.765 82.582 C 193.405 83.668,192.688 86.593,192.509 87.708 C 192.433 88.178,192.187 89.072,191.961 89.694 C 191.534 90.877,191.420 92.074,191.736 92.074 C 191.837 92.074,191.870 91.945,191.810 91.787 C 191.749 91.629,191.797 91.382,191.917 91.237 C 192.037 91.093,192.113 90.902,192.086 90.813 C 192.006 90.546,192.774 87.519,192.922 87.518 C 192.997 87.518,193.015 87.404,192.961 87.264 C 192.908 87.125,192.986 86.634,193.136 86.173 C 193.285 85.712,193.554 84.737,193.733 84.006 C 193.912 83.275,194.129 82.506,194.215 82.297 C 194.302 82.088,194.475 81.448,194.601 80.873 C 195.621 76.222,204.149 69.721,209.640 69.409 C 210.139 69.381,210.648 69.258,210.770 69.135 C 210.892 69.013,210.953 68.926,210.907 68.941 C 210.860 68.956,210.351 69.028,209.777 69.100 M218.017 69.074 C 218.083 69.180,218.370 69.263,218.655 69.257 C 222.354 69.184,227.617 73.617,228.555 77.596 C 228.676 78.112,228.728 78.182,228.742 77.849 C 228.793 76.631,226.578 72.330,225.900 72.330 C 225.826 72.330,225.265 71.963,224.653 71.513 C 222.404 69.861,217.357 68.006,218.017 69.074 M215.994 69.427 C 216.229 69.472,216.614 69.472,216.849 69.427 C 217.084 69.382,216.891 69.345,216.421 69.345 C 215.952 69.345,215.759 69.382,215.994 69.427 M228.767 78.725 C 228.764 78.953,228.849 79.371,228.957 79.653 C 229.108 80.053,229.087 80.238,228.862 80.488 C 228.500 80.887,228.481 82.271,228.833 82.563 C 229.184 82.854,229.319 82.160,229.253 80.390 C 229.206 79.127,228.782 77.672,228.767 78.725 M228.899 83.911 C 228.826 84.172,228.765 84.615,228.764 84.896 C 228.762 85.177,228.674 85.461,228.568 85.526 C 228.462 85.592,228.430 85.733,228.496 85.840 C 228.562 85.948,228.527 86.219,228.418 86.444 C 228.176 86.943,227.601 89.369,227.603 89.882 C 227.604 90.086,227.531 90.342,227.440 90.452 C 227.350 90.561,227.175 91.206,227.053 91.884 C 226.930 92.563,226.763 93.204,226.682 93.308 C 226.601 93.412,226.528 93.626,226.519 93.783 C 226.498 94.155,226.110 95.886,225.966 96.251 C 225.904 96.407,225.871 96.643,225.893 96.775 C 225.914 96.907,225.797 97.067,225.633 97.130 C 225.402 97.218,225.384 97.304,225.552 97.507 C 225.699 97.683,225.708 97.847,225.582 98.007 C 225.478 98.137,225.334 98.586,225.261 99.003 C 225.188 99.421,225.087 99.976,225.037 100.237 L 224.945 100.712 225.216 100.237 C 225.365 99.976,225.634 99.079,225.814 98.244 C 225.994 97.409,226.219 96.577,226.312 96.396 C 226.406 96.214,226.485 95.873,226.487 95.636 C 226.490 95.400,226.660 94.835,226.866 94.382 C 227.071 93.929,227.290 93.032,227.352 92.389 C 227.414 91.746,227.586 91.031,227.733 90.799 C 227.881 90.568,228.002 90.091,228.002 89.739 C 228.002 89.387,228.169 88.589,228.374 87.965 C 228.789 86.701,229.207 84.286,229.100 83.770 C 229.047 83.512,229.001 83.544,228.899 83.911 M239.393 85.503 C 239.393 85.647,239.268 86.181,239.115 86.689 C 238.851 87.571,238.390 89.675,238.062 91.505 C 237.788 93.032,237.361 94.530,237.115 94.826 C 236.983 94.985,236.811 95.648,236.733 96.300 C 236.655 96.951,236.500 97.741,236.389 98.054 C 236.023 99.084,235.370 101.834,235.285 102.705 C 235.172 103.866,235.485 103.331,235.785 101.851 C 235.913 101.224,236.103 100.605,236.208 100.475 C 236.314 100.345,236.426 99.900,236.456 99.487 C 236.487 99.073,236.575 98.633,236.652 98.508 C 236.729 98.384,236.823 97.935,236.862 97.510 C 236.900 97.085,237.015 96.654,237.118 96.551 C 237.220 96.448,237.304 96.168,237.304 95.928 C 237.304 95.688,237.387 95.491,237.488 95.491 C 237.589 95.491,237.622 95.362,237.562 95.204 C 237.501 95.046,237.556 94.791,237.684 94.637 C 237.812 94.483,237.868 94.230,237.808 94.076 C 237.749 93.921,237.788 93.741,237.895 93.675 C 238.002 93.608,238.039 93.424,237.978 93.265 C 237.917 93.105,237.943 92.879,238.035 92.762 C 238.128 92.645,238.311 91.951,238.443 91.220 C 238.575 90.489,238.746 89.805,238.822 89.701 C 238.899 89.597,238.973 89.383,238.987 89.226 C 239.074 88.282,239.268 87.518,239.422 87.518 C 239.521 87.518,239.546 87.233,239.479 86.873 C 239.385 86.372,239.432 86.186,239.689 86.042 C 239.892 85.928,239.975 85.737,239.902 85.548 C 239.758 85.172,239.393 85.139,239.393 85.503 M180.971 90.258 C 180.842 90.877,180.772 91.419,180.815 91.463 C 180.961 91.608,181.338 90.069,181.271 89.598 C 181.227 89.285,181.128 89.502,180.971 90.258 M180.469 92.041 C 180.385 92.284,180.367 92.533,180.429 92.595 C 180.626 92.791,180.764 92.501,180.692 92.043 L 180.622 91.599 180.469 92.041 M191.261 92.549 C 191.182 92.757,191.001 93.217,190.859 93.569 C 190.718 93.921,190.514 94.766,190.405 95.447 C 190.296 96.128,190.040 97.161,189.835 97.743 C 189.471 98.778,189.332 99.862,189.598 99.597 C 189.725 99.470,190.273 97.431,190.906 94.732 C 191.065 94.053,191.285 93.314,191.396 93.089 C 191.506 92.865,191.553 92.566,191.501 92.425 C 191.434 92.245,191.363 92.281,191.261 92.549 M179.935 94.352 C 179.296 96.896,178.778 98.826,178.635 99.193 C 178.270 100.131,178.233 100.340,178.473 100.101 C 178.791 99.786,179.209 98.627,179.411 97.503 C 179.503 96.991,179.758 95.990,179.979 95.278 C 180.199 94.567,180.349 93.789,180.312 93.551 C 180.268 93.271,180.135 93.554,179.935 94.352 M189.102 100.475 C 189.012 100.710,188.801 101.233,188.632 101.637 C 188.463 102.041,188.325 102.642,188.325 102.971 C 188.325 103.300,188.208 103.739,188.065 103.944 C 187.923 104.150,187.740 104.531,187.659 104.791 C 186.940 107.091,182.322 108.988,180.203 107.853 C 178.302 106.836,177.146 104.161,177.978 102.705 C 178.127 102.444,178.243 101.932,178.234 101.566 C 178.225 101.168,178.181 101.054,178.126 101.281 C 178.074 101.490,177.964 101.747,177.880 101.851 C 177.796 101.955,177.666 102.368,177.591 102.768 C 177.517 103.168,177.338 103.540,177.195 103.595 C 176.845 103.729,176.862 104.346,177.219 104.483 C 177.375 104.543,177.504 104.798,177.504 105.051 C 177.504 107.335,181.420 109.168,184.053 108.116 C 184.262 108.033,184.709 107.854,185.046 107.719 C 187.017 106.930,188.459 104.537,189.353 100.570 C 189.495 99.941,189.329 99.878,189.102 100.475 M224.703 101.139 C 224.649 101.322,224.548 101.793,224.478 102.185 C 224.409 102.578,224.280 102.944,224.192 102.998 C 224.104 103.053,224.080 103.224,224.140 103.378 C 224.199 103.533,224.153 103.773,224.038 103.912 C 223.923 104.050,223.881 104.217,223.945 104.281 C 224.010 104.345,223.994 104.551,223.910 104.738 C 223.826 104.925,223.733 105.206,223.704 105.363 C 223.506 106.428,223.040 108.287,222.904 108.555 C 222.814 108.731,222.637 109.430,222.510 110.109 C 222.383 110.788,222.233 111.557,222.175 111.818 C 222.074 112.281,222.079 112.283,222.373 111.913 C 222.539 111.704,222.679 111.277,222.684 110.963 C 222.690 110.650,222.864 110.022,223.070 109.566 C 223.277 109.111,223.449 108.385,223.452 107.953 C 223.456 107.520,223.624 106.825,223.825 106.407 C 224.027 105.990,224.195 105.290,224.199 104.852 C 224.202 104.415,224.290 104.004,224.395 103.939 C 224.499 103.875,224.585 103.624,224.585 103.382 C 224.585 103.140,224.713 102.635,224.869 102.260 C 225.191 101.490,225.242 100.807,224.977 100.807 C 224.880 100.807,224.756 100.956,224.703 101.139 M234.660 105.080 C 234.444 105.780,234.267 106.637,234.267 106.986 C 234.267 107.334,234.189 107.667,234.093 107.726 C 233.998 107.785,233.864 108.196,233.795 108.639 C 233.726 109.082,233.490 109.890,233.272 110.435 C 232.964 111.198,232.918 111.523,233.069 111.858 C 233.243 112.244,233.281 112.181,233.404 111.296 C 233.480 110.748,233.610 110.258,233.693 110.207 C 233.776 110.156,233.903 109.716,233.976 109.229 C 234.049 108.743,234.183 108.208,234.273 108.040 C 234.491 107.637,235.250 104.005,235.139 103.894 C 235.092 103.847,234.876 104.380,234.660 105.080 M221.883 112.767 C 221.816 112.924,221.668 113.520,221.552 114.093 C 221.437 114.665,221.293 115.348,221.232 115.611 C 221.125 116.077,221.130 116.080,221.424 115.710 C 221.589 115.501,221.728 115.132,221.731 114.890 C 221.734 114.648,221.828 114.281,221.938 114.075 C 222.049 113.868,222.109 113.425,222.071 113.090 C 222.028 112.705,221.959 112.586,221.883 112.767 M232.697 113.174 C 232.371 113.742,232.222 115.288,232.526 114.941 C 232.690 114.753,233.175 112.751,233.080 112.656 C 233.050 112.626,232.878 112.859,232.697 113.174 M232.034 115.802 C 231.766 116.232,231.705 117.310,231.966 117.029 C 232.125 116.857,232.448 115.425,232.328 115.425 C 232.296 115.425,232.164 115.594,232.034 115.802 M220.993 116.469 C 220.907 117.060,220.947 118.495,221.068 119.155 C 221.198 119.866,222.598 121.236,223.387 121.425 C 224.151 121.607,224.485 121.895,224.167 122.097 C 223.966 122.224,223.967 122.254,224.171 122.256 C 224.309 122.258,224.550 122.131,224.707 121.974 C 225.063 121.618,226.549 121.597,226.838 121.944 C 226.954 122.085,226.989 122.260,226.914 122.334 C 226.840 122.408,226.924 122.414,227.100 122.346 C 227.276 122.278,227.413 122.167,227.404 122.099 C 227.349 121.683,227.504 121.529,228.089 121.419 C 229.401 121.173,231.406 119.152,231.713 117.766 L 231.832 117.228 231.564 117.703 C 230.877 118.921,230.727 119.136,230.327 119.466 C 230.093 119.660,229.898 119.919,229.895 120.042 C 229.885 120.499,227.422 121.398,225.980 121.471 C 223.137 121.614,221.329 120.183,221.155 117.651 C 221.097 116.792,221.024 116.260,220.993 116.469 " stroke="none" fill="#125c98" fill-rule="evenodd"></path><path id="path4" d="M213.422 57.712 C 213.182 57.814,212.456 57.980,211.808 58.082 L 210.631 58.267 212.055 58.146 C 213.908 57.990,215.627 57.991,217.276 58.150 L 218.605 58.278 217.276 57.990 C 215.463 57.599,213.946 57.489,213.422 57.712 M208.889 58.027 C 208.958 58.096,208.908 58.283,208.779 58.442 C 208.577 58.690,208.599 58.710,208.923 58.578 C 209.131 58.492,209.601 58.432,209.967 58.444 L 210.631 58.465 209.872 58.186 C 209.054 57.886,208.690 57.827,208.889 58.027 M207.620 58.377 C 207.743 58.698,207.216 58.782,207.024 58.472 C 206.857 58.201,206.541 58.236,206.597 58.519 C 206.628 58.673,206.461 58.737,206.122 58.702 C 205.741 58.662,205.600 58.732,205.600 58.962 C 205.600 59.224,205.551 59.237,205.310 59.036 C 205.072 58.839,204.977 58.848,204.788 59.087 C 204.660 59.248,204.215 59.480,203.797 59.603 C 202.960 59.850,202.917 59.868,200.803 60.835 C 199.991 61.206,199.201 61.509,199.047 61.509 C 198.892 61.509,198.766 61.580,198.766 61.667 C 198.766 61.753,198.318 62.031,197.771 62.284 C 196.921 62.676,196.234 63.105,193.768 64.785 C 191.262 66.492,187.656 70.295,186.249 72.716 C 185.431 74.122,184.718 75.630,184.718 75.951 C 184.718 76.152,184.632 76.317,184.528 76.317 C 184.423 76.317,184.338 76.531,184.338 76.792 C 184.338 77.087,184.230 77.266,184.053 77.266 C 183.897 77.266,183.762 77.330,183.755 77.409 C 183.747 77.487,183.712 78.054,183.678 78.668 C 183.643 79.282,183.542 79.837,183.454 79.902 C 183.366 79.966,183.287 80.104,183.278 80.209 C 183.228 80.794,182.937 81.633,182.784 81.633 C 182.686 81.633,182.626 81.782,182.652 81.965 C 182.726 82.502,182.419 84.281,182.232 84.396 C 182.010 84.533,182.008 84.860,182.229 84.860 C 182.322 84.860,182.541 84.241,182.715 83.484 C 182.889 82.727,183.115 81.954,183.217 81.767 C 183.318 81.580,183.349 81.342,183.284 81.237 C 183.219 81.132,183.249 80.943,183.349 80.818 C 183.450 80.692,183.689 79.905,183.880 79.070 C 184.071 78.234,184.275 77.508,184.334 77.456 C 184.392 77.404,184.646 76.763,184.898 76.032 C 187.035 69.837,195.411 62.445,202.753 60.274 C 203.014 60.197,203.313 60.069,203.417 59.989 C 203.522 59.910,203.906 59.782,204.271 59.705 C 204.637 59.629,205.021 59.515,205.126 59.451 C 205.343 59.320,205.364 59.314,206.645 59.036 C 207.791 58.786,208.470 58.472,208.335 58.253 C 208.152 57.957,207.502 58.069,207.620 58.377 M219.079 58.297 C 218.629 58.456,218.633 58.461,219.165 58.392 C 219.473 58.353,219.934 58.400,220.190 58.497 C 220.595 58.651,220.624 58.636,220.413 58.383 C 220.149 58.064,219.803 58.042,219.079 58.297 M220.889 58.272 C 220.827 58.372,220.929 58.530,221.115 58.625 C 221.662 58.905,222.686 59.050,222.686 58.847 C 222.686 58.745,222.430 58.662,222.117 58.662 C 221.737 58.662,221.547 58.567,221.547 58.377 C 221.547 58.063,221.065 57.987,220.889 58.272 M222.981 59.032 C 223.080 59.131,223.974 59.503,224.968 59.858 C 230.363 61.786,234.798 65.596,237.167 70.337 C 238.091 72.186,238.383 72.870,238.653 73.808 C 238.804 74.334,238.939 74.537,239.035 74.383 C 239.116 74.251,239.104 74.096,239.009 74.036 C 238.913 73.977,238.814 73.655,238.789 73.320 C 238.763 72.984,238.684 72.710,238.613 72.710 C 238.542 72.710,238.426 72.476,238.354 72.190 C 238.282 71.904,238.166 71.626,238.096 71.573 C 238.026 71.520,237.631 70.836,237.218 70.053 C 235.801 67.366,233.165 64.256,231.142 62.884 C 230.720 62.598,230.346 62.299,230.312 62.221 C 230.277 62.143,230.179 62.079,230.094 62.079 C 230.009 62.079,229.383 61.741,228.703 61.328 C 227.466 60.576,224.278 59.231,223.735 59.231 C 223.576 59.231,223.446 59.146,223.446 59.041 C 223.446 58.937,223.300 58.851,223.123 58.851 C 222.919 58.851,222.867 58.918,222.981 59.032 M212.387 68.854 C 212.205 68.902,212.055 69.029,212.055 69.137 C 212.055 69.251,212.194 69.274,212.387 69.193 C 212.570 69.115,213.019 68.988,213.384 68.909 L 214.048 68.767 213.384 68.767 C 213.019 68.767,212.570 68.806,212.387 68.854 M215.001 68.908 C 214.923 69.033,214.686 69.091,214.474 69.035 C 214.190 68.961,214.145 68.990,214.301 69.146 C 214.457 69.303,214.642 69.300,215.001 69.136 C 215.604 68.861,216.358 68.847,216.519 69.108 C 216.586 69.215,216.938 69.283,217.302 69.258 C 217.666 69.234,218.023 69.297,218.094 69.398 C 218.247 69.613,219.459 69.646,219.459 69.435 C 219.459 69.293,219.014 69.218,218.543 69.282 C 218.405 69.301,218.182 69.225,218.049 69.114 C 217.915 69.004,217.601 68.917,217.351 68.923 C 217.101 68.928,216.501 68.876,216.019 68.806 C 215.420 68.720,215.097 68.752,215.001 68.908 M210.719 69.207 C 210.585 69.368,210.346 69.450,210.188 69.390 C 209.442 69.103,207.238 69.867,207.643 70.272 C 207.831 70.460,207.879 70.442,207.879 70.185 C 207.879 69.967,208.049 69.852,208.401 69.830 C 208.688 69.812,209.068 69.788,209.245 69.777 C 209.422 69.765,209.627 69.696,209.700 69.623 C 209.773 69.550,210.034 69.540,210.280 69.602 C 210.547 69.669,210.726 69.629,210.726 69.503 C 210.726 69.388,210.945 69.293,211.212 69.293 C 211.487 69.293,211.647 69.211,211.580 69.103 C 211.407 68.823,210.996 68.872,210.719 69.207 M219.839 69.653 C 219.995 69.740,220.380 69.862,220.693 69.924 L 221.262 70.037 220.693 69.768 C 220.052 69.466,219.327 69.368,219.839 69.653 M205.766 70.519 C 200.035 72.842,195.425 77.118,194.601 80.873 C 194.475 81.448,194.302 82.088,194.215 82.297 C 194.129 82.506,193.912 83.275,193.733 84.006 C 193.554 84.737,193.285 85.712,193.136 86.173 C 192.986 86.634,192.906 87.119,192.957 87.252 C 193.008 87.385,192.990 87.520,192.918 87.553 C 192.845 87.586,192.603 88.320,192.380 89.185 C 192.115 90.211,192.055 90.689,192.208 90.563 C 192.336 90.456,192.516 90.432,192.607 90.509 C 192.699 90.587,192.671 90.516,192.546 90.351 C 192.310 90.039,192.581 88.901,192.956 88.629 C 193.050 88.561,193.078 88.379,193.018 88.225 C 192.959 88.070,193.007 87.847,193.126 87.729 C 193.244 87.610,193.317 87.181,193.288 86.776 C 193.258 86.370,193.321 85.984,193.426 85.919 C 193.532 85.854,193.676 85.413,193.747 84.939 C 193.841 84.318,193.949 84.106,194.138 84.178 C 194.449 84.298,194.465 84.197,194.209 83.720 C 194.082 83.482,194.082 83.325,194.209 83.247 C 194.314 83.182,194.400 82.920,194.400 82.666 C 194.400 82.411,194.490 82.202,194.601 82.202 C 194.711 82.202,194.756 82.128,194.700 82.038 C 194.561 81.813,195.011 79.734,195.198 79.734 C 195.281 79.734,195.349 79.601,195.349 79.439 C 195.349 78.696,197.735 75.802,199.525 74.375 C 201.549 72.762,205.819 70.441,206.776 70.434 C 206.952 70.433,207.150 70.346,207.214 70.242 C 207.392 69.955,206.948 70.040,205.766 70.519 M221.357 70.118 C 221.357 70.155,221.980 70.492,222.741 70.868 C 223.503 71.245,224.336 71.736,224.592 71.961 C 224.849 72.186,225.231 72.511,225.440 72.682 C 225.650 72.854,226.113 73.379,226.471 73.849 C 227.364 75.024,227.432 75.097,227.432 74.873 C 227.432 74.594,226.535 73.506,225.454 72.475 C 224.473 71.538,221.357 69.746,221.357 70.118 M239.120 75.320 C 239.183 75.607,239.281 75.971,239.338 76.127 C 239.395 76.284,239.452 76.661,239.464 76.965 C 239.485 77.467,239.962 77.953,239.962 77.472 C 239.962 77.359,239.877 77.266,239.772 77.266 C 239.668 77.266,239.582 77.095,239.582 76.887 C 239.582 76.678,239.668 76.507,239.772 76.507 C 239.877 76.507,239.962 76.339,239.962 76.133 C 239.962 75.879,239.871 75.794,239.677 75.869 C 239.462 75.951,239.393 75.834,239.393 75.388 C 239.393 75.064,239.305 74.798,239.199 74.798 C 239.087 74.798,239.054 75.018,239.120 75.320 M227.680 75.890 C 227.796 76.281,227.962 76.651,228.048 76.712 C 228.134 76.772,228.232 77.138,228.267 77.525 C 228.302 77.911,228.380 78.277,228.442 78.339 C 228.503 78.400,228.504 78.696,228.444 78.997 C 228.375 79.341,228.414 79.544,228.548 79.544 C 228.665 79.544,228.761 79.763,228.761 80.030 C 228.761 80.326,228.840 80.467,228.964 80.391 C 229.076 80.322,229.113 80.124,229.047 79.952 C 228.981 79.780,228.811 79.041,228.670 78.310 C 228.435 77.091,227.752 75.178,227.552 75.178 C 227.506 75.178,227.563 75.498,227.680 75.890 M239.582 78.654 C 239.582 78.895,239.717 79.258,239.881 79.461 C 240.170 79.816,240.176 79.813,240.074 79.355 C 240.015 79.093,239.966 78.730,239.965 78.548 C 239.963 78.365,239.877 78.215,239.772 78.215 C 239.668 78.215,239.582 78.413,239.582 78.654 M228.761 83.193 C 228.761 83.570,228.660 83.913,228.537 83.954 C 228.393 84.002,228.368 84.160,228.468 84.397 C 228.596 84.703,228.672 84.612,228.916 83.860 C 229.142 83.164,229.158 82.903,228.986 82.730 C 228.813 82.558,228.761 82.665,228.761 83.193 M239.777 83.992 C 239.521 84.666,239.530 85.185,239.802 85.353 C 239.939 85.437,239.969 85.405,239.883 85.265 C 239.807 85.143,239.845 84.739,239.967 84.369 C 240.229 83.575,240.062 83.243,239.777 83.992 M181.795 85.395 C 181.878 85.866,181.822 86.087,181.574 86.268 C 181.333 86.445,181.305 86.549,181.471 86.651 C 181.645 86.759,181.646 86.855,181.476 87.060 C 181.300 87.273,181.320 87.328,181.574 87.328 C 181.768 87.328,181.878 87.197,181.853 86.996 C 181.830 86.813,181.860 86.535,181.920 86.379 C 182.164 85.737,182.257 85.023,182.084 85.130 C 181.984 85.192,181.853 85.135,181.793 85.004 C 181.734 84.872,181.734 85.049,181.795 85.395 M228.429 85.187 C 228.299 85.233,228.192 85.503,228.192 85.787 C 228.192 86.071,228.091 86.404,227.967 86.527 C 227.844 86.651,227.802 86.811,227.874 86.884 C 228.053 87.062,228.573 86.354,228.525 85.999 C 228.503 85.842,228.556 85.602,228.643 85.464 C 228.829 85.167,228.754 85.070,228.429 85.187 M239.464 86.278 C 239.405 86.431,239.401 86.666,239.455 86.800 C 239.508 86.934,239.559 86.858,239.567 86.632 C 239.576 86.406,239.689 86.177,239.820 86.125 C 240.006 86.050,240.004 86.026,239.814 86.014 C 239.680 86.006,239.522 86.124,239.464 86.278 M239.440 87.422 C 239.309 87.570,239.203 87.872,239.203 88.092 C 239.203 88.312,239.119 88.649,239.016 88.841 C 238.858 89.136,238.890 89.173,239.220 89.087 C 239.524 89.008,239.585 88.883,239.496 88.527 C 239.359 87.981,239.556 87.547,239.778 87.906 C 239.869 88.053,239.914 87.952,239.896 87.642 C 239.863 87.074,239.781 87.035,239.440 87.422 M227.734 87.803 C 227.828 88.179,227.780 88.280,227.500 88.292 C 227.301 88.301,227.250 88.349,227.385 88.403 C 227.515 88.456,227.622 88.672,227.622 88.883 C 227.622 89.120,227.528 89.231,227.376 89.173 C 227.194 89.103,227.123 89.353,227.105 90.129 C 227.091 90.726,226.981 91.242,226.849 91.323 C 226.722 91.402,226.669 91.600,226.732 91.764 C 226.795 91.928,226.759 92.116,226.652 92.182 C 226.545 92.248,226.500 92.415,226.553 92.552 C 226.606 92.690,226.483 92.994,226.280 93.228 C 225.826 93.751,225.965 93.967,226.465 93.514 C 226.691 93.310,226.912 92.707,227.049 91.921 C 227.170 91.226,227.344 90.566,227.437 90.455 C 227.529 90.344,227.603 90.086,227.601 89.882 C 227.600 89.678,227.724 89.020,227.878 88.420 C 228.119 87.477,228.120 87.328,227.886 87.328 C 227.692 87.328,227.649 87.462,227.734 87.803 M181.303 88.141 C 181.302 88.537,181.194 88.900,181.063 88.951 C 180.930 89.003,180.808 89.430,180.785 89.927 C 180.763 90.412,180.677 90.859,180.595 90.920 C 180.513 90.980,180.446 91.201,180.446 91.410 C 180.446 91.618,180.355 91.773,180.243 91.753 C 180.123 91.732,180.074 91.943,180.123 92.275 C 180.174 92.624,180.120 92.833,179.980 92.833 C 179.846 92.833,179.802 92.979,179.872 93.197 C 179.935 93.397,179.898 93.616,179.789 93.683 C 179.681 93.750,179.592 94.184,179.592 94.648 C 179.592 95.315,179.524 95.491,179.269 95.491 C 179.021 95.491,178.998 95.543,179.171 95.716 C 179.510 96.055,179.610 95.848,180.082 93.834 C 180.536 91.897,181.145 89.550,181.457 88.540 C 181.563 88.196,181.569 87.838,181.473 87.686 C 181.360 87.508,181.305 87.656,181.303 88.141 M238.869 89.656 C 238.767 89.785,238.575 90.489,238.443 91.220 C 238.311 91.951,238.122 92.652,238.022 92.778 C 237.923 92.904,237.898 93.100,237.969 93.213 C 238.039 93.327,237.993 93.544,237.867 93.696 C 237.719 93.874,237.709 93.972,237.839 93.972 C 238.144 93.972,238.304 93.618,238.380 92.767 C 238.418 92.344,238.534 91.945,238.638 91.881 C 238.742 91.817,238.847 91.386,238.872 90.923 C 238.897 90.460,239.038 89.987,239.184 89.872 C 239.356 89.738,239.380 89.621,239.253 89.542 C 239.145 89.475,238.972 89.526,238.869 89.656 M191.932 91.219 C 191.804 91.374,191.747 91.623,191.805 91.775 C 191.863 91.926,191.808 92.086,191.684 92.131 C 191.559 92.175,191.523 92.283,191.604 92.369 C 191.685 92.455,191.895 92.382,192.072 92.205 C 192.274 92.003,192.307 91.884,192.162 91.884 C 192.035 91.884,191.932 91.790,191.932 91.674 C 191.932 91.558,192.060 91.513,192.216 91.573 C 192.387 91.638,192.501 91.575,192.501 91.415 C 192.501 91.010,192.194 90.904,191.932 91.219 M191.416 93.071 C 191.316 93.201,191.095 93.906,190.927 94.637 C 190.546 96.285,189.755 99.285,189.601 99.668 C 189.537 99.824,189.359 100.465,189.204 101.092 C 189.049 101.718,188.864 102.380,188.793 102.563 C 188.645 102.944,189.160 103.042,189.387 102.676 C 189.471 102.540,189.439 102.508,189.303 102.592 C 189.163 102.679,189.084 102.579,189.084 102.316 C 189.084 102.013,189.166 101.937,189.396 102.025 C 189.656 102.125,189.668 102.097,189.467 101.855 C 189.281 101.631,189.278 101.505,189.453 101.295 C 189.577 101.145,189.686 100.753,189.695 100.423 C 189.705 100.093,189.827 99.779,189.967 99.726 C 190.106 99.672,190.181 99.564,190.133 99.486 C 189.994 99.260,190.462 97.010,190.649 97.010 C 190.742 97.010,190.764 96.839,190.697 96.629 C 190.620 96.387,190.674 96.211,190.846 96.145 C 191.016 96.080,191.083 95.869,191.027 95.577 C 190.976 95.310,191.028 95.112,191.148 95.112 C 191.263 95.112,191.337 94.919,191.312 94.684 C 191.284 94.419,191.360 94.276,191.513 94.307 C 191.707 94.347,191.712 94.271,191.536 93.943 C 191.355 93.604,191.371 93.487,191.623 93.302 C 191.793 93.178,191.932 93.022,191.932 92.955 C 191.932 92.748,191.608 92.821,191.416 93.071 M226.238 93.992 C 226.014 94.123,225.937 94.316,226.013 94.556 C 226.077 94.757,226.040 94.922,225.931 94.922 C 225.813 94.922,225.779 95.150,225.847 95.491 C 225.923 95.868,225.885 96.061,225.736 96.061 C 225.612 96.061,225.535 96.210,225.565 96.393 C 225.595 96.576,225.546 96.843,225.455 96.987 C 225.340 97.170,225.370 97.223,225.555 97.161 C 225.700 97.112,225.821 96.951,225.824 96.804 C 225.826 96.656,225.881 96.450,225.944 96.346 C 226.008 96.241,226.122 95.771,226.199 95.301 C 226.275 94.832,226.416 94.298,226.512 94.115 C 226.713 93.732,226.697 93.725,226.238 93.992 M237.684 94.637 C 237.556 94.791,237.501 95.046,237.562 95.204 C 237.622 95.362,237.589 95.491,237.488 95.491 C 237.387 95.491,237.304 95.688,237.304 95.928 C 237.304 96.168,237.220 96.448,237.118 96.551 C 237.015 96.654,236.900 97.085,236.862 97.510 C 236.823 97.935,236.744 98.360,236.686 98.454 C 236.468 98.807,236.316 100.158,236.528 99.858 C 236.638 99.701,236.730 99.381,236.732 99.146 C 236.733 98.911,236.820 98.719,236.925 98.719 C 237.029 98.719,237.114 98.291,237.114 97.769 C 237.114 97.024,237.180 96.820,237.420 96.820 C 237.649 96.820,237.696 96.704,237.609 96.357 C 237.545 96.103,237.579 95.841,237.684 95.776 C 237.789 95.711,237.825 95.457,237.763 95.212 C 237.679 94.877,237.738 94.749,238.000 94.697 C 238.225 94.652,238.272 94.580,238.133 94.492 C 238.014 94.417,237.812 94.482,237.684 94.637 M179.149 96.377 C 179.079 96.447,179.022 96.696,179.022 96.931 C 179.022 97.166,178.916 97.397,178.785 97.445 C 178.610 97.509,178.603 97.591,178.759 97.757 C 178.917 97.927,179.022 97.780,179.176 97.170 C 179.385 96.347,179.378 96.148,179.149 96.377 M225.344 97.636 C 225.344 97.814,225.249 97.959,225.134 97.959 C 225.004 97.959,224.969 98.141,225.042 98.434 C 225.117 98.731,225.081 98.908,224.946 98.908 C 224.824 98.908,224.773 99.073,224.830 99.289 C 224.890 99.521,224.807 99.747,224.615 99.869 C 224.385 100.015,224.364 100.097,224.537 100.169 C 224.885 100.315,224.838 100.872,224.490 100.738 C 224.170 100.616,224.129 100.772,224.377 101.165 C 224.618 101.544,224.872 100.997,225.163 99.478 C 225.292 98.799,225.485 98.134,225.591 97.999 C 225.723 97.830,225.715 97.684,225.564 97.533 C 225.397 97.367,225.344 97.392,225.344 97.636 M178.595 98.258 C 178.517 98.337,178.453 98.559,178.453 98.750 C 178.453 98.942,178.379 99.098,178.289 99.098 C 178.199 99.098,178.167 99.312,178.216 99.573 C 178.269 99.850,178.219 100.047,178.095 100.047 C 177.974 100.047,177.883 100.376,177.883 100.813 C 177.883 101.317,177.786 101.615,177.600 101.687 C 177.444 101.747,177.358 101.864,177.409 101.946 C 177.584 102.230,177.266 103.275,177.005 103.275 C 176.827 103.275,176.744 103.516,176.744 104.034 C 176.744 104.583,176.823 104.794,177.029 104.794 C 177.206 104.794,177.314 104.973,177.314 105.268 C 177.314 105.529,177.384 105.743,177.471 105.743 C 177.729 105.743,177.477 104.582,177.195 104.473 C 176.857 104.344,176.857 103.725,177.195 103.595 C 177.338 103.540,177.517 103.168,177.591 102.768 C 177.666 102.368,177.796 101.955,177.880 101.851 C 177.963 101.747,178.136 101.149,178.263 100.522 C 178.390 99.896,178.577 99.281,178.678 99.156 C 178.889 98.895,178.810 98.039,178.595 98.258 M236.210 100.475 C 236.105 100.605,235.960 101.011,235.888 101.376 C 235.816 101.742,235.721 102.172,235.677 102.332 C 235.623 102.524,235.726 102.624,235.975 102.624 C 236.184 102.624,236.355 102.557,236.355 102.475 C 236.355 102.393,236.262 102.326,236.148 102.326 C 236.011 102.326,235.987 102.055,236.075 101.519 C 236.233 100.562,236.316 100.439,236.552 100.812 C 236.692 101.033,236.729 101.002,236.732 100.664 C 236.735 100.193,236.505 100.109,236.210 100.475 M224.126 101.685 C 224.153 101.803,224.075 102.008,223.953 102.140 C 223.782 102.326,223.785 102.350,223.968 102.247 C 224.113 102.165,224.205 102.228,224.205 102.409 C 224.205 102.572,224.110 102.705,223.995 102.705 C 223.866 102.705,223.830 102.886,223.900 103.168 C 223.964 103.423,223.931 103.684,223.826 103.749 C 223.721 103.814,223.636 104.080,223.636 104.341 C 223.636 104.650,223.559 104.769,223.418 104.682 C 223.265 104.587,223.237 104.694,223.324 105.038 C 223.393 105.313,223.360 105.584,223.249 105.652 C 223.140 105.720,223.100 105.932,223.161 106.124 C 223.231 106.345,223.146 106.553,222.932 106.689 C 222.690 106.842,222.660 106.933,222.829 107.004 C 223.166 107.145,223.124 107.641,222.775 107.641 C 222.542 107.641,222.524 107.718,222.686 108.021 C 222.871 108.366,222.813 108.475,222.466 108.429 C 222.398 108.420,222.382 108.666,222.430 108.976 C 222.483 109.308,222.435 109.540,222.314 109.540 C 222.191 109.540,222.157 109.728,222.229 110.014 C 222.307 110.327,222.268 110.489,222.115 110.489 C 221.975 110.489,221.923 110.642,221.983 110.872 C 222.038 111.083,221.968 111.370,221.827 111.511 C 221.630 111.708,221.623 111.818,221.797 111.995 C 221.971 112.171,221.939 112.284,221.656 112.493 C 221.455 112.642,221.350 112.823,221.423 112.896 C 221.725 113.198,222.088 112.377,222.404 110.679 C 222.588 109.687,222.813 108.731,222.903 108.555 C 223.040 108.287,223.505 106.432,223.704 105.363 C 223.733 105.206,223.826 104.925,223.910 104.738 C 223.994 104.551,224.010 104.345,223.945 104.281 C 223.881 104.217,223.923 104.050,224.038 103.912 C 224.153 103.773,224.202 103.540,224.146 103.395 C 224.090 103.250,224.115 103.057,224.200 102.966 C 224.447 102.701,224.657 101.499,224.431 101.639 C 224.325 101.704,224.201 101.694,224.157 101.615 C 224.113 101.536,224.099 101.568,224.126 101.685 M188.434 103.783 C 187.696 105.422,187.426 105.823,186.475 106.696 C 185.927 107.199,185.159 107.714,184.766 107.841 C 184.374 107.967,183.946 108.155,183.816 108.259 C 183.685 108.362,183.579 108.403,183.579 108.349 C 183.579 108.295,183.270 108.320,182.892 108.406 C 182.514 108.491,181.792 108.495,181.287 108.415 C 180.658 108.316,180.343 108.338,180.287 108.485 C 180.232 108.626,180.423 108.673,180.847 108.624 C 181.237 108.578,181.490 108.632,181.490 108.759 C 181.490 108.875,181.789 108.970,182.155 108.970 C 182.520 108.970,182.819 108.895,182.819 108.802 C 182.819 108.544,183.487 108.429,183.840 108.627 C 184.059 108.750,184.140 108.735,184.104 108.578 C 184.076 108.454,184.309 108.268,184.623 108.163 C 185.581 107.843,187.068 106.606,187.838 105.487 C 188.261 104.874,188.658 104.478,188.779 104.551 C 188.895 104.620,188.864 104.523,188.711 104.335 C 188.466 104.033,188.470 103.967,188.745 103.765 C 188.931 103.629,188.997 103.441,188.908 103.298 C 188.808 103.135,188.655 103.291,188.434 103.783 M235.316 103.512 C 234.531 106.960,234.483 107.315,234.769 107.602 C 235.022 107.854,235.039 107.808,234.924 107.194 C 234.834 106.716,234.863 106.502,235.018 106.502 C 235.157 106.502,235.195 106.355,235.118 106.113 C 235.050 105.900,235.076 105.622,235.174 105.496 C 235.273 105.371,235.367 105.140,235.383 104.983 C 235.399 104.827,235.432 104.471,235.456 104.192 C 235.481 103.914,235.565 103.622,235.643 103.544 C 235.844 103.342,235.820 103.085,235.599 103.085 C 235.497 103.085,235.369 103.277,235.316 103.512 M177.693 106.079 C 177.693 106.610,179.807 108.438,180.092 108.154 C 180.147 108.098,179.876 107.903,179.490 107.720 C 179.104 107.537,178.542 107.047,178.241 106.631 C 177.940 106.216,177.693 105.967,177.693 106.079 M234.205 108.163 C 234.159 108.242,234.058 108.690,233.982 109.160 C 233.906 109.630,233.781 110.100,233.704 110.204 C 233.627 110.308,233.417 111.151,233.237 112.075 C 233.057 113.000,232.864 113.877,232.808 114.023 C 232.740 114.200,232.800 114.254,232.983 114.183 C 233.161 114.115,233.229 113.909,233.172 113.612 C 233.118 113.330,233.172 113.147,233.308 113.147 C 233.443 113.147,233.487 113.002,233.418 112.783 C 233.354 112.583,233.391 112.364,233.500 112.297 C 233.608 112.230,233.697 111.974,233.697 111.727 C 233.697 111.481,233.804 111.237,233.935 111.184 C 234.113 111.111,234.102 111.036,233.887 110.879 C 233.637 110.697,233.641 110.642,233.925 110.424 C 234.133 110.265,234.210 110.027,234.141 109.763 C 234.059 109.450,234.119 109.346,234.387 109.335 C 234.587 109.326,234.638 109.278,234.504 109.224 C 234.223 109.111,234.182 108.401,234.457 108.401 C 234.561 108.401,234.646 108.315,234.646 108.211 C 234.646 107.989,234.328 107.955,234.205 108.163 M221.336 113.479 C 221.325 113.557,221.333 113.826,221.353 114.075 C 221.382 114.420,221.319 114.501,221.090 114.413 C 220.924 114.350,220.788 114.380,220.788 114.482 C 220.788 114.583,220.873 114.665,220.978 114.665 C 221.082 114.665,221.168 114.836,221.168 115.045 C 221.168 115.254,221.051 115.425,220.909 115.425 C 220.736 115.425,220.681 115.581,220.741 115.899 C 220.791 116.160,220.758 116.374,220.668 116.374 C 220.577 116.374,220.503 117.008,220.503 117.782 C 220.503 118.556,220.542 119.151,220.589 119.104 C 220.637 119.056,220.808 119.268,220.969 119.573 C 221.130 119.879,221.647 120.438,222.117 120.816 C 222.587 121.194,223.074 121.587,223.200 121.691 C 223.326 121.795,223.566 121.879,223.734 121.879 C 223.901 121.879,223.985 121.964,223.922 122.067 C 223.855 122.175,223.932 122.206,224.105 122.140 C 224.530 121.977,224.154 121.575,223.443 121.433 C 221.407 121.026,220.454 118.495,221.216 115.520 C 221.719 113.556,221.752 113.336,221.551 113.336 C 221.444 113.336,221.348 113.401,221.336 113.479 M232.620 114.882 C 232.505 115.024,232.349 115.524,232.273 115.994 C 232.198 116.464,232.072 116.934,231.993 117.038 C 231.915 117.143,231.793 117.470,231.722 117.766 C 231.393 119.142,229.442 121.132,228.147 121.413 C 227.323 121.592,226.950 122.266,227.681 122.256 C 227.817 122.254,227.793 122.180,227.622 122.069 C 227.376 121.910,227.380 121.885,227.654 121.882 C 228.032 121.879,229.062 121.347,229.593 120.883 C 229.801 120.700,230.036 120.551,230.115 120.551 C 230.414 120.551,231.989 118.281,231.989 117.850 C 231.989 117.602,232.085 117.302,232.203 117.184 C 232.322 117.066,232.451 116.605,232.491 116.159 C 232.531 115.713,232.659 115.290,232.774 115.219 C 232.890 115.147,232.949 114.984,232.907 114.856 C 232.848 114.680,232.778 114.686,232.620 114.882 M224.822 121.815 C 224.284 122.032,224.655 122.164,225.803 122.164 C 226.755 122.164,226.978 122.113,226.823 121.927 C 226.632 121.696,225.301 121.622,224.822 121.815 " stroke="none" fill="#3877a2" fill-rule="evenodd"></path></g></svg>
