<svg id="svg" version="1.1" xmlns="http://www.w3.org/2000/svg" xmlns:xlink="http://www.w3.org/1999/xlink" width="400" height="59.67894239848914" viewBox="0, 0, 400,59.67894239848914"><g id="svgg"><path id="path0" d="M207.250 0.159 C 206.883 0.233,206.171 0.378,205.667 0.481 C 199.300 1.788,193.044 6.101,190.535 10.917 C 189.539 12.827,189.608 12.604,187.585 20.417 C 186.259 25.537,185.774 27.363,185.084 29.833 C 184.841 30.704,184.602 31.580,184.554 31.780 C 184.278 32.916,185.477 34.589,186.905 35.062 C 189.611 35.957,192.083 34.272,193.006 30.904 C 193.204 30.178,193.504 29.096,193.671 28.500 C 193.837 27.904,194.211 26.517,194.500 25.417 C 195.263 22.510,196.167 19.043,196.411 18.083 C 196.965 15.899,197.387 14.787,197.942 14.047 C 202.195 8.372,210.503 6.220,216.359 9.279 C 219.809 11.080,221.131 15.182,219.855 20.125 C 219.352 22.073,218.913 23.813,218.413 25.833 C 218.175 26.796,217.834 28.165,217.657 28.875 C 216.523 33.403,216.224 34.613,215.602 37.167 C 215.368 38.129,215.063 39.367,214.924 39.917 C 214.027 43.472,216.590 45.522,220.231 44.160 C 222.208 43.420,222.659 42.457,224.248 35.583 C 224.477 34.593,224.860 33.042,225.494 30.542 C 226.196 27.768,227.166 23.814,227.773 21.250 C 228.545 17.991,228.269 11.642,227.311 10.592 C 227.232 10.505,227.167 10.326,227.167 10.194 C 227.167 8.261,223.031 3.625,219.874 2.019 C 216.751 0.432,210.479 -0.493,207.250 0.159 " stroke="none" fill="#046cb4" fill-rule="evenodd"></path><path id="path1" d="M121.952 3.321 C 120.401 3.720,120.377 3.764,121.007 5.021 C 121.300 5.605,121.556 6.102,121.576 6.126 C 121.596 6.149,121.848 6.050,122.137 5.907 C 123.114 5.419,123.690 5.626,124.186 6.644 C 124.599 7.492,125.134 10.255,124.926 10.463 C 124.875 10.514,124.833 10.480,124.833 10.387 C 124.833 10.294,124.702 10.058,124.542 9.862 C 124.381 9.667,124.004 9.176,123.704 8.773 C 122.520 7.182,121.019 6.674,119.149 7.230 C 117.720 7.655,117.721 7.654,118.086 8.779 C 118.495 10.038,118.564 10.106,119.084 9.765 C 120.113 9.091,121.242 9.923,122.120 12.002 L 122.471 12.833 115.925 12.833 L 109.379 12.833 109.190 13.778 C 109.085 14.297,109.000 14.822,109.000 14.944 C 109.000 15.126,110.153 15.167,115.250 15.167 C 120.138 15.167,121.500 15.212,121.502 15.375 C 121.502 15.490,121.341 16.445,121.143 17.498 C 120.780 19.423,120.752 19.452,120.394 18.257 C 120.038 17.064,115.390 17.228,112.825 18.524 C 107.138 21.399,106.852 28.328,112.351 29.999 C 113.681 30.403,116.686 30.462,117.864 30.107 L 118.615 29.882 118.479 30.649 C 118.404 31.071,118.305 31.623,118.259 31.875 L 118.175 32.333 120.903 32.333 C 124.064 32.333,123.695 32.595,124.195 30.000 C 124.380 29.037,124.667 27.575,124.831 26.750 C 126.195 19.916,126.528 18.259,126.758 17.167 C 126.903 16.479,127.056 15.748,127.097 15.542 L 127.173 15.167 133.170 15.167 C 136.468 15.167,139.167 15.185,139.166 15.208 C 139.165 15.466,138.657 18.009,138.551 18.292 C 138.415 18.653,138.397 18.644,138.088 18.070 L 137.767 17.474 135.842 17.528 C 129.301 17.715,125.720 26.716,131.033 29.616 C 131.662 29.960,135.054 30.018,135.853 29.699 L 136.290 29.525 136.075 30.637 C 135.957 31.249,135.809 31.881,135.746 32.042 C 135.639 32.312,135.833 32.333,138.460 32.333 L 141.290 32.333 141.392 31.792 C 141.969 28.748,142.079 28.448,142.262 29.420 L 142.378 30.041 144.181 29.967 C 151.001 29.686,154.611 20.857,149.123 17.880 C 148.553 17.571,145.551 17.451,144.663 17.702 L 144.242 17.821 144.496 16.494 L 144.750 15.167 149.705 15.167 L 154.660 15.167 154.761 14.708 C 154.816 14.456,154.930 14.033,155.014 13.767 C 155.098 13.501,155.167 13.182,155.167 13.058 C 155.167 12.871,153.002 12.833,142.347 12.833 L 129.526 12.833 129.438 12.375 C 129.389 12.123,129.226 10.942,129.077 9.750 C 128.354 3.990,126.356 2.187,121.952 3.321 M35.333 3.939 C 32.361 4.220,28.237 5.531,26.783 6.658 C 24.215 8.647,23.303 10.953,24.527 12.364 L 24.861 12.750 12.870 12.793 L 0.879 12.836 0.689 13.779 C 0.585 14.298,0.500 14.822,0.500 14.944 C 0.500 15.119,1.016 15.167,2.929 15.167 L 5.359 15.167 5.834 15.642 C 7.760 17.567,5.700 20.126,2.347 19.974 L 1.093 19.917 0.605 21.083 C -0.093 22.752,-0.224 25.339,0.342 26.284 C 1.993 29.042,7.646 30.222,11.631 28.640 C 12.719 28.208,12.752 28.241,12.445 29.444 C 12.309 29.979,12.146 30.761,12.084 31.183 C 11.980 31.883,11.909 31.976,11.277 32.254 C 6.875 34.191,7.126 39.800,11.684 41.369 C 13.631 42.039,18.667 41.633,18.667 40.805 C 18.667 40.729,18.769 40.667,18.895 40.667 C 19.184 40.667,20.621 39.239,20.754 38.819 C 20.898 38.366,20.517 37.908,19.150 36.893 C 17.739 35.845,17.739 35.845,17.603 36.528 C 17.330 37.893,15.951 38.738,14.638 38.344 C 13.451 37.989,13.103 36.664,13.937 35.673 C 15.677 33.605,18.926 34.755,23.248 38.969 L 24.607 40.294 28.553 40.359 C 30.724 40.395,32.500 40.382,32.500 40.330 C 32.500 40.198,30.103 38.439,27.917 36.967 C 25.130 35.092,23.306 34.085,20.583 32.921 C 19.747 32.563,18.014 32.000,17.749 32.000 C 17.612 32.000,17.501 31.981,17.503 31.958 C 17.509 31.858,18.183 28.437,18.496 26.917 C 18.685 26.000,18.980 24.537,19.153 23.667 C 19.326 22.796,19.775 20.555,20.150 18.687 C 20.526 16.819,20.833 15.263,20.833 15.229 C 20.833 15.195,21.854 15.167,23.102 15.167 L 25.370 15.167 25.280 15.708 C 25.231 16.006,25.044 16.962,24.865 17.833 C 24.686 18.704,24.380 20.241,24.185 21.248 C 23.990 22.255,23.795 23.193,23.751 23.332 C 23.707 23.470,23.521 24.371,23.338 25.333 C 22.981 27.216,22.392 30.168,22.158 31.250 C 22.079 31.617,22.011 32.010,22.007 32.125 C 22.002 32.284,22.655 32.333,24.739 32.333 C 27.832 32.333,27.504 32.501,27.840 30.750 C 27.946 30.200,28.169 29.075,28.336 28.250 C 28.887 25.529,29.945 20.234,30.400 17.917 C 30.544 17.183,30.748 16.265,30.853 15.875 L 31.043 15.167 39.874 15.167 L 48.706 15.167 48.598 15.542 C 48.539 15.748,48.414 16.329,48.320 16.833 C 48.225 17.337,48.112 17.875,48.067 18.028 C 47.995 18.277,47.502 18.313,43.368 18.371 C 38.184 18.443,37.669 18.548,35.516 19.963 C 28.693 24.445,31.688 33.595,39.051 30.765 C 42.757 29.341,45.376 25.182,44.270 22.479 C 43.692 21.067,43.592 21.167,45.590 21.167 L 47.370 21.167 47.285 21.708 C 47.238 22.006,47.048 23.000,46.862 23.917 C 46.414 26.129,45.690 29.810,45.427 31.208 L 45.217 32.333 48.025 32.333 C 50.157 32.333,50.835 32.283,50.841 32.125 C 50.848 31.924,51.142 30.392,51.832 26.958 C 52.012 26.064,52.305 24.601,52.483 23.708 C 52.660 22.814,52.965 21.333,53.158 20.417 C 53.478 18.907,54.167 15.357,54.167 15.222 C 54.167 15.191,55.659 15.167,57.482 15.167 L 60.798 15.167 61.316 15.650 C 62.133 16.414,62.084 17.888,61.208 18.858 C 60.404 19.750,59.788 19.996,58.059 20.118 L 56.651 20.217 56.266 20.900 C 53.522 25.765,56.970 29.425,64.000 29.111 C 65.458 29.046,66.187 28.928,67.046 28.616 C 68.009 28.268,68.164 28.248,68.097 28.479 C 68.053 28.628,67.967 29.050,67.906 29.417 C 67.844 29.783,67.690 30.493,67.564 30.993 C 67.195 32.448,66.996 32.347,70.124 32.296 L 72.914 32.250 73.110 31.250 C 73.218 30.700,73.501 29.275,73.740 28.083 C 73.979 26.892,74.316 25.204,74.490 24.333 C 74.664 23.462,74.965 22.000,75.158 21.083 C 75.352 20.167,75.654 18.660,75.829 17.735 C 76.004 16.811,76.197 15.855,76.258 15.610 L 76.369 15.167 85.196 15.167 C 93.522 15.167,94.018 15.183,93.941 15.458 C 93.895 15.619,93.766 16.294,93.653 16.958 L 93.447 18.167 89.571 18.167 C 85.601 18.167,83.815 18.357,82.750 18.894 C 82.475 19.033,82.063 19.217,81.833 19.304 C 77.832 20.815,75.685 26.653,78.096 29.469 C 82.146 34.202,92.005 27.720,89.520 21.958 L 89.179 21.167 91.006 21.167 C 92.011 21.167,92.832 21.223,92.829 21.292 C 92.827 21.360,92.751 21.717,92.660 22.083 C 92.569 22.450,92.345 23.500,92.162 24.417 C 91.979 25.333,91.688 26.758,91.515 27.583 C 90.840 30.801,90.667 31.708,90.667 32.015 C 90.667 32.315,90.819 32.333,93.323 32.333 C 96.396 32.333,96.108 32.518,96.541 30.266 C 96.720 29.341,97.001 27.908,97.166 27.083 C 97.332 26.258,97.778 24.008,98.158 22.083 C 98.539 20.158,98.953 18.133,99.079 17.583 C 99.205 17.033,99.358 16.265,99.419 15.875 L 99.529 15.167 100.909 15.167 L 102.289 15.167 102.395 14.542 C 102.454 14.198,102.547 13.673,102.603 13.376 L 102.704 12.834 77.980 12.792 L 53.256 12.750 53.161 12.166 C 53.045 11.455,52.320 9.667,52.147 9.667 C 52.079 9.667,51.980 9.535,51.928 9.375 C 51.503 8.067,48.142 5.732,45.417 4.850 C 43.102 4.101,38.251 3.662,35.333 3.939 M131.333 4.611 C 129.952 5.144,129.375 5.883,129.586 6.847 C 129.997 8.718,133.611 7.895,133.467 5.962 C 133.396 5.003,132.229 4.264,131.333 4.611 M40.785 6.999 C 44.210 7.777,46.546 9.727,46.930 12.126 L 47.043 12.833 39.191 12.833 L 31.340 12.833 31.003 12.173 C 29.238 8.713,34.973 5.679,40.785 6.999 M177.812 7.641 C 175.048 8.362,174.841 8.796,172.323 19.167 C 172.156 19.854,171.493 22.505,170.850 25.058 C 169.519 30.346,169.245 32.222,169.386 35.083 C 169.693 41.301,173.128 46.443,178.500 48.729 C 179.096 48.983,179.733 49.259,179.917 49.344 C 182.283 50.436,188.244 50.786,191.632 50.031 C 200.658 48.019,206.791 42.693,208.652 35.250 C 208.744 34.883,208.967 34.021,209.148 33.333 C 210.118 29.649,210.375 28.668,210.585 27.833 C 210.841 26.823,212.389 21.069,212.761 19.750 C 213.551 16.947,212.410 15.443,209.500 15.454 C 208.019 15.459,207.370 15.701,206.301 16.651 C 204.940 17.859,204.865 18.080,201.837 29.750 C 200.249 35.871,200.186 36.017,198.288 37.970 C 197.310 38.976,195.756 40.053,194.167 40.826 C 193.571 41.116,192.964 41.417,192.818 41.495 C 191.917 41.976,188.821 42.541,187.083 42.542 C 180.136 42.547,176.083 37.844,177.494 31.417 C 177.749 30.259,179.655 22.606,179.819 22.083 C 179.905 21.808,180.395 19.858,180.907 17.750 C 181.419 15.642,181.913 13.654,182.005 13.333 C 182.147 12.835,182.386 11.873,182.784 10.199 C 183.217 8.381,180.443 6.954,177.812 7.641 M243.033 11.792 C 242.927 12.319,242.697 13.425,242.521 14.250 C 241.602 18.553,240.953 21.650,240.582 23.495 C 239.923 26.775,240.418 29.061,242.083 30.425 C 244.779 32.635,251.049 32.461,254.146 30.092 C 256.572 28.237,257.664 25.688,258.902 18.994 C 259.028 18.310,259.335 16.813,259.584 15.667 C 260.089 13.341,260.478 11.357,260.491 11.042 C 260.498 10.883,259.865 10.833,257.855 10.833 L 255.210 10.833 255.027 11.542 C 254.926 11.931,254.687 13.037,254.494 14.000 C 254.302 14.963,253.993 16.462,253.806 17.333 C 253.256 19.904,252.889 21.660,252.590 23.154 C 252.299 24.612,251.733 25.934,251.151 26.516 C 249.826 27.841,246.836 27.805,245.984 26.454 C 245.492 25.674,245.548 25.188,246.833 19.083 C 247.017 18.212,247.308 16.806,247.482 15.958 C 247.655 15.110,247.909 13.892,248.046 13.250 C 248.183 12.608,248.345 11.802,248.405 11.458 L 248.515 10.833 245.870 10.833 L 243.226 10.833 243.033 11.792 M280.787 12.292 C 280.637 13.094,280.444 14.031,280.358 14.375 L 280.202 15.000 282.741 15.000 L 285.280 15.000 285.472 14.375 C 285.626 13.876,286.167 11.167,286.167 10.898 C 286.167 10.863,285.018 10.833,283.614 10.833 L 281.060 10.833 280.787 12.292 M331.028 11.708 C 330.934 12.190,330.704 13.296,330.518 14.167 C 330.333 15.037,329.988 16.650,329.753 17.750 C 329.518 18.850,329.174 20.500,328.989 21.417 C 328.803 22.333,328.507 23.758,328.332 24.583 C 328.157 25.408,327.862 26.796,327.677 27.667 C 327.493 28.537,327.267 29.550,327.175 29.917 C 327.083 30.283,327.006 30.790,327.004 31.042 L 327.000 31.500 331.792 31.496 C 340.435 31.488,342.406 30.974,344.503 28.183 C 346.631 25.352,346.296 21.332,343.883 20.727 C 343.503 20.631,343.528 20.595,344.280 20.160 C 345.211 19.621,346.333 18.566,346.333 18.231 C 346.333 18.104,346.397 18.000,346.474 18.000 C 347.080 18.000,347.497 14.406,347.020 13.305 C 346.103 11.192,344.625 10.834,336.808 10.833 L 331.200 10.833 331.028 11.708 M385.744 11.292 C 385.691 11.544,385.575 12.050,385.485 12.417 C 385.396 12.783,385.170 13.833,384.984 14.750 C 384.798 15.667,384.500 17.110,384.323 17.958 C 383.523 21.779,383.333 22.676,383.031 24.083 C 382.853 24.908,382.549 26.408,382.355 27.417 C 382.162 28.425,381.934 29.475,381.851 29.750 C 381.767 30.025,381.650 30.533,381.591 30.879 L 381.483 31.509 384.029 31.463 L 386.574 31.417 386.995 29.397 L 387.417 27.377 388.446 26.518 C 389.012 26.045,389.514 25.721,389.561 25.797 C 389.638 25.921,390.121 27.258,390.750 29.083 C 390.876 29.450,391.126 30.125,391.306 30.583 L 391.633 31.417 394.484 31.462 L 397.335 31.508 397.027 30.712 C 395.338 26.357,394.143 23.304,393.916 22.766 C 393.645 22.126,393.648 22.110,394.046 21.766 C 394.481 21.390,396.607 19.500,397.317 18.858 C 397.555 18.643,398.256 18.015,398.875 17.464 C 400.370 16.131,400.418 16.167,397.085 16.167 L 394.170 16.167 393.210 17.029 C 392.682 17.504,391.807 18.310,391.266 18.821 C 390.291 19.741,390.165 19.856,389.254 20.667 L 388.786 21.083 388.893 20.500 C 388.952 20.179,389.151 19.204,389.334 18.333 C 389.517 17.462,389.854 15.813,390.081 14.667 C 390.309 13.521,390.570 12.283,390.660 11.917 C 390.943 10.774,391.071 10.833,388.337 10.833 L 385.840 10.833 385.744 11.292 M15.261 15.542 C 15.200 15.748,15.010 16.629,14.839 17.500 C 14.668 18.371,14.365 19.871,14.165 20.833 C 13.965 21.796,13.707 23.090,13.592 23.710 C 13.244 25.585,12.063 26.250,9.083 26.250 C 6.304 26.250,5.115 25.210,5.138 22.798 C 5.151 21.386,5.005 21.533,6.598 21.333 C 10.005 20.906,12.104 19.195,11.958 16.965 C 11.920 16.378,11.788 15.893,11.615 15.701 C 11.156 15.194,11.244 15.167,13.353 15.167 C 15.369 15.167,15.372 15.167,15.261 15.542 M70.739 15.625 C 70.684 15.877,70.602 16.196,70.557 16.333 C 70.512 16.471,70.324 17.371,70.138 18.333 C 68.908 24.720,68.844 24.971,68.351 25.309 C 66.982 26.248,63.587 26.616,62.380 25.957 C 61.153 25.286,60.533 23.964,60.710 22.394 C 60.817 21.453,60.751 21.500,62.194 21.320 C 66.220 20.820,68.889 17.594,66.970 15.551 L 66.609 15.167 68.724 15.167 L 70.840 15.167 70.739 15.625 M341.003 15.418 C 342.389 16.135,341.807 18.215,340.101 18.645 C 339.032 18.914,334.834 18.898,334.830 18.625 C 334.829 18.510,334.993 17.685,335.196 16.792 L 335.565 15.167 338.041 15.167 C 339.923 15.167,340.633 15.227,341.003 15.418 M293.917 15.772 C 289.040 16.527,285.784 20.577,285.760 25.917 C 285.741 30.162,287.656 31.906,292.333 31.903 C 297.754 31.899,301.406 28.622,302.179 23.069 C 302.894 17.935,299.471 14.913,293.917 15.772 M269.806 16.161 C 268.836 16.466,268.098 16.900,267.288 17.644 L 266.827 18.069 266.983 17.576 C 267.069 17.305,267.185 16.875,267.240 16.621 L 267.342 16.158 264.803 16.204 L 262.263 16.250 262.128 16.833 C 262.053 17.154,261.848 18.129,261.672 19.000 C 261.496 19.871,261.192 21.333,260.995 22.250 C 260.798 23.167,260.502 24.592,260.336 25.417 C 259.728 28.441,259.188 30.924,259.076 31.213 C 258.968 31.490,259.130 31.506,261.598 31.463 L 264.235 31.417 264.516 29.917 C 264.769 28.567,265.207 26.493,265.910 23.309 C 266.431 20.947,267.254 19.980,268.839 19.865 C 270.831 19.721,270.890 20.345,269.500 26.833 C 268.905 29.612,268.667 30.854,268.667 31.181 C 268.667 31.723,273.625 31.668,273.739 31.125 C 273.782 30.919,273.904 30.337,274.009 29.833 C 274.283 28.514,274.816 25.986,275.185 24.250 C 276.059 20.135,276.146 19.283,275.815 18.091 C 275.292 16.207,272.506 15.312,269.806 16.161 M312.972 16.161 C 312.072 16.444,311.298 16.891,310.595 17.535 C 310.173 17.923,310.086 17.804,310.314 17.150 C 310.666 16.142,310.724 16.167,308.018 16.167 L 305.536 16.167 305.415 16.625 C 305.282 17.128,304.885 18.998,304.256 22.083 C 304.032 23.183,303.696 24.796,303.509 25.667 C 302.910 28.461,302.467 30.571,302.380 31.042 L 302.296 31.500 304.797 31.500 C 307.681 31.500,307.361 31.723,307.848 29.375 C 308.023 28.527,308.323 27.102,308.513 26.208 C 308.704 25.315,308.963 24.072,309.090 23.447 C 309.574 21.064,310.451 19.978,311.981 19.867 C 313.669 19.745,313.984 20.521,313.423 23.417 C 313.093 25.122,312.374 28.584,312.091 29.833 C 311.679 31.650,311.472 31.500,314.383 31.500 L 316.932 31.500 317.129 30.458 C 317.379 29.141,318.467 23.902,319.007 21.417 C 319.943 17.111,317.292 14.803,312.972 16.161 M354.697 16.097 C 352.034 16.680,350.266 18.125,349.257 20.542 L 348.996 21.167 351.373 21.166 L 353.750 21.165 354.026 20.680 C 354.988 18.988,358.462 18.941,358.093 20.625 C 357.933 21.350,357.124 21.782,355.364 22.083 C 352.642 22.547,351.583 22.801,350.666 23.207 C 347.041 24.813,345.964 29.889,348.917 31.455 C 350.772 32.439,355.089 31.637,356.190 30.104 C 356.249 30.022,356.258 30.303,356.210 30.728 L 356.123 31.500 358.792 31.500 C 361.678 31.500,362.153 31.313,361.394 30.475 C 361.079 30.127,361.139 29.294,361.647 27.000 C 361.840 26.129,362.148 24.629,362.331 23.667 C 362.515 22.704,362.751 21.530,362.855 21.058 C 363.734 17.089,360.143 14.905,354.697 16.097 M374.709 16.089 C 373.853 16.358,372.333 17.168,372.333 17.354 C 372.333 17.428,372.176 17.573,371.984 17.675 C 371.622 17.869,371.613 17.620,371.940 16.458 C 372.016 16.190,371.823 16.167,369.514 16.167 C 366.649 16.167,367.028 15.918,366.599 18.083 C 366.471 18.725,366.019 20.900,365.594 22.917 C 365.169 24.933,364.675 27.296,364.495 28.167 C 364.315 29.037,364.094 30.050,364.005 30.417 C 363.721 31.574,363.583 31.513,366.368 31.463 L 368.903 31.417 369.037 30.833 C 369.236 29.971,369.804 27.263,370.088 25.833 C 371.060 20.924,371.733 19.833,373.791 19.833 C 375.105 19.833,375.485 20.844,375.011 23.083 C 374.364 26.143,373.641 29.710,373.431 30.875 L 373.318 31.500 375.874 31.500 L 378.430 31.500 378.813 29.625 C 379.023 28.594,379.330 27.075,379.495 26.250 C 379.660 25.425,379.990 23.850,380.230 22.750 C 380.929 19.538,380.801 17.729,379.808 16.781 C 378.939 15.952,376.288 15.592,374.709 16.089 M279.850 16.792 C 279.760 17.135,279.531 18.204,279.342 19.167 C 279.152 20.129,278.847 21.629,278.663 22.500 C 278.478 23.371,278.178 24.796,277.996 25.667 C 277.813 26.537,277.513 27.962,277.328 28.833 C 277.144 29.704,276.947 30.660,276.891 30.958 L 276.790 31.500 279.294 31.500 C 282.186 31.500,281.864 31.728,282.344 29.333 C 282.518 28.462,282.812 27.037,282.996 26.167 C 283.180 25.296,283.479 23.871,283.661 23.000 C 283.843 22.129,284.190 20.479,284.431 19.333 C 284.673 18.188,284.908 17.006,284.954 16.708 L 285.036 16.167 282.525 16.167 L 280.013 16.167 279.850 16.792 M295.752 19.907 C 298.339 20.988,296.569 27.445,293.553 27.927 C 291.909 28.190,291.000 27.264,291.000 25.324 C 291.000 21.684,293.415 18.930,295.752 19.907 M119.080 20.259 C 120.142 20.763,120.422 21.226,120.210 22.127 C 120.107 22.561,119.978 23.129,119.922 23.389 L 119.820 23.862 118.452 22.636 C 117.699 21.962,116.809 21.176,116.474 20.890 C 115.879 20.383,115.873 20.366,116.224 20.197 C 116.777 19.929,118.462 19.966,119.080 20.259 M137.738 20.477 C 137.962 20.911,137.946 21.161,137.560 23.186 C 137.327 24.413,137.096 25.626,137.048 25.882 C 136.688 27.791,134.515 27.863,134.157 25.977 C 133.574 22.906,136.595 18.266,137.738 20.477 M145.895 20.547 C 147.517 22.728,144.351 29.189,142.632 27.208 C 142.315 26.844,143.367 21.245,143.902 20.450 C 144.336 19.805,145.380 19.855,145.895 20.547 M39.446 21.463 C 40.517 22.144,39.750 26.454,38.314 27.827 C 37.423 28.678,36.806 28.355,36.578 26.917 C 36.246 24.823,38.372 20.780,39.446 21.463 M85.150 21.858 C 85.682 23.383,84.931 26.554,83.760 27.725 C 82.440 29.045,81.375 27.273,82.084 24.936 C 82.930 22.147,84.649 20.421,85.150 21.858 M115.671 23.331 C 115.814 23.470,116.665 24.183,117.562 24.917 L 119.194 26.250 118.526 26.845 C 115.694 29.368,113.007 27.031,114.146 23.036 L 114.349 22.322 114.881 22.700 C 115.173 22.909,115.529 23.192,115.671 23.331 M339.938 23.289 C 340.738 23.859,340.783 25.146,340.038 26.154 C 339.435 26.968,338.970 27.079,335.895 27.138 L 333.040 27.194 333.365 25.555 C 333.544 24.654,333.732 23.666,333.782 23.359 L 333.874 22.801 336.645 22.859 C 339.195 22.912,339.458 22.946,339.938 23.289 M356.990 25.743 C 356.371 27.975,353.875 29.375,352.667 28.167 C 351.420 26.920,352.748 25.571,355.858 24.923 C 356.512 24.786,357.087 24.635,357.135 24.587 C 357.327 24.395,357.297 24.638,356.990 25.743 M104.917 35.842 C 104.733 35.926,104.373 36.071,104.115 36.164 L 103.647 36.332 103.949 36.856 C 104.828 38.385,107.802 38.561,109.937 37.210 C 110.887 36.609,110.932 36.425,110.231 36.011 C 109.479 35.567,109.413 35.574,108.848 36.152 C 107.580 37.449,105.833 37.365,105.833 36.008 C 105.833 35.640,105.493 35.578,104.917 35.842 M126.361 36.099 C 126.063 36.308,125.993 36.495,126.033 36.974 C 126.131 38.154,128.149 37.801,128.163 36.602 C 128.171 35.908,127.072 35.601,126.361 36.099 M130.747 36.224 C 129.374 36.671,128.510 37.436,128.504 38.208 L 128.500 38.667 125.518 38.667 L 122.536 38.667 122.468 39.250 L 122.400 39.833 123.863 39.833 L 125.326 39.833 125.136 40.250 C 125.011 40.525,124.811 40.667,124.548 40.667 C 123.493 40.667,122.667 41.567,122.667 42.718 C 122.667 43.564,123.029 44.000,123.732 44.000 C 124.894 44.000,125.162 44.719,124.296 45.509 C 123.685 46.067,123.079 46.136,122.303 45.734 C 121.192 45.160,121.165 46.518,122.268 47.534 C 123.862 49.004,126.436 49.582,126.727 48.536 C 126.771 48.379,126.854 48.086,126.911 47.886 C 127.012 47.536,126.981 47.526,126.083 47.619 C 124.720 47.759,123.659 47.153,124.913 46.949 C 127.292 46.564,128.042 43.471,125.825 43.190 C 124.283 42.994,124.646 42.007,126.262 42.003 L 127.107 42.000 127.333 40.917 L 127.559 39.833 128.425 39.833 L 129.291 39.833 128.975 41.499 C 128.420 44.424,128.019 46.406,127.905 46.792 C 127.798 47.156,127.829 47.167,128.977 47.167 C 130.321 47.167,130.167 47.360,130.575 45.167 C 131.179 41.916,131.486 40.393,131.589 40.125 C 131.689 39.869,131.956 39.833,133.786 39.833 C 135.617 39.833,135.857 39.865,135.768 40.097 C 135.712 40.242,135.667 40.429,135.667 40.514 C 135.667 40.598,135.220 40.667,134.674 40.667 C 132.819 40.667,131.626 42.474,132.742 43.591 C 133.093 43.941,133.307 44.000,134.231 44.000 C 135.386 44.000,135.661 44.229,135.421 44.988 C 135.158 45.815,132.889 46.347,131.993 45.792 C 131.587 45.540,131.340 45.819,131.336 46.534 C 131.328 47.994,136.374 47.308,137.433 45.705 C 138.400 44.243,137.652 42.882,135.833 42.799 C 134.878 42.756,134.750 42.711,134.750 42.417 C 134.750 42.114,134.889 42.076,136.238 42.000 L 137.725 41.917 137.973 40.869 L 138.221 39.821 139.652 39.869 L 141.083 39.917 141.134 40.523 C 141.203 41.354,140.542 41.904,139.621 41.781 C 138.876 41.682,138.547 42.133,138.391 43.467 C 138.183 45.244,140.596 46.300,143.293 45.612 C 143.811 45.479,143.829 45.490,143.692 45.862 C 143.613 46.075,143.498 46.459,143.436 46.715 L 143.323 47.181 144.613 47.132 L 145.903 47.083 146.192 45.750 C 147.478 39.817,147.472 39.833,148.131 39.833 C 148.648 39.833,148.695 39.871,148.597 40.208 C 148.463 40.673,147.881 43.489,147.572 45.167 C 147.446 45.854,147.301 46.585,147.251 46.792 C 147.164 47.154,147.201 47.167,148.327 47.167 C 149.399 47.167,149.501 47.136,149.583 46.792 C 149.685 46.360,149.855 45.503,150.236 43.500 C 150.384 42.721,150.575 41.783,150.660 41.417 C 150.745 41.050,150.858 40.544,150.910 40.292 C 150.988 39.921,151.097 39.833,151.484 39.833 C 151.946 39.833,152.157 39.536,152.164 38.875 C 152.166 38.712,150.623 38.667,145.000 38.667 C 137.987 38.667,137.833 38.660,137.833 38.339 C 137.833 36.686,133.393 35.361,130.747 36.224 M359.489 36.303 C 358.791 36.606,358.334 37.163,358.149 37.937 C 358.042 38.384,357.930 38.844,357.899 38.958 C 357.869 39.074,357.589 39.167,357.273 39.167 C 356.670 39.167,356.500 39.371,356.500 40.097 C 356.500 40.434,356.582 40.500,357.000 40.500 C 357.579 40.500,357.585 40.540,357.236 42.000 C 357.093 42.596,356.834 43.796,356.661 44.667 C 356.487 45.538,356.296 46.419,356.236 46.625 C 356.132 46.985,356.169 47.000,357.147 47.000 C 358.066 47.000,358.167 46.966,358.167 46.656 C 358.167 46.466,358.313 45.660,358.491 44.864 C 358.669 44.068,358.955 42.779,359.127 42.000 L 359.439 40.583 360.117 40.533 C 360.725 40.488,360.806 40.430,360.898 39.971 C 361.055 39.183,361.044 39.167,360.330 39.167 C 359.684 39.167,359.664 39.150,359.770 38.708 C 359.933 38.024,360.149 37.833,360.761 37.833 C 361.404 37.833,361.424 37.810,361.579 36.875 L 361.696 36.167 360.723 36.178 C 360.188 36.185,359.633 36.241,359.489 36.303 M366.517 37.292 C 366.415 37.819,366.189 38.925,366.015 39.750 C 365.841 40.575,365.504 42.188,365.266 43.333 C 365.028 44.479,364.760 45.717,364.671 46.083 C 364.581 46.450,364.506 46.806,364.504 46.875 C 364.492 47.239,366.494 46.996,366.568 46.625 C 366.608 46.419,366.760 45.725,366.905 45.083 C 367.050 44.442,367.274 43.392,367.403 42.750 C 367.532 42.108,367.839 40.608,368.086 39.417 C 368.332 38.225,368.572 37.044,368.619 36.792 L 368.704 36.333 367.703 36.333 L 366.702 36.333 366.517 37.292 M384.586 36.708 C 384.538 36.915,384.385 37.642,384.245 38.324 C 383.940 39.812,383.958 39.789,383.427 39.371 C 381.812 38.101,379.136 39.204,377.986 41.613 C 376.162 45.434,378.405 48.619,381.733 46.934 C 382.273 46.660,382.494 46.608,382.433 46.767 C 382.363 46.950,382.551 47.000,383.311 47.000 L 384.278 47.000 384.557 45.542 C 384.710 44.740,384.978 43.408,385.152 42.583 C 385.325 41.758,385.621 40.330,385.809 39.409 C 385.997 38.487,386.186 37.625,386.228 37.492 C 386.590 36.357,386.577 36.333,385.590 36.333 C 384.776 36.333,384.663 36.375,384.586 36.708 M388.093 36.958 C 388.032 37.302,387.944 37.715,387.897 37.875 C 387.822 38.128,387.933 38.167,388.729 38.167 C 389.762 38.167,389.785 38.147,389.981 37.094 L 390.124 36.333 389.164 36.333 L 388.204 36.333 388.093 36.958 M134.669 37.311 C 134.989 37.481,135.388 37.856,135.557 38.144 L 135.864 38.667 133.367 38.667 C 130.612 38.667,130.380 38.575,131.032 37.747 C 131.670 36.936,133.547 36.711,134.669 37.311 M97.450 38.828 C 96.671 38.978,96.568 39.086,96.449 39.875 C 96.339 40.603,96.360 40.614,96.988 40.149 C 97.567 39.721,98.121 39.845,98.270 40.437 C 98.387 40.904,97.810 41.667,97.339 41.667 C 97.164 41.667,97.006 41.904,96.890 42.337 C 96.723 42.962,96.845 43.385,97.082 43.003 C 97.244 42.740,97.786 42.803,97.899 43.097 C 98.499 44.660,96.664 46.682,95.575 45.659 C 95.080 45.194,95.045 45.223,94.974 46.152 C 94.863 47.586,97.843 47.453,99.399 45.955 C 99.978 45.397,100.608 43.854,100.437 43.410 C 100.370 43.235,100.465 43.167,100.773 43.167 C 101.260 43.167,101.261 43.078,100.769 45.667 C 100.621 46.446,100.500 47.102,100.500 47.125 C 100.500 47.148,101.019 47.167,101.653 47.167 L 102.807 47.167 102.912 46.625 C 102.970 46.327,103.092 45.746,103.183 45.333 C 103.274 44.921,103.554 43.533,103.804 42.250 L 104.260 39.917 105.056 39.865 L 105.852 39.814 105.755 40.365 C 105.702 40.669,105.582 41.292,105.489 41.750 C 105.395 42.208,105.173 43.296,104.996 44.167 C 104.818 45.038,104.606 46.069,104.525 46.458 L 104.378 47.167 105.528 47.167 C 106.858 47.167,106.733 47.329,107.176 45.023 C 107.354 44.094,107.649 42.565,107.831 41.625 C 108.012 40.685,108.162 39.898,108.164 39.875 C 108.165 39.852,108.475 39.833,108.853 39.833 C 109.483 39.833,109.531 39.864,109.438 40.208 C 108.545 43.521,109.113 44.922,111.299 44.800 C 112.110 44.754,112.176 44.777,112.100 45.083 C 112.055 45.267,111.967 45.814,111.903 46.300 L 111.788 47.183 112.935 47.133 L 114.082 47.083 114.291 46.000 C 114.405 45.404,114.611 44.320,114.748 43.591 C 115.085 41.791,115.730 41.267,116.173 42.433 C 116.479 43.237,115.755 45.303,115.076 45.563 C 114.223 45.890,115.266 46.797,116.157 46.503 C 119.223 45.491,119.350 40.523,116.305 40.695 C 115.545 40.738,115.348 40.701,115.414 40.528 C 115.462 40.406,115.500 40.200,115.500 40.070 C 115.500 39.878,115.905 39.833,117.647 39.833 C 119.947 39.833,119.987 39.817,119.998 38.875 C 120.000 38.711,117.977 38.667,110.435 38.667 L 100.870 38.667 100.802 39.250 C 100.735 39.823,100.745 39.833,101.344 39.833 L 101.955 39.833 101.695 40.917 L 101.436 42.000 100.730 42.000 C 100.244 42.000,100.008 42.076,99.971 42.246 C 99.931 42.424,99.848 42.446,99.667 42.326 C 99.449 42.182,99.454 42.139,99.708 41.989 C 100.116 41.748,100.500 40.946,100.500 40.336 C 100.500 39.033,99.343 38.461,97.450 38.828 M350.470 38.889 C 348.009 39.585,346.527 42.567,347.302 45.265 C 348.192 48.359,353.409 48.169,355.089 44.981 C 357.079 41.204,354.467 37.758,350.470 38.889 M393.048 39.016 C 392.131 39.235,390.866 40.384,390.727 41.125 L 390.625 41.667 391.479 41.667 C 391.949 41.667,392.333 41.610,392.333 41.540 C 392.333 40.701,394.577 40.100,395.238 40.762 C 395.612 41.136,395.247 41.991,394.708 42.003 C 392.659 42.045,390.310 43.137,389.824 44.273 C 388.764 46.745,391.028 48.277,393.625 46.845 C 394.252 46.499,394.500 46.428,394.500 46.594 C 394.500 47.176,396.304 47.585,396.778 47.111 C 397.092 46.797,397.025 45.667,396.693 45.667 C 396.283 45.667,396.243 46.051,397.083 41.945 C 397.599 39.425,396.049 38.300,393.048 39.016 M372.623 39.333 C 371.878 39.733,371.833 39.737,371.833 39.417 C 371.833 38.822,370.058 39.095,369.938 39.708 C 369.880 40.006,369.690 40.925,369.517 41.750 C 369.041 44.004,368.500 46.733,368.500 46.875 C 368.500 46.944,368.900 47.000,369.389 47.000 L 370.279 47.000 370.545 45.875 C 370.691 45.256,370.897 44.262,371.002 43.667 C 371.412 41.339,372.475 40.207,373.912 40.567 C 374.762 40.781,374.764 40.983,373.939 44.833 C 373.812 45.429,373.662 46.160,373.608 46.458 L 373.508 47.000 374.403 47.000 C 375.459 47.000,375.365 47.157,375.945 44.417 C 376.907 39.877,376.650 39.000,374.360 39.000 C 373.563 39.000,373.067 39.095,372.623 39.333 M387.598 39.458 C 387.513 39.729,387.347 40.495,386.470 44.667 C 386.287 45.538,386.096 46.423,386.047 46.634 C 385.961 47.005,385.990 47.016,386.937 46.967 L 387.915 46.917 388.118 45.917 C 388.229 45.367,388.465 44.242,388.641 43.417 C 388.974 41.857,389.500 39.281,389.500 39.208 C 389.500 38.975,387.674 39.215,387.598 39.458 M112.822 41.518 C 112.656 42.444,112.496 43.222,112.468 43.245 C 111.397 44.135,111.102 43.394,111.609 41.088 L 111.885 39.833 112.505 39.833 L 113.125 39.833 112.822 41.518 M144.999 39.958 C 144.999 40.027,144.931 40.346,144.849 40.667 C 144.767 40.987,144.567 41.840,144.404 42.562 C 144.062 44.074,143.621 44.498,142.388 44.499 C 140.866 44.501,139.932 42.719,141.335 42.493 C 142.876 42.245,144.081 41.092,143.692 40.239 C 143.511 39.842,143.523 39.833,144.254 39.833 C 144.664 39.833,145.000 39.890,144.999 39.958 M353.021 40.365 C 353.876 40.846,354.115 41.635,353.836 43.056 C 353.090 46.845,348.441 47.251,348.887 43.488 C 349.197 40.875,351.215 39.350,353.021 40.365 M382.581 40.666 C 384.432 41.370,382.933 45.667,380.836 45.667 C 379.625 45.667,379.277 45.236,379.310 43.777 C 379.358 41.619,380.994 40.063,382.581 40.666 M394.867 43.849 C 394.618 45.545,391.500 46.626,391.500 45.015 C 391.500 44.177,392.569 43.633,394.763 43.356 C 394.871 43.342,394.912 43.538,394.867 43.849 " stroke="none" fill="#ec1c24" fill-rule="evenodd"></path><path id="path2" d="M282.911 52.888 C 280.702 53.742,280.412 57.049,282.451 58.140 C 282.899 58.380,284.411 58.393,284.844 58.161 C 285.067 58.042,285.167 58.042,285.167 58.161 C 285.167 58.256,285.392 58.333,285.667 58.333 L 286.167 58.333 286.167 56.833 L 286.167 55.333 284.917 55.333 L 283.667 55.333 283.667 55.833 C 283.667 56.294,283.713 56.333,284.250 56.333 C 284.923 56.333,284.993 56.563,284.458 57.009 C 283.194 58.064,281.687 55.602,282.840 54.365 C 283.323 53.846,284.208 53.872,284.637 54.417 C 285.085 54.987,286.000 55.012,286.000 54.454 C 286.000 53.304,284.198 52.390,282.911 52.888 M73.262 53.262 C 72.567 53.956,72.948 55.190,73.891 55.303 C 74.409 55.365,74.483 55.755,74.000 55.882 C 73.523 56.006,73.588 56.435,74.172 57.006 C 74.765 57.585,75.333 57.664,75.333 57.167 C 75.333 56.889,75.444 56.833,76.000 56.833 L 76.667 56.833 76.667 57.917 L 76.667 59.000 77.250 59.000 L 77.833 59.000 77.833 56.667 L 77.833 54.333 78.500 54.333 L 79.167 54.333 79.167 56.667 L 79.167 59.000 79.667 59.000 L 80.167 59.000 80.167 56.667 L 80.167 54.333 81.593 54.333 L 83.020 54.333 82.968 54.945 C 82.903 55.714,82.630 55.812,82.080 55.262 C 81.569 54.751,81.574 54.752,81.161 55.136 C 80.825 55.449,80.918 55.687,81.792 56.750 C 81.867 56.842,82.289 57.423,82.729 58.042 C 83.592 59.256,83.606 59.265,84.042 58.935 C 84.491 58.593,84.457 58.501,83.397 57.201 L 83.045 56.769 83.606 56.240 C 84.067 55.805,84.167 55.588,84.167 55.022 L 84.167 54.333 86.167 54.333 C 87.833 54.333,88.167 54.375,88.167 54.583 C 88.167 54.779,87.940 54.833,87.125 54.834 C 84.890 54.835,84.196 56.174,85.499 57.972 C 86.194 58.931,86.614 59.127,87.046 58.694 L 87.385 58.355 86.853 57.908 C 85.476 56.749,85.564 56.000,87.078 56.000 L 88.167 56.000 88.167 57.500 L 88.167 59.000 88.667 59.000 L 89.167 59.000 89.167 56.667 L 89.167 54.333 89.583 54.333 C 89.935 54.333,90.000 54.256,90.000 53.833 L 90.000 53.333 82.917 53.333 L 75.833 53.333 75.833 53.833 C 75.833 54.256,75.898 54.333,76.250 54.333 C 76.633 54.333,76.667 54.394,76.667 55.083 L 76.667 55.833 76.000 55.833 L 75.333 55.833 75.333 54.676 C 75.333 53.158,74.164 52.360,73.262 53.262 M275.508 53.458 C 275.391 53.710,275.048 54.592,274.745 55.417 C 274.442 56.242,274.075 57.196,273.930 57.536 C 273.580 58.360,273.564 58.333,274.398 58.333 C 275.102 58.333,275.134 58.311,275.239 57.750 L 275.348 57.167 276.317 57.167 C 277.266 57.167,277.288 57.177,277.440 57.708 C 277.579 58.197,277.663 58.255,278.303 58.302 C 279.122 58.361,279.128 58.257,278.418 56.500 C 278.215 55.996,277.840 55.002,277.585 54.292 L 277.122 53.000 276.421 53.000 C 275.819 53.000,275.690 53.065,275.508 53.458 M331.458 53.180 C 331.285 53.281,331.167 53.549,331.167 53.842 C 331.167 54.222,331.091 54.333,330.833 54.333 C 330.589 54.333,330.500 54.444,330.500 54.750 C 330.500 55.056,330.589 55.167,330.833 55.167 C 331.143 55.167,331.167 55.278,331.167 56.750 L 331.167 58.333 331.750 58.333 L 332.333 58.333 332.333 56.750 C 332.333 55.172,332.335 55.167,332.750 55.167 C 333.083 55.167,333.167 55.083,333.167 54.750 C 333.167 54.413,333.084 54.333,332.736 54.333 C 332.214 54.333,332.271 53.942,332.805 53.863 C 333.062 53.826,333.167 53.693,333.167 53.405 C 333.167 52.958,332.084 52.815,331.458 53.180 M335.500 55.667 L 335.500 58.333 336.167 58.333 L 336.833 58.333 336.833 55.667 L 336.833 53.000 336.167 53.000 L 335.500 53.000 335.500 55.667 M344.500 53.750 C 344.500 54.454,344.317 54.711,344.083 54.333 C 343.686 53.691,342.097 54.521,341.830 55.511 C 341.308 57.452,342.080 58.353,344.216 58.293 L 345.750 58.250 345.796 55.625 L 345.842 53.000 345.171 53.000 L 344.500 53.000 344.500 53.750 M346.333 53.500 C 346.333 53.972,346.370 54.000,347.000 54.000 C 347.630 54.000,347.667 53.972,347.667 53.500 C 347.667 53.028,347.630 53.000,347.000 53.000 C 346.370 53.000,346.333 53.028,346.333 53.500 M354.528 55.169 C 354.614 57.916,354.805 58.200,356.640 58.303 C 358.784 58.425,359.333 57.677,359.333 54.637 L 359.333 53.000 358.583 53.000 L 357.833 53.000 357.833 54.891 C 357.833 56.918,357.672 57.333,356.888 57.333 C 356.157 57.333,355.925 56.768,355.859 54.818 L 355.796 53.000 355.129 53.000 L 354.461 53.000 354.528 55.169 M366.833 53.736 L 366.833 54.471 366.363 54.293 C 364.461 53.576,363.147 56.709,364.803 58.012 C 365.267 58.377,366.483 58.451,366.800 58.133 C 366.956 57.978,367.000 57.978,367.000 58.133 C 367.000 58.251,367.241 58.333,367.583 58.333 L 368.167 58.333 368.167 55.667 L 368.167 53.000 367.500 53.000 L 366.833 53.000 366.833 53.736 M383.167 55.667 L 383.167 58.333 383.750 58.333 C 384.329 58.333,384.333 58.328,384.333 57.593 C 384.333 56.656,384.573 56.499,384.930 57.203 C 385.392 58.115,385.668 58.333,386.359 58.333 C 387.152 58.333,387.152 58.304,386.338 57.080 C 385.529 55.862,385.529 55.865,386.250 55.167 C 387.003 54.437,386.985 54.333,386.111 54.333 C 385.507 54.333,385.309 54.422,384.903 54.875 L 384.417 55.417 384.368 54.208 L 384.319 53.000 383.743 53.000 L 383.167 53.000 383.167 55.667 M387.167 53.500 C 387.167 53.972,387.204 54.000,387.833 54.000 C 388.463 54.000,388.500 53.972,388.500 53.500 C 388.500 53.028,388.463 53.000,387.833 53.000 C 387.204 53.000,387.167 53.028,387.167 53.500 M322.000 53.750 C 322.000 54.222,321.937 54.333,321.667 54.333 C 321.422 54.333,321.333 54.444,321.333 54.750 C 321.333 55.056,321.422 55.167,321.667 55.167 C 321.970 55.167,322.000 55.278,322.000 56.417 C 322.000 57.934,322.278 58.333,323.333 58.333 C 323.963 58.333,324.000 58.306,324.000 57.833 C 324.000 57.444,323.926 57.333,323.667 57.333 C 323.368 57.333,323.333 57.222,323.333 56.250 C 323.333 55.278,323.368 55.167,323.667 55.167 C 323.911 55.167,324.000 55.056,324.000 54.750 C 324.000 54.444,323.911 54.333,323.667 54.333 C 323.397 54.333,323.333 54.222,323.333 53.750 C 323.333 53.181,323.317 53.167,322.667 53.167 C 322.016 53.167,322.000 53.181,322.000 53.750 M376.500 53.750 C 376.500 54.222,376.437 54.333,376.167 54.333 C 375.922 54.333,375.833 54.444,375.833 54.750 C 375.833 55.056,375.922 55.167,376.167 55.167 C 376.472 55.167,376.500 55.278,376.500 56.488 C 376.500 58.073,376.678 58.333,377.762 58.333 C 378.471 58.333,378.500 58.314,378.500 57.833 C 378.500 57.444,378.426 57.333,378.167 57.333 C 377.868 57.333,377.833 57.222,377.833 56.250 C 377.833 55.278,377.868 55.167,378.167 55.167 C 378.411 55.167,378.500 55.056,378.500 54.750 C 378.500 54.444,378.411 54.333,378.167 54.333 C 377.897 54.333,377.833 54.222,377.833 53.750 C 377.833 53.181,377.817 53.167,377.167 53.167 C 376.516 53.167,376.500 53.181,376.500 53.750 M92.000 53.833 L 92.000 54.333 93.000 54.333 L 94.000 54.333 94.000 54.907 C 94.000 55.529,93.708 55.854,93.483 55.482 C 93.055 54.773,93.044 54.766,92.768 55.041 C 92.624 55.186,92.413 55.334,92.300 55.372 C 92.164 55.418,92.293 55.743,92.689 56.345 C 93.015 56.843,93.556 57.681,93.889 58.208 C 94.559 59.267,94.591 59.284,95.118 58.871 L 95.485 58.583 94.823 57.625 C 94.367 56.965,94.238 56.667,94.408 56.667 C 94.544 56.667,94.744 56.499,94.854 56.295 L 95.053 55.924 95.218 56.295 C 95.334 56.554,95.529 56.667,95.859 56.667 L 96.333 56.667 96.333 57.833 L 96.333 59.000 96.833 59.000 L 97.333 59.000 97.333 56.667 L 97.333 54.333 98.833 54.333 L 100.333 54.333 100.333 54.813 C 100.333 55.585,99.933 55.782,99.416 55.265 C 98.908 54.756,98.933 54.761,98.422 55.095 L 98.022 55.357 99.136 56.887 C 100.801 59.173,100.802 59.174,101.269 58.961 C 101.797 58.721,101.778 58.627,101.008 57.616 L 100.349 56.752 100.841 56.302 C 101.249 55.930,101.333 55.721,101.333 55.093 L 101.333 54.333 102.917 54.333 C 104.073 54.333,104.500 54.390,104.499 54.542 C 104.499 54.676,104.237 54.751,103.758 54.754 C 102.868 54.759,102.251 55.250,102.096 56.077 C 101.885 57.197,102.658 58.076,103.854 58.076 C 104.405 58.076,104.491 58.129,104.534 58.496 C 104.574 58.836,104.687 58.927,105.125 58.969 L 105.667 59.021 105.667 57.600 C 105.667 56.119,105.812 55.833,106.567 55.833 C 107.220 55.833,107.215 56.996,106.559 57.383 C 106.242 57.571,106.277 57.768,106.697 58.159 C 107.043 58.482,107.075 58.484,107.386 58.207 C 108.787 56.961,108.164 54.833,106.399 54.833 C 105.859 54.833,105.667 54.768,105.667 54.583 C 105.667 54.377,105.972 54.333,107.417 54.333 L 109.167 54.333 109.167 56.667 L 109.167 59.000 109.667 59.000 L 110.167 59.000 110.167 56.667 L 110.167 54.333 111.593 54.333 L 113.020 54.333 112.968 54.945 C 112.903 55.720,112.630 55.811,112.065 55.247 C 111.452 54.633,110.461 55.070,111.002 55.715 C 111.260 56.024,112.053 57.085,112.333 57.497 C 113.312 58.937,113.538 59.142,113.941 58.959 C 114.521 58.694,114.381 58.303,113.211 56.933 C 113.141 56.851,113.327 56.540,113.625 56.242 C 114.060 55.807,114.167 55.565,114.167 55.017 C 114.167 54.444,114.221 54.333,114.500 54.333 C 114.759 54.333,114.833 54.222,114.833 53.833 L 114.833 53.333 103.417 53.333 L 92.000 53.333 92.000 53.833 M116.667 53.833 L 116.667 54.333 118.167 54.333 C 119.256 54.333,119.667 54.390,119.667 54.542 C 119.667 54.680,119.392 54.750,118.851 54.750 C 117.888 54.750,117.419 55.091,117.152 55.985 C 116.801 57.164,117.608 58.097,118.951 58.067 C 119.630 58.052,119.667 58.076,119.667 58.526 C 119.667 58.942,119.728 59.000,120.167 59.000 L 120.667 59.000 120.667 57.589 C 120.667 56.365,120.709 56.156,120.989 56.006 C 121.815 55.564,122.358 56.146,121.917 56.998 C 121.775 57.274,121.585 57.500,121.496 57.500 C 121.193 57.500,121.342 57.915,121.751 58.213 C 122.157 58.508,122.160 58.507,122.662 57.813 C 123.721 56.352,123.079 54.833,121.404 54.833 C 120.860 54.833,120.667 54.768,120.667 54.583 C 120.667 54.377,120.972 54.333,122.417 54.333 L 124.167 54.333 124.167 56.667 L 124.167 59.000 124.667 59.000 L 125.167 59.000 125.167 56.667 L 125.167 54.333 125.583 54.333 C 125.935 54.333,126.000 54.256,126.000 53.833 L 126.000 53.333 121.333 53.333 L 116.667 53.333 116.667 53.833 M127.833 53.833 L 127.833 54.333 129.661 54.333 C 131.366 54.333,131.501 54.358,131.682 54.695 C 131.921 55.141,131.529 55.500,130.801 55.500 C 130.413 55.500,130.333 55.571,130.333 55.917 C 130.333 56.261,130.414 56.333,130.796 56.333 C 131.732 56.333,132.355 57.245,131.800 57.800 C 131.276 58.324,130.219 57.572,129.566 56.210 C 129.314 55.682,129.093 55.229,129.076 55.204 C 128.908 54.946,128.161 55.557,128.254 55.875 C 128.996 58.406,131.229 59.796,132.504 58.521 C 133.184 57.842,133.296 57.237,132.884 56.485 C 132.644 56.046,132.594 55.791,132.708 55.587 C 132.795 55.431,132.835 55.085,132.796 54.818 C 132.729 54.366,132.761 54.333,133.279 54.333 L 133.833 54.333 133.833 55.508 C 133.833 57.044,134.213 57.500,135.492 57.500 L 136.333 57.500 136.333 58.250 C 136.333 58.996,136.336 59.000,136.917 59.000 L 137.500 59.000 137.500 56.667 L 137.500 54.333 139.250 54.333 C 140.539 54.333,141.000 54.388,141.000 54.542 C 141.000 54.680,140.723 54.750,140.170 54.750 C 138.611 54.750,137.736 56.436,138.771 57.448 L 139.250 57.917 138.752 58.360 C 138.266 58.791,138.261 58.811,138.557 59.138 C 138.894 59.510,138.793 59.555,140.057 58.461 C 140.743 57.867,141.000 57.878,141.000 58.500 C 141.000 58.944,141.056 59.000,141.500 59.000 L 142.000 59.000 142.000 57.589 C 142.000 56.077,142.238 55.675,142.991 55.914 C 143.529 56.085,143.396 57.500,142.841 57.500 C 142.534 57.500,142.654 57.972,143.027 58.234 C 143.465 58.540,143.567 58.485,144.090 57.656 C 144.975 56.254,144.307 54.833,142.763 54.833 C 142.196 54.833,142.000 54.769,142.000 54.583 C 142.000 54.377,142.306 54.333,143.750 54.333 L 145.500 54.333 145.500 55.064 C 145.500 55.654,145.436 55.811,145.167 55.882 C 144.699 56.004,144.752 56.329,145.343 56.958 C 145.934 57.589,146.667 57.704,146.667 57.167 C 146.667 56.889,146.778 56.833,147.333 56.833 L 148.000 56.833 148.000 57.917 L 148.000 59.000 148.583 59.000 L 149.167 59.000 149.167 56.667 L 149.167 54.333 149.583 54.333 C 149.935 54.333,150.000 54.256,150.000 53.833 L 150.000 53.333 138.917 53.333 L 127.833 53.333 127.833 53.833 M74.333 54.250 C 74.333 54.387,74.258 54.500,74.167 54.500 C 74.075 54.500,74.000 54.387,74.000 54.250 C 74.000 54.112,74.075 54.000,74.167 54.000 C 74.258 54.000,74.333 54.112,74.333 54.250 M287.624 54.444 C 286.319 55.131,286.408 57.879,287.747 58.238 C 289.058 58.591,290.107 58.231,290.562 57.272 C 291.464 55.371,289.484 53.465,287.624 54.444 M295.816 54.548 C 294.121 55.689,294.830 58.333,296.831 58.333 C 297.863 58.333,298.247 58.150,298.586 57.495 L 298.842 57.000 298.296 57.005 C 297.996 57.008,297.604 57.121,297.426 57.255 C 297.012 57.569,296.755 57.564,296.429 57.238 C 295.958 56.768,296.147 56.667,297.500 56.667 C 298.789 56.667,298.833 56.654,298.833 56.275 C 298.833 54.593,297.167 53.639,295.816 54.548 M300.875 54.421 C 300.667 54.568,300.500 54.607,300.500 54.509 C 300.500 54.413,300.237 54.333,299.917 54.333 L 299.333 54.333 299.333 56.333 L 299.333 58.333 299.917 58.333 L 300.500 58.333 300.500 57.167 C 300.500 55.857,300.812 55.333,301.594 55.333 C 301.975 55.333,302.016 55.275,301.969 54.792 C 301.908 54.155,301.465 54.005,300.875 54.421 M303.943 54.280 C 303.880 54.342,303.455 54.376,302.998 54.355 L 302.167 54.317 302.167 56.325 L 302.167 58.333 302.833 58.333 L 303.500 58.333 303.500 57.097 C 303.500 55.611,303.589 55.333,304.068 55.333 C 304.689 55.333,304.833 55.653,304.833 57.033 L 304.833 58.333 305.436 58.333 L 306.038 58.333 305.972 56.565 C 305.913 54.954,305.872 54.768,305.518 54.481 C 305.141 54.176,304.171 54.052,303.943 54.280 M308.262 54.313 C 308.213 54.394,307.833 54.421,307.419 54.375 L 306.667 54.290 306.667 56.312 L 306.667 58.333 307.250 58.333 L 307.833 58.333 307.836 57.042 C 307.839 55.571,307.957 55.281,308.519 55.360 C 308.899 55.414,308.919 55.481,308.965 56.875 L 309.013 58.333 309.583 58.333 L 310.153 58.333 310.202 56.976 C 310.286 54.600,311.333 54.540,311.333 56.911 L 311.333 58.333 312.000 58.333 L 312.667 58.333 312.667 56.737 C 312.667 54.527,311.733 53.569,310.418 54.431 C 310.049 54.673,309.982 54.673,309.637 54.431 C 309.229 54.146,308.409 54.075,308.262 54.313 M314.050 54.493 C 312.756 55.282,312.659 57.225,313.869 58.073 C 314.794 58.720,317.000 58.091,317.000 57.179 C 317.000 56.908,315.845 56.965,315.560 57.250 C 315.239 57.571,314.924 57.567,314.595 57.238 C 314.125 56.768,314.314 56.667,315.667 56.667 L 317.000 56.667 317.000 56.158 C 317.000 54.611,315.368 53.689,314.050 54.493 M319.096 54.313 C 319.046 54.394,318.667 54.421,318.253 54.375 L 317.500 54.290 317.500 56.312 L 317.500 58.333 318.083 58.333 L 318.667 58.333 318.667 56.934 C 318.667 55.472,318.739 55.333,319.496 55.333 C 319.908 55.333,320.000 55.654,320.000 57.097 L 320.000 58.333 320.583 58.333 L 321.167 58.333 321.167 56.659 C 321.167 55.062,321.146 54.965,320.726 54.575 C 320.284 54.166,319.286 54.006,319.096 54.313 M327.341 54.424 C 325.392 55.493,326.107 58.250,328.333 58.250 C 329.834 58.250,330.318 57.794,330.327 56.369 C 330.339 54.645,328.785 53.632,327.341 54.424 M339.037 54.426 C 338.829 54.572,338.667 54.608,338.667 54.509 C 338.667 54.413,338.404 54.333,338.083 54.333 L 337.500 54.333 337.500 56.333 L 337.500 58.333 338.160 58.333 L 338.820 58.333 338.869 56.875 L 338.917 55.417 339.417 55.417 L 339.917 55.417 339.965 56.875 L 340.013 58.333 340.590 58.333 L 341.167 58.333 341.164 56.625 C 341.161 54.807,341.121 54.657,340.553 54.358 C 340.049 54.093,339.476 54.119,339.037 54.426 M348.963 54.426 C 348.517 54.668,348.167 55.136,348.167 55.489 C 348.167 55.783,349.449 55.705,349.565 55.405 C 349.691 55.076,350.417 55.154,350.417 55.496 C 350.417 55.661,350.088 55.815,349.421 55.963 C 348.277 56.217,348.173 56.327,348.169 57.286 C 348.166 58.209,348.391 58.315,350.346 58.311 L 351.917 58.308 351.864 56.562 L 351.812 54.815 351.281 54.492 C 350.652 54.108,349.603 54.079,348.963 54.426 M361.375 54.446 C 361.142 54.608,361.000 54.636,361.000 54.520 C 361.000 54.417,360.738 54.333,360.417 54.333 L 359.833 54.333 359.833 56.333 L 359.833 58.333 360.494 58.333 L 361.154 58.333 361.202 56.875 L 361.250 55.417 361.792 55.364 L 362.333 55.312 362.333 56.823 L 362.333 58.333 363.000 58.333 L 363.667 58.333 363.661 56.708 C 363.656 55.021,363.555 54.717,362.886 54.361 C 362.394 54.098,361.827 54.130,361.375 54.446 M369.483 54.548 C 368.411 55.269,368.257 56.950,369.180 57.872 C 370.046 58.738,372.104 58.394,372.381 57.337 C 372.490 56.918,371.613 56.862,371.093 57.255 C 370.679 57.569,370.422 57.564,370.095 57.238 C 369.625 56.768,369.814 56.667,371.167 56.667 C 372.455 56.667,372.500 56.654,372.500 56.275 C 372.500 54.593,370.833 53.639,369.483 54.548 M374.449 54.505 C 374.079 54.795,374.000 54.811,374.000 54.595 C 374.000 54.415,373.844 54.333,373.500 54.333 L 373.000 54.333 373.000 56.333 L 373.000 58.333 373.565 58.333 L 374.130 58.333 374.194 57.067 C 374.263 55.697,374.494 55.333,375.292 55.333 C 375.638 55.333,375.681 55.265,375.636 54.792 C 375.570 54.115,375.091 53.999,374.449 54.505 M379.497 54.477 C 378.642 54.934,378.575 55.667,379.388 55.667 C 379.757 55.667,380.000 55.573,380.065 55.406 C 380.193 55.070,381.083 55.147,381.083 55.493 C 381.083 55.656,380.767 55.800,380.129 55.927 C 378.678 56.218,378.104 57.273,378.971 58.058 C 379.333 58.385,380.829 58.437,381.133 58.133 C 381.289 57.978,381.333 57.978,381.333 58.133 C 381.333 58.248,381.565 58.333,381.875 58.333 L 382.417 58.334 382.369 56.792 C 382.343 55.944,382.289 55.100,382.249 54.917 C 382.089 54.185,380.515 53.933,379.497 54.477 M390.762 54.313 C 390.713 54.394,390.333 54.421,389.919 54.375 L 389.167 54.290 389.167 56.312 L 389.167 58.333 389.750 58.333 L 390.333 58.333 390.333 56.934 C 390.333 55.473,390.405 55.333,391.161 55.333 C 391.541 55.333,391.662 55.783,391.664 57.208 L 391.667 58.333 392.250 58.333 L 392.833 58.333 392.833 56.659 C 392.833 55.062,392.813 54.965,392.392 54.575 C 391.951 54.166,390.953 54.006,390.762 54.313 M394.027 54.641 C 392.600 55.974,393.376 58.265,395.212 58.138 C 395.932 58.089,396.008 58.117,395.965 58.417 C 395.904 58.838,395.143 58.956,394.840 58.592 C 394.515 58.200,393.500 58.247,393.500 58.655 C 393.500 59.642,395.838 60.076,396.782 59.265 C 397.246 58.866,397.251 58.843,397.308 56.584 L 397.367 54.306 396.605 54.353 C 396.187 54.379,395.792 54.347,395.728 54.283 C 395.435 53.991,394.516 54.184,394.027 54.641 M96.333 55.000 L 96.333 55.667 95.667 55.667 L 95.000 55.667 95.000 55.000 L 95.000 54.333 95.667 54.333 L 96.333 54.333 96.333 55.000 M136.333 55.217 C 136.333 56.166,136.138 56.500,135.583 56.500 C 135.029 56.500,134.833 56.166,134.833 55.217 L 134.833 54.333 135.583 54.333 L 136.333 54.333 136.333 55.217 M148.000 55.083 L 148.000 55.833 147.333 55.833 L 146.667 55.833 146.667 55.083 L 146.667 54.333 147.333 54.333 L 148.000 54.333 148.000 55.083 M290.836 54.375 C 290.841 54.477,291.781 57.115,291.863 57.257 C 291.913 57.345,292.004 57.627,292.066 57.884 C 292.237 58.598,293.483 58.496,293.708 57.750 C 293.790 57.475,293.919 57.100,293.995 56.917 C 294.228 56.352,294.833 54.556,294.833 54.431 C 294.833 54.366,294.558 54.336,294.222 54.365 C 293.628 54.415,293.599 54.449,293.249 55.500 L 292.888 56.583 292.514 55.458 L 292.139 54.333 291.486 54.333 C 291.127 54.333,290.834 54.352,290.836 54.375 M346.333 56.333 L 346.333 58.333 347.000 58.333 L 347.667 58.333 347.667 56.333 L 347.667 54.333 347.000 54.333 L 346.333 54.333 346.333 56.333 M387.167 56.333 L 387.167 58.333 387.833 58.333 L 388.500 58.333 388.500 56.333 L 388.500 54.333 387.833 54.333 L 387.167 54.333 387.167 56.333 M276.831 56.042 C 276.832 56.110,276.608 56.167,276.333 56.167 C 275.748 56.167,275.756 56.199,276.108 55.321 L 276.382 54.635 276.605 55.276 C 276.728 55.628,276.829 55.973,276.831 56.042 M140.719 56.765 C 140.256 57.122,139.594 56.993,139.529 56.532 C 139.458 56.032,139.773 55.667,140.276 55.667 C 140.501 55.667,140.730 55.539,140.797 55.375 C 140.878 55.178,140.934 55.319,140.969 55.807 C 141.008 56.352,140.946 56.589,140.719 56.765 M289.130 55.426 C 289.951 56.001,289.229 57.926,288.400 57.372 C 287.789 56.964,287.729 55.676,288.305 55.339 C 288.675 55.123,288.701 55.126,289.130 55.426 M297.357 55.494 L 297.750 55.822 296.958 55.828 C 296.084 55.834,296.049 55.808,296.429 55.429 C 296.767 55.090,296.881 55.098,297.357 55.494 M315.467 55.367 C 315.811 55.711,315.689 55.833,315.000 55.833 C 314.296 55.833,314.139 55.630,314.625 55.347 C 315.013 55.121,315.226 55.126,315.467 55.367 M328.833 55.500 C 329.654 56.321,328.815 57.928,327.911 57.266 C 327.266 56.795,327.618 55.167,328.365 55.167 C 328.439 55.167,328.650 55.317,328.833 55.500 M344.208 55.399 C 344.800 55.848,344.427 57.500,343.734 57.500 C 343.102 57.500,342.770 56.030,343.276 55.471 C 343.600 55.113,343.810 55.097,344.208 55.399 M366.511 55.339 C 367.130 55.670,366.828 57.500,366.155 57.500 C 365.401 57.500,365.050 55.884,365.704 55.426 C 366.143 55.118,366.106 55.122,366.511 55.339 M370.926 55.403 C 371.360 55.720,371.168 55.867,370.402 55.803 C 369.800 55.752,369.784 55.736,370.064 55.458 C 370.419 55.105,370.511 55.099,370.926 55.403 M395.678 55.339 C 396.155 55.594,396.125 56.727,395.633 57.071 C 394.841 57.626,394.121 56.212,394.833 55.500 C 395.219 55.115,395.248 55.109,395.678 55.339 M119.469 56.856 C 119.120 57.077,118.559 57.022,118.329 56.744 C 117.991 56.338,118.427 55.667,119.028 55.667 C 119.288 55.667,119.513 55.573,119.529 55.458 C 119.545 55.344,119.587 55.580,119.623 55.983 C 119.666 56.469,119.614 56.764,119.469 56.856 M104.468 56.292 C 104.410 56.998,103.759 57.263,103.336 56.753 C 102.988 56.334,103.419 55.667,104.038 55.667 C 104.493 55.667,104.517 55.702,104.468 56.292 M350.470 57.042 C 350.411 57.454,349.756 57.656,349.455 57.355 C 349.200 57.100,349.617 56.667,350.115 56.667 C 350.443 56.667,350.513 56.740,350.470 57.042 M381.167 56.761 C 381.167 57.094,380.761 57.500,380.429 57.500 C 379.983 57.500,379.766 57.134,380.046 56.854 C 380.236 56.664,381.167 56.587,381.167 56.761 " stroke="none" fill="#5c5c5c" fill-rule="evenodd"></path><path id="path3" d="" stroke="none" fill="#b04470" fill-rule="evenodd"></path><path id="path4" d="" stroke="none" fill="#f04424" fill-rule="evenodd"></path></g></svg>
